<svg width="81" height="46" viewBox="0 0 81 46" fill="none" xmlns="http://www.w3.org/2000/svg">
<path d="M67.5082 38.2581C66.6657 38.1299 65.7584 38.0658 64.916 37.9377C59.4723 37.361 54.5471 38.3862 50.5291 42.3591C50.2051 42.6795 49.8811 42.9358 49.5571 43.2562C46.5112 46.0756 43.0117 46.6524 39.1234 45.3067C37.8272 44.8582 36.5959 44.2174 35.3646 43.5766C34.4573 43.128 33.55 42.5513 32.7724 41.9746C29.0785 39.3474 24.8661 38.5785 20.4593 38.8348C18.2559 38.9629 16.0525 39.1552 13.8491 39.3474C4.25791 40.3727 -1.70426 31.5298 0.434329 23.7122C1.14719 21.1491 2.50811 19.0986 4.6467 17.4966C5.55398 16.7917 6.13726 16.0228 6.46129 14.9335C7.56298 10.8324 10.0904 8.20522 14.4972 7.62852C16.8302 7.3722 18.7744 6.21879 20.3945 4.48867C23.8292 0.708037 28.0415 -0.0609095 32.8372 1.22066C34.8461 1.73329 36.7904 2.24592 38.7993 2.69447C41.3916 3.27118 43.9838 3.01486 46.252 1.66921C51.0476 -1.15024 55.1951 -0.253142 59.0835 3.27118C59.2131 3.39933 59.3427 3.46341 59.4075 3.52749C62.7126 7.05181 66.925 8.39746 71.6558 8.65378C73.2111 8.71785 74.896 9.10233 76.3217 9.67903C79.3028 10.8965 80.7934 13.2674 80.9878 16.4714C81.1174 18.5859 80.2101 20.1238 78.4604 21.2132C77.6179 21.7899 76.7106 22.2384 75.8681 22.8151C74.4424 23.8404 73.7944 25.186 74.1184 26.9802C74.3128 28.1977 74.6368 29.4152 74.7016 30.6327C74.896 35.5027 72.239 38.2581 67.5082 38.2581ZM36.7255 20.9569C35.4942 21.918 34.4573 21.918 33.6797 21.2132C32.902 20.5083 32.7076 19.6112 33.3556 18.9063C34.1333 18.0733 35.1053 17.2403 36.1422 16.9199C38.6049 16.151 41.0027 16.5995 43.0117 18.2015C43.7894 18.8423 44.4374 19.8675 44.8262 20.8287C45.4743 22.4947 44.6318 24.0967 42.8172 24.1608C40.8731 24.2889 39.577 25.122 38.2161 26.2754C34.9758 29.0308 29.6617 28.5822 26.8751 25.3783C26.1622 24.5453 25.579 23.3278 25.5142 22.3025C25.4494 20.3801 24.8661 19.1627 23.1163 18.0733C20.0704 16.151 20.5241 12.3063 23.7644 10.7043C25.3845 9.87127 27.0047 9.87127 28.6248 10.7043C31.541 12.114 34.0037 11.9859 36.7255 9.93535C40.2898 7.24405 46.5111 8.01299 49.4274 11.4092C51.3068 13.5878 53.4454 15.1257 55.9728 16.4073C58.6947 17.7529 60.2499 20.0598 60.7684 23.0074C61.4813 27.0443 58.9538 30.5686 54.8711 30.889C52.9269 31.0172 50.918 30.7609 48.9738 30.3764C44.567 29.4793 40.2898 29.1589 36.0774 31.2735C35.2998 31.658 34.4573 31.9143 33.6149 32.1706C30.3746 33.1959 27.1991 32.8755 24.2828 31.2094C23.0515 30.5046 21.8202 29.6715 20.6537 28.7104C19.4872 27.7492 18.1263 27.2366 16.7005 26.9802C15.9229 26.8521 15.0804 26.6598 14.3028 26.5958C11.5161 26.2113 9.37751 24.8016 7.88698 22.4947C7.10931 21.3413 6.52611 20.1238 5.74844 18.8423C3.80427 20.0598 2.63774 21.7258 1.98968 23.7763C-0.278517 30.9531 5.35961 38.5144 12.8771 37.9377C14.562 37.8095 16.2469 37.7454 17.9319 37.5532C24.4124 36.8483 30.3098 38.0658 35.6238 41.9746C37.1144 43.064 38.9937 43.7047 40.8083 44.2174C43.4653 44.9863 45.8631 44.3455 48.0017 42.5513C48.5201 42.1028 49.0386 41.7183 49.4923 41.2698C53.899 37.0406 59.2131 35.8231 65.1104 36.5279C66.0825 36.6561 66.9898 36.7202 67.9619 36.7202C71.267 36.6561 73.1463 34.6697 73.0815 31.4657C73.0167 30.1842 72.8223 28.8385 72.5631 27.621C72.0446 24.9297 73.0815 22.9433 75.3497 21.5336C76.1273 21.0209 76.9698 20.5724 77.7475 20.0598C78.9788 19.2908 79.4325 18.1374 79.3677 16.7277C79.3029 14.0364 77.5531 11.7936 74.7016 11.0888C72.8222 10.5761 70.8133 10.3198 68.8691 10.1917C65.564 9.87127 62.5829 8.78193 60.1203 6.53918C59.4075 5.8984 58.6299 5.32169 57.917 4.6809C54.6119 1.60513 51.0476 0.836193 46.9 3.27118C44.4374 4.74498 41.6508 5.12946 38.7993 4.55275C36.5311 4.1042 34.2629 3.52749 31.9947 2.88671C27.9768 1.79737 24.4124 2.63039 21.561 5.70616C19.6816 7.75667 17.4134 9.10232 14.562 9.42272C14.0436 9.4868 13.5251 9.61495 13.0714 9.74311C8.66465 10.8965 6.20202 17.3685 8.59983 20.9569C10.4144 23.6482 12.7474 25.186 15.9229 25.4424C18.3207 25.6346 20.4593 26.4676 22.2739 28.0696C22.9867 28.7104 23.8292 29.223 24.6069 29.6715C27.3935 31.4017 30.3745 31.7221 33.4852 30.6327C34.7813 30.1842 36.0774 29.6715 37.3736 29.1589C39.5121 28.3259 41.7804 28.0055 44.0486 28.1977C46.0575 28.39 48.0665 28.8385 50.1403 29.0948C51.6309 29.2871 53.1862 29.5434 54.6767 29.3511C57.917 28.9667 59.7963 26.2113 59.1482 23.0714C58.6298 20.4442 57.0745 18.65 54.6767 17.4966C52.5381 16.4714 50.5939 15.3179 49.0386 13.4597C45.7335 9.42272 40.8083 8.84601 36.5311 11.9218C34.3925 13.4597 32.1892 13.8441 29.7265 12.883C28.7545 12.4985 27.8472 12.114 26.8103 11.8577C25.2549 11.4732 23.3107 12.4344 22.7275 13.7801C22.209 14.9335 22.6627 16.4073 24.0884 17.0481C26.227 18.0733 26.8103 19.6753 26.8103 21.7899C26.8103 23.0074 27.2639 24.0967 28.3008 24.8016C30.8282 26.7239 34.4574 27.6851 37.5032 24.8016C38.7345 23.5841 40.0954 22.7511 41.91 22.7511C43.3357 22.7511 43.5949 21.918 42.882 20.7005C41.6507 18.5219 37.7624 17.4966 35.4942 18.8423C35.1053 19.0986 34.9109 19.5471 34.5221 19.9316C35.3646 20.252 35.9478 20.5083 36.7255 20.9569Z" fill="white"/>
</svg>
