<svg width="264" height="205" viewBox="0 0 264 205" fill="none" xmlns="http://www.w3.org/2000/svg">
<path d="M378.864 132.498C374.657 132.226 372.078 129.777 370.45 126.241C369.5 124.2 368.685 121.888 368.278 119.712C365.971 108.83 358.235 103.933 348.191 102.029C340.455 100.533 332.855 101.485 325.39 105.157C325.39 107.334 325.39 109.51 325.39 111.822C325.118 120.528 319.825 126.921 311.275 128.961C310.596 129.097 309.782 129.369 308.967 129.233C308.425 129.097 307.882 128.553 307.746 128.145C307.61 127.737 307.882 126.785 308.289 126.649C309.239 126.105 310.325 125.969 311.275 125.561C318.468 123.112 322.268 118.215 322.268 110.734C322.268 104.069 320.232 97.9483 315.889 92.7795C312.903 89.107 309.103 86.6586 304.082 86.2506C300.281 85.9785 299.874 85.0264 301.503 81.4898C302.589 78.9055 303.81 76.4571 305.032 73.8727C310.596 61.2228 308.153 43.5401 289.559 35.787C283.588 33.3386 277.48 32.2504 271.101 32.5225C269.744 32.5225 268.387 32.9305 266.487 33.2026C267.165 35.1068 267.708 36.7391 268.387 38.2353C273.001 49.117 274.087 60.2706 271.644 71.6964C271.237 73.3286 271.508 76.3211 269.065 75.777C266.215 75.2329 268.251 72.6485 268.522 71.1523C270.423 62.311 270.287 53.6056 267.437 45.1724C259.7 22.729 244.771 8.03877 221.155 3.41408C207.719 0.829686 194.825 3.82213 183.153 11.0312C176.503 15.1118 172.295 20.9607 171.617 28.9859C171.617 29.53 171.481 30.2101 171.617 30.8902C171.617 31.2983 171.888 31.7063 172.16 32.3865C174.603 32.7945 177.181 33.2026 179.76 33.7467C191.704 36.195 202.019 41.4998 210.433 50.4772C216.134 56.5981 220.205 63.5351 221.02 72.1044C221.291 74.9609 221.155 77.9533 220.612 80.8097C219.934 83.9382 220.341 86.2506 222.648 88.6989C236.22 103.117 236.356 126.105 223.056 140.931C222.92 141.067 222.92 141.203 222.784 141.339C221.562 142.291 220.477 144.739 218.712 143.243C216.812 141.611 219.255 140.251 220.205 139.163C235.135 122.568 230.656 100.397 219.12 89.9231C216.812 87.7468 216.134 85.2984 216.948 82.442C220.07 70.4722 215.591 60.8147 207.583 52.6535C196.047 40.9557 181.932 35.3789 165.509 36.4671C156.823 37.0111 149.087 40.5477 142.572 46.2605C136.193 51.8374 133.207 58.7744 136.329 67.3437C136.736 68.4319 136.6 69.7921 136.736 71.5603C135.107 71.1523 134.293 71.0163 133.479 70.7442C120.721 66.1195 105.249 75.0969 107.963 91.5554C109.185 98.4924 111.085 105.021 116.514 110.054C120.178 113.455 124.521 115.767 129.543 116.447C132.393 116.855 134.972 116.583 137.686 115.359C142.029 113.455 142.979 113.727 145.83 117.535C147.594 119.984 150.173 121.072 152.887 121.616C162.252 123.384 170.667 121.208 177.724 114.951C181.66 111.414 182.746 106.654 181.796 101.485C179.896 91.4193 169.988 82.9861 160.623 83.5302C156.823 83.8022 153.837 85.5705 151.937 88.835C150.037 92.2355 150.444 94.5478 153.294 97.4042C153.702 97.8123 153.973 98.3564 154.38 98.9005C152.751 101.349 151.123 100.397 149.766 99.0365C147.458 96.5881 147.051 93.5957 147.73 90.4672C148.816 85.2984 153.294 81.2178 158.588 80.5377C160.352 80.2657 162.252 80.2657 164.152 80.5377C176.503 82.0339 188.718 97.1322 184.239 111.006C182.61 115.767 181.389 120.8 179.353 125.424C170.531 144.875 155.602 155.077 134.158 155.349C124.25 155.485 114.614 153.445 105.249 150.452C103.891 150.044 103.892 149.908 102.263 147.732C104.027 146.1 105.656 147.188 107.285 147.732C115.156 150.18 123.028 151.812 131.172 152.221C152.616 152.901 168.902 142.699 177.181 122.16C177.317 121.752 177.317 121.344 177.453 120.256C175.96 120.936 174.738 121.344 173.653 121.888C168.902 124.336 164.016 125.833 158.588 125.833C150.444 125.833 147.187 124.472 141.079 118.215C140.536 118.351 139.993 118.215 139.451 118.487C132.393 121.888 125.607 120.256 119.228 116.719C115.564 114.679 112.171 112.503 108.642 110.326C103.484 107.334 98.0554 105.702 91.9479 105.974C80.0043 106.654 71.8611 115.495 72.6754 127.329C72.9468 130.593 74.1683 133.858 74.9826 137.122C75.2541 137.938 75.5255 138.754 75.6612 139.435C74.304 140.931 73.3541 140.251 72.404 139.299C55.0316 123.112 31.0087 122.704 13.772 138.074C8.34311 142.971 4.54292 148.82 3.45715 156.165C3.04998 158.886 2.7785 161.606 4.27145 164.598C4.67861 163.782 4.95002 163.51 5.08574 163.102C7.2573 153.445 14.4507 148.276 24.2227 149.364C31.5517 150.18 38.3377 152.629 44.3095 156.981C49.8741 161.062 55.1673 165.551 60.4604 170.039C67.9251 176.568 75.5255 182.825 84.4832 186.906C91.9479 190.442 99.6841 192.619 108.099 191.802C116.785 190.986 123.435 186.634 128.864 180.241C130.764 178.064 132.393 175.48 134.158 173.304C134.565 172.76 135.65 172.624 136.465 172.352C136.6 173.304 137.143 174.528 136.736 175.208C133.75 180.105 130.222 184.457 125.607 188.13C124.386 189.082 123.3 190.034 121.807 191.122C127.371 196.019 133.343 199.556 140.265 200.644C161.166 203.772 181.389 201.324 200.118 191.122C207.583 187.042 214.098 181.601 219.391 174.8C222.377 170.855 225.499 167.047 228.484 163.238C229.299 162.286 230.113 161.47 231.199 160.654C231.47 160.382 232.42 160.518 232.827 160.926C233.235 161.198 233.37 162.15 233.235 162.558C232.692 163.51 232.013 164.326 231.335 165.142C226.041 171.535 220.748 177.928 215.455 184.321C215.319 184.457 215.319 184.865 215.184 185.41C218.577 187.858 222.377 188.266 226.449 187.314C248.028 181.601 263.093 168.407 270.83 147.324C274.63 136.986 274.766 126.513 271.644 115.903C267.844 103.117 260.243 94.1398 246.4 92.0994C245.857 91.9634 245.178 91.9634 244.635 91.5554C244.228 91.2833 243.821 90.4672 243.957 90.0591C244.092 89.6511 244.771 88.971 245.178 88.971C246.671 88.971 248.3 89.107 249.793 89.379C260.65 91.8274 268.251 98.4924 272.458 108.558C279.516 125.016 278.43 141.339 270.151 157.117C267.572 162.014 263.908 166.231 260.65 170.719C259.7 171.943 258.615 173.032 257.529 174.256C259.7 177.248 262.686 178.608 265.672 179.697C278.159 184.321 290.238 183.097 301.367 175.752C308.696 170.991 314.125 164.326 318.875 156.981C321.047 153.445 323.49 150.044 326.476 147.188C333.669 140.251 342.491 137.53 352.399 139.843C361.085 141.883 365.156 148.276 363.935 156.981C363.256 161.606 361.356 165.551 357.827 168.543C353.891 171.807 348.598 171.671 345.205 168.407C343.984 167.183 343.577 166.095 345.612 165.006C346.291 165.415 347.105 165.823 347.784 166.231C351.313 168.271 353.756 167.999 356.47 165.142C359.592 161.878 361.085 157.797 360.949 153.309C360.949 148.684 357.692 144.603 352.806 143.243C343.712 140.659 335.705 142.971 328.919 149.228C317.382 159.838 319.825 171.535 327.561 180.649C336.791 191.53 353.756 193.843 366.785 186.362C371.535 183.641 375.336 179.969 378.729 175.616C378.729 177.52 378.729 179.289 378.729 181.193C377.643 182.281 376.421 183.233 375.336 184.321C363.799 194.115 350.906 196.971 336.79 191.258C326.747 187.178 320.504 179.561 318.197 168.815C318.061 168.407 318.061 167.863 317.925 167.455C317.925 167.183 317.654 166.911 317.246 165.959C316.025 167.183 315.075 168.135 314.125 169.087C307.61 176.296 300.01 182.009 290.374 184.185C278.159 187.042 266.622 185.682 256.172 177.928C255.629 177.52 255.086 177.384 254.407 176.976C253.05 177.928 251.693 179.017 250.336 179.969C242.871 185.137 234.863 189.354 225.634 190.85C220.477 191.666 216.676 190.578 212.605 187.178C211.655 187.722 210.569 188.402 209.619 189.082C198.083 197.515 185.053 202.276 170.938 204.044C164.016 204.86 156.823 204.996 149.766 204.996C138.772 205.132 129 201.324 120.45 194.387C118.957 193.163 117.871 192.755 115.971 193.435C106.877 196.563 97.784 195.475 88.8264 192.347C77.8329 188.538 68.7395 181.873 60.189 174.256C55.5745 170.175 50.9599 166.095 46.2096 162.286C39.9664 157.389 33.0446 153.717 25.037 152.765C23.2726 152.493 21.3725 152.493 19.6081 152.901C14.5864 153.717 10.3789 156.029 9.02172 161.198C7.52878 166.639 8.61465 171.535 12.6863 175.752C13.7721 176.84 14.8577 177.792 15.9435 178.745C15.4006 181.057 14.0435 180.785 12.6863 180.241C7.93604 178.472 4.54299 175.208 2.50716 170.719C-1.42878 161.878 -0.614516 153.173 4.13576 145.011C10.2432 134.402 19.8795 128.145 31.4159 125.152C42.9522 122.16 54.2172 123.656 65.075 128.961C66.4322 129.641 67.7894 130.321 69.8253 131.273C69.2824 120.664 70.9109 111.414 80.4115 105.974C89.3691 100.805 98.5983 101.757 108.099 105.838C106.877 100.669 105.52 96.1801 104.841 91.5554C102.67 77.9533 112.306 66.9357 126.014 66.6636C127.914 66.6636 129.679 66.6636 131.85 66.6636C131.85 65.5755 132.122 64.6233 131.986 63.5351C131.307 56.19 134.022 50.2051 139.179 45.3084C146.101 38.5074 154.652 34.8348 164.152 33.4746C165.374 33.3386 166.595 33.2026 167.952 32.9305C168.088 31.5703 168.495 30.4822 168.495 29.258C169.038 21.0967 172.974 14.9758 179.353 10.2151C186.139 5.04632 194.011 2.32591 202.29 0.965703C227.399 -3.25093 246.671 6.54254 261.6 26.4015C263.772 29.258 265.536 30.4821 269.472 30.0741C279.516 28.9859 289.016 31.2983 297.567 36.8751C311.682 46.1245 313.175 62.3109 309.103 73.6007C308.017 76.7291 306.524 79.7216 305.032 83.2581C315.754 85.2984 321.182 92.6435 324.44 101.485C330.004 100.533 335.026 99.3085 340.184 98.9005C346.562 98.3564 352.67 99.5806 358.506 102.437C364.885 105.702 369.228 110.462 371.128 117.535C371.807 120.12 372.485 122.568 373.435 125.016C374.521 127.329 375.743 129.913 379 129.505C378.864 130.049 378.864 131.273 378.864 132.498Z" fill="#631D25"/>
</svg>
