<svg width="111" height="60" viewBox="0 0 111 60" fill="none" xmlns="http://www.w3.org/2000/svg">
<path d="M0.255006 28.3245C0.510011 28.5765 0.867019 28.7278 1.02002 29.0302C1.32603 29.5848 1.53003 30.1897 1.83604 30.7443C3.11106 33.0632 5.15111 33.9202 7.65016 33.0632C8.67019 32.7103 9.63922 32.2062 10.6592 31.7525C11.1693 31.5004 11.6793 31.2484 12.1893 30.9459C15.8104 28.9294 19.2784 29.3327 22.5935 31.6013C23.6645 32.3575 24.7355 33.164 25.7556 33.9706C28.1526 35.8863 30.9577 36.945 34.0178 37.1466C34.9358 37.197 35.8538 37.0962 36.7718 36.8442C38.4549 36.3904 39.4239 34.7772 39.1179 33.164C38.8629 31.8029 37.9448 31.0971 36.5678 31.198C35.1398 31.2988 33.6607 31.45 32.2327 31.3996C29.6827 31.3492 27.9486 30.0385 27.1836 27.7195C26.4186 25.4005 27.0816 23.0312 29.0706 21.6196C29.8357 21.0651 30.8047 20.7122 31.6717 20.2585C32.2327 20.0064 32.8957 19.8552 33.4057 19.5527C34.5278 18.8974 34.6808 18.2924 34.0688 17.1329C33.9668 16.9313 33.8647 16.7296 33.7117 16.5784C31.9267 14.4611 32.6407 11.638 34.3238 9.87356C38.1999 5.84057 44.575 5.68933 48.5531 9.57108C48.6551 9.6719 48.7571 9.72231 48.9101 9.82314C49.2161 9.62149 49.5221 9.41985 49.8281 9.16779C51.4601 7.75624 53.3472 6.94963 55.3872 6.49592C58.1923 5.84056 60.6913 4.58026 62.9864 2.96706C64.7714 1.70675 66.7095 0.698506 68.9025 0.194383C70.6366 -0.208916 72.3706 0.0935552 74.0536 0.396029C74.4617 0.496854 74.8697 0.547269 75.2267 0.698506C78.3887 1.85799 81.6528 2.36211 85.0189 2.715C92.006 3.47118 96.1881 8.61324 96.9022 13.5032C97.3612 16.528 99.0442 18.6957 101.645 20.3089C105.98 23.0312 109.142 26.7617 110.417 31.7525C113.223 42.4399 105.572 52.3207 94.4541 52.5224C92.108 52.5728 89.864 52.1695 87.62 51.6654C85.6309 51.2117 83.6419 50.9596 81.6018 51.2621C79.3578 51.5645 77.4197 52.472 75.7367 53.9843C74.8187 54.8414 73.9006 55.6984 72.9316 56.5554C68.5965 60.3867 63.4964 61.0421 58.3453 58.4206C56.9173 57.7148 55.4892 56.9082 54.1122 56.1016C51.1541 54.4885 48.1961 54.3876 45.136 55.7992C43.657 56.4545 42.2289 57.1603 40.7499 57.8157C35.7518 59.8826 30.9067 59.4289 26.2656 56.9082C23.5625 55.4463 21.6245 53.2281 20.5025 50.3042C19.8394 48.6406 19.1764 47.0274 18.4624 45.4142C17.1874 42.5912 14.9943 40.9275 11.8833 40.4738C10.4042 40.2722 8.9252 39.9697 7.49717 39.6168C2.80506 38.3565 0.0510011 34.8277 0 29.9881C0 29.4839 0 28.9798 0 28.4757C0 28.4757 0.153003 28.4253 0.255006 28.3245ZM1.73404 33.0128C1.93804 33.7186 1.98904 34.0211 2.14205 34.3235C3.41707 36.6929 5.45712 38.1045 8.05818 38.659C9.33321 38.9615 10.6592 39.1631 11.9853 39.3648C15.6063 39.9193 18.1054 41.8854 19.5844 45.1622C20.2985 46.725 20.9105 48.3382 21.5225 49.9009C22.5935 52.7744 24.5825 54.8918 27.2856 56.2529C31.6207 58.4206 36.0068 58.7231 40.4949 56.7066C41.8209 56.1017 43.096 55.4967 44.422 54.8918C47.9921 53.2786 51.4601 53.4298 54.8772 55.2951C56.2032 56.0008 57.4783 56.8074 58.8043 57.4628C63.6494 59.8826 68.0355 59.328 72.1156 55.7488C73.1866 54.7909 74.2066 53.7827 75.3287 52.8753C76.8587 51.5141 78.6948 50.7579 80.7348 50.3042C83.5909 49.6993 86.3449 50.2034 89.15 50.8588C91.9551 51.5141 94.7601 51.6149 97.5652 51.0604C101.543 50.2538 104.858 48.3886 107 44.9605C110.672 39.1631 110.825 32.1054 106.235 26.2071C104.654 24.1907 102.767 22.527 100.574 21.2163C97.9732 19.6031 96.3411 17.385 95.7801 14.4107C95.6781 13.8057 95.5251 13.2008 95.3721 12.5958C94.0461 7.95788 89.711 4.47943 84.5599 4.02572C81.4998 3.77366 78.4907 3.31995 75.5837 2.26129C75.0737 2.05964 74.5637 1.95882 74.1047 1.80758C71.0956 0.900162 68.2905 1.30346 65.5875 2.86625C64.9244 3.26954 64.2614 3.57201 63.7004 4.02572C61.3034 5.84057 58.5493 7.00005 55.6422 7.80665C54.0612 8.20995 52.4802 8.96613 51.1031 9.87356C48.3491 11.638 47.6861 16.1247 51.7152 18.0908C52.8372 18.6453 54.0102 19.1494 55.0812 19.8552C56.8663 21.0147 57.5803 22.6279 57.0703 24.7452C56.8663 25.5518 56.5603 26.3584 56.3053 27.2154C56.1013 27.9212 55.8462 28.6269 55.7442 29.3831C55.2852 32.1054 56.6623 34.2227 59.3653 35.0293C61.7624 35.7351 63.9044 35.2814 65.8935 33.769C68.5455 31.7021 71.5546 31.0467 74.8697 31.5004C75.9407 31.6517 77.0627 31.6517 78.1337 31.6013C80.7348 31.3996 82.3668 29.8872 82.8258 27.3666C83.3359 24.7956 82.0608 21.8213 79.7658 20.3593C77.2157 18.7461 74.3596 18.3428 71.4526 19.1494C70.4326 19.4519 69.4635 20.0064 68.5965 20.6618C67.5255 21.5188 67.3215 22.6279 67.7805 23.7369C68.2905 24.8964 69.6166 25.7534 70.7896 25.703C72.0136 25.6022 73.0336 24.7956 73.3906 23.5857C73.4416 23.4345 73.3906 23.2328 73.4926 23.0816C73.6456 22.9303 73.8496 22.7791 74.0536 22.7791C74.2066 22.7791 74.4617 22.9808 74.5127 23.1824C74.7677 23.9386 74.5637 24.6444 74.0536 25.2493C72.9316 26.5096 71.6056 27.1146 69.9226 26.8121C68.1885 26.5096 67.0155 25.451 66.5055 23.7874C65.9955 22.1238 66.5565 20.7626 67.8315 19.6535C69.3105 18.3428 71.0956 17.7883 73.0336 17.5866C75.9917 17.2842 78.5927 18.242 81.1428 19.5527C85.2739 21.7204 88.181 24.8964 89.609 29.2823C91.598 35.5334 88.64 41.3813 82.5708 43.2969C79.7148 44.2043 76.8587 44.1539 74.1047 42.9944C73.5946 42.7928 72.8296 42.6416 73.0846 41.4821C73.5946 41.5829 74.0536 41.6837 74.5127 41.835C76.2977 42.5912 78.1847 42.7424 80.1228 42.5407C84.4579 42.087 87.977 39.1631 88.691 35.0293C89.558 30.1393 87.671 26.2072 83.9989 23.0312C83.9479 22.9808 83.7949 23.0816 83.6929 23.132C83.7949 23.8378 83.9479 24.594 84.0499 25.2997C84.6109 29.2823 82.1118 32.4583 78.0317 32.7103C76.9097 32.8112 75.7367 32.7103 74.5637 32.5591C71.7076 32.2566 69.0555 32.6599 66.7095 34.4748C66.2505 34.8276 65.7915 35.1301 65.2814 35.4326C62.4764 36.945 59.7223 36.6929 57.0193 35.1805C55.5402 34.3235 54.6222 32.9624 54.5202 31.2988C54.4692 30.0889 54.6222 28.8286 54.8262 27.5683C54.9792 26.7113 55.3872 25.9551 55.5912 25.1485C56.3052 22.8295 55.7952 21.6196 53.7042 20.4601C52.6332 19.8552 51.5111 19.4015 50.4911 18.7965C48.1451 17.4354 47.074 15.2677 47.7371 12.6966C48.1451 11.1339 47.5331 10.2768 46.462 9.47025C43.045 6.84881 36.9758 7.85706 34.5278 11.3859C33.5587 12.7975 33.3547 14.209 34.4258 15.671C34.6808 16.0239 34.9358 16.4272 35.1398 16.8305C35.9048 18.3428 35.4968 19.6535 34.0688 20.5106C33.4057 20.9139 32.5897 21.1155 31.8757 21.4684C31.0087 21.9221 30.0907 22.3254 29.3766 22.9303C27.9996 24.0898 27.6936 25.6526 28.2036 27.3162C28.7136 28.9798 29.8867 30.0889 31.6717 30.1897C33.0997 30.2905 34.5788 30.1897 36.0068 30.0385C41.3619 29.5344 46.054 31.0971 50.1851 34.3739C51.3071 35.2814 52.3272 36.4913 52.9902 37.7516C54.2652 40.0201 53.7042 42.7928 51.8682 44.5068C50.0321 46.2712 47.8901 46.5233 45.34 45.2126C44.32 44.7085 43.3 44.1035 42.2289 43.6498C40.3419 42.8936 39.1689 43.2969 38.1999 45.1118C37.6898 46.0696 37.2818 47.0779 36.7208 47.9853C35.7008 49.6489 34.2218 50.2538 32.2837 49.9009C30.7027 49.5985 29.3767 48.7919 28.2546 47.7332C26.7246 46.3217 25.7556 44.5068 24.7865 42.6416C24.0215 41.1796 23.2565 39.6672 22.3895 38.3061C21.2165 36.4913 19.4824 35.3318 17.2894 35.0797C15.7084 34.8781 14.0763 34.8781 12.4443 34.9285C10.7102 34.9789 8.9762 35.3318 7.29316 35.3318C5.35512 35.3822 3.62108 34.4244 1.73404 33.0128ZM9.53721 33.6178C9.58821 33.769 9.63922 33.9202 9.63922 34.0211C10.3532 33.9706 11.0672 33.9202 11.7813 33.8698C12.9543 33.769 14.0763 33.6177 15.2493 33.6682C19.3294 33.7186 22.4915 35.3822 24.3785 39.0623C24.8376 39.9697 25.2966 40.9275 25.8066 41.7846C26.4696 42.9944 27.0816 44.2043 27.8466 45.3638C28.7136 46.6745 29.8357 47.7332 31.3147 48.3886C33.6098 49.3968 35.0378 48.9431 36.1598 46.7754C36.6188 45.8679 37.0268 44.9101 37.5878 44.0531C38.6079 42.4903 40.0869 41.8854 41.9229 42.3895C42.841 42.6416 43.708 43.0953 44.626 43.4986C45.391 43.8515 46.156 44.2548 46.972 44.6076C48.1961 45.1622 49.3181 44.9101 50.4401 44.2548C52.1742 43.1457 52.9902 41.0284 52.3272 39.0119C51.9192 37.7012 51.1031 36.6929 50.0831 35.8359C47.5841 33.6178 44.626 32.2566 41.3619 31.5509C41.0049 31.45 40.5969 31.5509 40.1379 31.5509C40.2399 32.2566 40.3419 32.8616 40.3929 33.4665C40.5459 35.9367 39.1179 37.802 36.6698 38.2557C35.8538 38.4069 34.9358 38.4573 34.0688 38.4069C30.6517 38.2557 27.6936 37.0458 24.9905 34.9789C23.5115 33.8698 22.0325 32.7608 20.4515 31.8533C18.8194 30.8955 16.9834 30.4922 15.1473 31.1475C13.2093 31.8029 11.3733 32.7608 9.53721 33.6178Z" fill="#631D25"/>
</svg>
