<svg width="519" height="33" viewBox="0 0 519 33" fill="none" xmlns="http://www.w3.org/2000/svg">
<path d="M142.703 31V1.2H153.223C155.196 1.2 156.929 1.57333 158.423 2.32C159.916 3.06667 161.076 4.13333 161.903 5.52C162.756 6.90667 163.183 8.53333 163.183 10.4C163.183 12.2667 162.756 13.8933 161.903 15.28C161.076 16.64 159.916 17.7067 158.423 18.48C156.956 19.2267 155.223 19.6 153.223 19.6H146.623V31H142.703ZM146.623 16H153.343C154.543 16 155.583 15.7733 156.463 15.32C157.343 14.8667 158.023 14.2133 158.503 13.36C158.983 12.5067 159.223 11.52 159.223 10.4C159.223 9.25333 158.983 8.26667 158.503 7.44C158.023 6.58666 157.343 5.93333 156.463 5.48C155.583 5.02667 154.543 4.8 153.343 4.8H146.623V16ZM168.044 31V9.44H171.684V13.4L171.284 12.84C171.791 11.6133 172.564 10.7067 173.604 10.12C174.644 9.50667 175.911 9.2 177.404 9.2H178.724V12.72H176.844C175.324 12.72 174.097 13.2 173.164 14.16C172.231 15.0933 171.764 16.4267 171.764 18.16V31H168.044ZM192.268 31.48C190.188 31.48 188.308 31 186.628 30.04C184.948 29.0533 183.615 27.7067 182.628 26C181.642 24.2933 181.148 22.36 181.148 20.2C181.148 18.04 181.628 16.12 182.588 14.44C183.575 12.76 184.908 11.4267 186.588 10.44C188.268 9.45333 190.162 8.96 192.268 8.96C194.348 8.96 196.228 9.45333 197.908 10.44C199.588 11.4 200.908 12.72 201.868 14.4C202.855 16.08 203.348 18.0133 203.348 20.2C203.348 22.3867 202.842 24.3333 201.828 26.04C200.815 27.72 199.468 29.0533 197.788 30.04C196.135 31 194.295 31.48 192.268 31.48ZM192.268 27.88C193.602 27.88 194.802 27.5467 195.868 26.88C196.962 26.2133 197.815 25.2933 198.428 24.12C199.068 22.9467 199.388 21.64 199.388 20.2C199.388 18.7333 199.068 17.44 198.428 16.32C197.815 15.1733 196.962 14.2667 195.868 13.6C194.802 12.9067 193.602 12.56 192.268 12.56C190.908 12.56 189.682 12.9067 188.588 13.6C187.522 14.2667 186.668 15.1733 186.028 16.32C185.388 17.44 185.068 18.7333 185.068 20.2C185.068 21.64 185.388 22.9467 186.028 24.12C186.668 25.2933 187.522 26.2133 188.588 26.88C189.682 27.5467 190.908 27.88 192.268 27.88ZM218 31.48C215.974 31.48 214.147 30.9867 212.52 30C210.92 29.0133 209.654 27.6667 208.72 25.96C207.787 24.2533 207.32 22.3467 207.32 20.24C207.32 18.08 207.787 16.16 208.72 14.48C209.654 12.7733 210.92 11.4267 212.52 10.44C214.147 9.45333 215.974 8.96 218 8.96C219.787 8.96 221.374 9.34667 222.76 10.12C224.147 10.8667 225.24 11.88 226.04 13.16L225.44 14.08V0.719999H229.2V31H225.56V26.4L226.04 27.04C225.294 28.4533 224.2 29.5467 222.76 30.32C221.347 31.0933 219.76 31.48 218 31.48ZM218.32 27.88C219.68 27.88 220.894 27.5467 221.96 26.88C223.027 26.2133 223.867 25.3067 224.48 24.16C225.12 22.9867 225.44 21.68 225.44 20.24C225.44 18.7733 225.12 17.4667 224.48 16.32C223.867 15.1467 223.027 14.2267 221.96 13.56C220.894 12.8933 219.68 12.56 218.32 12.56C216.987 12.56 215.774 12.9067 214.68 13.6C213.614 14.2667 212.774 15.1733 212.16 16.32C211.547 17.44 211.24 18.7467 211.24 20.24C211.24 21.68 211.547 22.9867 212.16 24.16C212.774 25.3067 213.614 26.2133 214.68 26.88C215.747 27.5467 216.96 27.88 218.32 27.88ZM242.598 31.48C241.051 31.48 239.651 31.12 238.398 30.4C237.171 29.68 236.211 28.68 235.518 27.4C234.851 26.0933 234.518 24.6 234.518 22.92V9.44H238.238V22.52C238.238 23.5867 238.451 24.52 238.878 25.32C239.331 26.12 239.945 26.7467 240.718 27.2C241.518 27.6533 242.425 27.88 243.438 27.88C244.451 27.88 245.345 27.6533 246.118 27.2C246.918 26.7467 247.531 26.0933 247.958 25.24C248.411 24.3867 248.638 23.3733 248.638 22.2V9.44H252.398V31H248.758V26.8L249.358 27.16C248.851 28.52 247.985 29.5867 246.758 30.36C245.558 31.1067 244.171 31.48 242.598 31.48ZM258.161 31V0.719999H261.881V21.48L260.361 21.12L271.801 9.44H276.561L268.281 18.12L277.121 31H272.721L264.641 19.32L266.961 19.2L260.681 25.76L261.881 23.04V31H258.161ZM287.82 31V1.2H291.74V17.96L290.78 17.56L305.02 1.2H309.94L297.98 15L298.18 12.2L310.54 31H305.86L296.42 16.84L291.74 22.2V31H287.82ZM319.794 31.48C318.38 31.48 317.127 31.2267 316.034 30.72C314.967 30.1867 314.127 29.4667 313.514 28.56C312.9 27.6267 312.594 26.56 312.594 25.36C312.594 24.2133 312.834 23.1867 313.314 22.28C313.82 21.3467 314.594 20.56 315.634 19.92C316.7 19.28 318.034 18.8267 319.634 18.56L327.634 17.24V20.36L320.474 21.56C319.087 21.8 318.074 22.24 317.434 22.88C316.82 23.52 316.514 24.3067 316.514 25.24C316.514 26.12 316.86 26.8533 317.554 27.44C318.274 28.0267 319.167 28.32 320.234 28.32C321.594 28.32 322.767 28.04 323.754 27.48C324.767 26.8933 325.554 26.1067 326.114 25.12C326.7 24.1333 326.994 23.04 326.994 21.84V16.36C326.994 15.1867 326.554 14.24 325.674 13.52C324.82 12.7733 323.687 12.4 322.274 12.4C321.047 12.4 319.954 12.72 318.994 13.36C318.06 13.9733 317.367 14.8 316.914 15.84L313.674 14.16C314.074 13.1733 314.714 12.2933 315.594 11.52C316.474 10.72 317.5 10.0933 318.674 9.64C319.847 9.18667 321.074 8.96 322.354 8.96C324.007 8.96 325.46 9.28 326.714 9.92C327.967 10.5333 328.94 11.4 329.634 12.52C330.354 13.6133 330.714 14.8933 330.714 16.36V31H327.074V26.92L327.754 27.16C327.3 28.0133 326.687 28.76 325.914 29.4C325.14 30.04 324.234 30.5467 323.194 30.92C322.154 31.2933 321.02 31.48 319.794 31.48ZM336.482 31V9.44H340.122V13.84L339.602 13.16C340.135 11.8 340.988 10.76 342.162 10.04C343.335 9.32 344.655 8.96 346.122 8.96C347.802 8.96 349.308 9.42667 350.642 10.36C352.002 11.2933 352.935 12.52 353.442 14.04L352.402 14.08C352.962 12.4 353.908 11.1333 355.242 10.28C356.575 9.4 358.055 8.96 359.682 8.96C361.175 8.96 362.522 9.30667 363.722 10C364.948 10.6933 365.922 11.6533 366.642 12.88C367.362 14.1067 367.722 15.4933 367.722 17.04V31H363.962V18.24C363.962 17.04 363.748 16.0267 363.322 15.2C362.895 14.3733 362.308 13.7333 361.562 13.28C360.842 12.8 359.988 12.56 359.002 12.56C358.042 12.56 357.175 12.8 356.402 13.28C355.655 13.7333 355.055 14.3867 354.602 15.24C354.175 16.0667 353.962 17.0667 353.962 18.24V31H350.202V18.24C350.202 17.04 349.988 16.0267 349.562 15.2C349.135 14.3733 348.548 13.7333 347.802 13.28C347.082 12.8 346.228 12.56 345.242 12.56C344.282 12.56 343.415 12.8 342.642 13.28C341.895 13.7333 341.295 14.3867 340.842 15.24C340.415 16.0667 340.202 17.0667 340.202 18.24V31H336.482ZM373.005 31V9.44H376.725V31H373.005ZM373.005 6V1.2H376.725V6H373.005Z" fill="black"/>
<path d="M406.35 27.9364C406.35 27.9364 406.131 30.3749 421.035 31.5722C435.939 32.7691 447.275 28.8441 448.539 25.8975C449.804 22.9509 445.424 11.9592 441.63 8.46021C437.836 4.9612 436.933 5.14533 432.597 3.11938C428.261 1.09342 419.138 -1.11614 411.55 4.96121C403.964 11.038 404.092 25.4502 406.35 27.9364Z" fill="#5F3E1B"/>
<path d="M408.178 27.1718C408.178 27.1718 407.243 29.3809 421.264 30.4856C435.284 31.5904 445.226 27.1718 446.416 24.4525C447.605 21.7332 444.207 12.3862 440.637 9.15718C437.069 5.92813 436.219 6.09821 432.14 4.22882C428.061 2.35942 419.479 0.319959 412.341 5.92814C405.204 11.5368 406.054 24.8775 408.178 27.1718Z" fill="#BFB8B2"/>
<path d="M409.749 26.2801C409.749 26.2801 407.455 22.1387 408.347 16.6257C409.239 11.1122 410.195 11.1762 410.959 12.2596C411.724 13.3431 411.195 17.1032 412.671 17.8043C414.146 18.5055 415.93 17.9318 417.459 20.6084C418.989 23.2851 424.024 24.1771 426.254 23.1576C428.484 22.1382 429.695 22.5205 434.157 24.4325C438.618 26.3446 441.886 22.1683 444.544 22.3296C447.203 22.4903 442.776 29.3843 430.587 29.7224C418.399 30.0605 410.071 26.9609 409.749 26.2801Z" fill="#ADA39C"/>
<path d="M438.025 19.6599C438.025 19.6599 439.746 19.9064 441.276 19.0144C442.805 18.1223 442.805 16.5255 442.104 15.7942C441.403 15.0629 441.154 16.4719 440.291 17.2334C439.428 17.9949 437.198 17.9309 437.197 18.7595C437.197 19.5876 437.644 19.6318 438.025 19.6599Z" fill="#ADA39C"/>
<path d="M413.043 8.49841C413.043 8.49841 413.935 11.857 416.357 12.6315C418.779 13.4054 417.823 11.3665 416.676 10.283C415.529 9.19957 415.847 7.86124 415.146 6.84176C414.445 5.82176 413.107 7.09663 413.043 8.49841Z" fill="#ADA39C"/>
<path d="M419.478 18.3768C419.478 18.3768 421.198 20.2249 423.365 20.3523C425.532 20.4798 426.361 18.7591 425.468 18.3768C424.576 17.9945 422.664 18.9516 421.389 17.8359C420.115 16.7202 418.758 17.7381 419.478 18.3768Z" fill="#ADA39C"/>
<path d="M418.785 5.82215C418.785 5.82215 425.025 4.41984 428.53 5.43984C432.035 6.45932 428.721 7.50117 429.932 8.38229C431.142 9.26342 432.353 7.60625 433.564 7.67023C434.775 7.73368 437.396 9.48604 439.017 11.8282C440.638 14.171 441.212 12.1908 440.702 11.1094C440.192 10.028 435.865 6.90614 434.714 6.3319C433.564 5.75818 431.907 5.37535 431.907 5.37535C431.907 5.37535 428.466 3.01753 424.387 3.39984C420.308 3.78215 418.355 3.84613 417.674 4.67472C416.995 5.50331 417.797 6.01773 418.785 5.82215Z" fill="#D1C9C3"/>
<path d="M110.412 28.9364C110.412 28.9364 110.631 31.3749 95.7265 32.5722C80.8223 33.7691 69.4868 29.8441 68.2224 26.8975C66.9579 23.9509 71.338 12.9592 75.132 9.46021C78.9259 5.9612 79.8288 6.14533 84.1648 4.11938C88.5007 2.09342 97.6235 -0.11614 105.211 5.96121C112.798 12.038 112.67 26.4502 110.412 28.9364Z" fill="#5F3E1B"/>
<path d="M108.584 28.1718C108.584 28.1718 109.519 30.3809 95.4981 31.4856C81.4776 32.5904 71.5356 28.1718 70.346 25.4525C69.1565 22.7332 72.5551 13.3862 76.1243 10.1572C79.693 6.92813 80.5429 7.09821 84.6219 5.22882C88.7008 3.35942 97.2832 1.31996 104.421 6.92814C111.558 12.5368 110.708 25.8775 108.584 28.1718Z" fill="#BFB8B2"/>
<path d="M107.013 27.2801C107.013 27.2801 109.307 23.1387 108.415 17.6257C107.523 12.1122 106.567 12.1762 105.802 13.2596C105.038 14.3431 105.566 18.1032 104.091 18.8043C102.616 19.5055 100.831 18.9318 99.3022 21.6084C97.7725 24.2851 92.738 25.1771 90.5076 24.1576C88.2773 23.1382 87.0664 23.5205 82.6051 25.4325C78.1439 27.3446 74.8753 23.1683 72.2173 23.3296C69.5589 23.4903 73.9858 30.3843 86.1743 30.7224C98.3629 31.0605 106.691 27.9609 107.013 27.2801Z" fill="#ADA39C"/>
<path d="M78.7364 20.6599C78.7364 20.6599 77.0158 20.9064 75.486 20.0144C73.9563 19.1223 73.9563 17.5255 74.6574 16.7942C75.3586 16.0629 75.6077 17.4719 76.4712 18.2334C77.3341 18.9949 79.5639 18.9309 79.5645 19.7595C79.565 20.5876 79.1177 20.6318 78.7364 20.6599Z" fill="#ADA39C"/>
<path d="M103.719 9.49841C103.719 9.49841 102.827 12.857 100.405 13.6315C97.9831 14.4054 98.9392 12.3665 100.086 11.283C101.233 10.1996 100.915 8.86124 101.616 7.84176C102.316 6.82176 103.655 8.09663 103.719 9.49841Z" fill="#ADA39C"/>
<path d="M97.2842 19.3768C97.2842 19.3768 95.5635 21.2249 93.3966 21.3523C91.2297 21.4798 90.4011 19.7591 91.2937 19.3768C92.1857 18.9945 94.0978 19.9516 95.3726 18.8359C96.6465 17.7202 98.0041 18.7381 97.2842 19.3768Z" fill="#ADA39C"/>
<path d="M97.9763 6.82215C97.9763 6.82215 91.7372 5.41984 88.2319 6.43984C84.7267 7.45932 88.0411 8.50117 86.8302 9.38229C85.6193 10.2634 84.4084 8.60625 83.1975 8.67023C81.9866 8.73368 79.3656 10.486 77.7443 12.8282C76.1235 15.171 75.5498 13.1908 76.0596 12.1094C76.5693 11.028 80.8969 7.90614 82.0475 7.3319C83.1975 6.75818 84.8547 6.37535 84.8547 6.37535C84.8547 6.37535 88.2959 4.01753 92.3749 4.39984C96.4538 4.78215 98.4065 4.84613 99.0873 5.67472C99.7672 6.50331 98.9651 7.01773 97.9763 6.82215Z" fill="#D1C9C3"/>
</svg>
