<svg width="52" height="52" viewBox="0 0 52 52" fill="none" xmlns="http://www.w3.org/2000/svg">
<path fill-rule="evenodd" clip-rule="evenodd" d="M26 39C33.1797 39 39 33.1797 39 26C39 18.8203 33.1797 13 26 13C18.8203 13 13 18.8203 13 26C13 33.1797 18.8203 39 26 39ZM26 34.6667C30.7864 34.6667 34.6667 30.7864 34.6667 26C34.6667 21.2135 30.7864 17.3333 26 17.3333C21.2135 17.3333 17.3333 21.2135 17.3333 26C17.3333 30.7864 21.2135 34.6667 26 34.6667Z" fill="white"/>
<path d="M39.0007 10.8335C37.804 10.8335 36.834 11.8036 36.834 13.0002C36.834 14.1968 37.804 15.1668 39.0007 15.1668C40.1973 15.1668 41.1673 14.1968 41.1673 13.0002C41.1673 11.8036 40.1973 10.8335 39.0007 10.8335Z" fill="white"/>
<path fill-rule="evenodd" clip-rule="evenodd" d="M3.58293 9.26463C2.16602 12.0455 2.16602 15.6858 2.16602 22.9665V29.0332C2.16602 36.3138 2.16602 39.9543 3.58293 42.735C4.82928 45.1811 6.81802 47.1699 9.26415 48.4162C12.045 49.8332 15.6853 49.8332 22.966 49.8332H29.0327C36.3133 49.8332 39.9538 49.8332 42.7345 48.4162C45.1806 47.1699 47.1694 45.1811 48.4157 42.735C49.8327 39.9543 49.8327 36.3138 49.8327 29.0332V22.9665C49.8327 15.6858 49.8327 12.0455 48.4157 9.26463C47.1694 6.81851 45.1806 4.82977 42.7345 3.58342C39.9538 2.1665 36.3133 2.1665 29.0327 2.1665H22.966C15.6853 2.1665 12.045 2.1665 9.26415 3.58342C6.81802 4.82977 4.82928 6.81851 3.58293 9.26463ZM29.0327 6.49984H22.966C19.2542 6.49984 16.7309 6.50322 14.7805 6.66255C12.8807 6.81777 11.9092 7.09912 11.2314 7.44444C9.60069 8.27536 8.27487 9.60118 7.44395 11.2319C7.09863 11.9097 6.81729 12.8812 6.66207 14.781C6.50273 16.7314 6.49935 19.2547 6.49935 22.9665V29.0332C6.49935 32.7451 6.50273 35.2682 6.66207 37.2186C6.81729 39.1186 7.09863 40.0901 7.44395 40.7678C8.27487 42.3985 9.60069 43.7243 11.2314 44.5552C11.9092 44.9005 12.8807 45.182 14.7805 45.3371C16.7309 45.4964 19.2542 45.4998 22.966 45.4998H29.0327C32.7446 45.4998 35.2677 45.4964 37.2181 45.3371C39.1181 45.182 40.0896 44.9005 40.7673 44.5552C42.398 43.7243 43.7238 42.3985 44.5547 40.7678C44.9 40.0901 45.1815 39.1186 45.3366 37.2186C45.4959 35.2682 45.4993 32.7451 45.4993 29.0332V22.9665C45.4993 19.2547 45.4959 16.7314 45.3366 14.781C45.1815 12.8812 44.9 11.9097 44.5547 11.2319C43.7238 9.60118 42.398 8.27536 40.7673 7.44444C40.0896 7.09912 39.1181 6.81777 37.2181 6.66255C35.2677 6.50322 32.7446 6.49984 29.0327 6.49984Z" fill="white"/>
</svg>
