<svg width="301" height="33" viewBox="0 0 301 33" fill="none" xmlns="http://www.w3.org/2000/svg">
<g clip-path="url(#clip0_245_228)">
<path d="M16 0.524414C9.373 0.524414 4 5.89741 4 12.5244C4 15.1339 4.8555 17.5284 6.2775 19.4894C6.303 19.5364 6.307 19.5889 6.336 19.6339L14.336 31.6339C14.707 32.1904 15.332 32.5244 16 32.5244C16.668 32.5244 17.293 32.1904 17.664 31.6339L25.664 19.6339C25.6935 19.5889 25.697 19.5364 25.7225 19.4894C27.1445 17.5284 28 15.1339 28 12.5244C28 5.89741 22.627 0.524414 16 0.524414ZM16 16.5244C13.791 16.5244 12 14.7334 12 12.5244C12 10.3154 13.791 8.52441 16 8.52441C18.209 8.52441 20 10.3154 20 12.5244C20 14.7334 18.209 16.5244 16 16.5244Z" fill="#EA0000"/>
</g>
<path d="M49.88 25.0244V10.1244H54.88C55.8267 10.1244 56.66 10.3111 57.38 10.6844C58.1 11.0577 58.66 11.5844 59.06 12.2644C59.4733 12.9444 59.68 13.7311 59.68 14.6244C59.68 15.5177 59.4733 16.3044 59.06 16.9844C58.66 17.6511 58.1 18.1777 57.38 18.5644C56.6733 18.9377 55.84 19.1244 54.88 19.1244H51.18V25.0244H49.88ZM51.18 17.9244H54.92C55.6 17.9244 56.2 17.7911 56.72 17.5244C57.24 17.2444 57.6467 16.8577 57.94 16.3644C58.2333 15.8577 58.38 15.2711 58.38 14.6044C58.38 13.9377 58.2333 13.3644 57.94 12.8844C57.6467 12.3911 57.24 12.0111 56.72 11.7444C56.2 11.4644 55.6 11.3244 54.92 11.3244H51.18V17.9244ZM66.0958 25.2644C65.3758 25.2644 64.7091 25.0977 64.0958 24.7644C63.4958 24.4311 63.0158 23.9644 62.6558 23.3644C62.2958 22.7511 62.1158 22.0244 62.1158 21.1844V14.4044H63.3158V21.0844C63.3158 21.7111 63.4424 22.2511 63.6958 22.7044C63.9624 23.1444 64.3158 23.4844 64.7558 23.7244C65.2091 23.9644 65.7158 24.0844 66.2758 24.0844C66.8891 24.0844 67.4158 23.9444 67.8558 23.6644C68.3091 23.3844 68.6558 22.9977 68.8958 22.5044C69.1358 21.9977 69.2558 21.4244 69.2558 20.7844V14.4044H70.4558V25.0244H69.2558V22.8644L69.5558 22.9644C69.3158 23.6577 68.8891 24.2177 68.2758 24.6444C67.6624 25.0577 66.9358 25.2644 66.0958 25.2644ZM73.7811 25.0244V9.88441H74.9811V25.0244H73.7811ZM83.2133 25.2644C82.1999 25.2644 81.2866 25.0244 80.4733 24.5444C79.6599 24.0644 79.0133 23.4044 78.5333 22.5644C78.0666 21.7111 77.8333 20.7577 77.8333 19.7044C77.8333 18.6511 78.0666 17.7044 78.5333 16.8644C79.0133 16.0244 79.6533 15.3644 80.4533 14.8844C81.2666 14.4044 82.1866 14.1644 83.2133 14.1644C84.2266 14.1644 85.1399 14.4044 85.9533 14.8844C86.7666 15.3644 87.4066 16.0244 87.8733 16.8644C88.3399 17.6911 88.5733 18.6377 88.5733 19.7044C88.5733 20.7711 88.3333 21.7244 87.8533 22.5644C87.3733 23.4044 86.7266 24.0644 85.9133 24.5444C85.1133 25.0244 84.2133 25.2644 83.2133 25.2644ZM83.2133 24.0844C83.9733 24.0844 84.6599 23.8977 85.2733 23.5244C85.8999 23.1377 86.3933 22.6111 86.7533 21.9444C87.1133 21.2777 87.2933 20.5311 87.2933 19.7044C87.2933 18.8777 87.1133 18.1377 86.7533 17.4844C86.3933 16.8311 85.9066 16.3111 85.2933 15.9244C84.6799 15.5377 83.9866 15.3444 83.2133 15.3444C82.4399 15.3444 81.7399 15.5377 81.1133 15.9244C80.4999 16.2977 80.0133 16.8177 79.6533 17.4844C79.2933 18.1377 79.1133 18.8777 79.1133 19.7044C79.1133 20.5311 79.2933 21.2777 79.6533 21.9444C80.0266 22.6111 80.5199 23.1377 81.1333 23.5244C81.7466 23.8977 82.4399 24.0844 83.2133 24.0844ZM101.718 25.2644C100.664 25.2644 99.6977 25.0777 98.8177 24.7044C97.951 24.3177 97.1977 23.7844 96.5577 23.1044C95.9177 22.4111 95.4177 21.5977 95.0577 20.6644C94.711 19.7311 94.5377 18.7044 94.5377 17.5844C94.5377 16.4644 94.711 15.4377 95.0577 14.5044C95.4177 13.5711 95.9177 12.7577 96.5577 12.0644C97.211 11.3711 97.971 10.8377 98.8377 10.4644C99.7177 10.0777 100.678 9.88441 101.718 9.88441C102.744 9.88441 103.658 10.0644 104.458 10.4244C105.271 10.7844 105.951 11.2444 106.498 11.8044C107.058 12.3644 107.458 12.9444 107.698 13.5444L106.498 14.1044C106.098 13.1844 105.484 12.4577 104.658 11.9244C103.844 11.3777 102.864 11.1044 101.718 11.1044C100.584 11.1044 99.571 11.3777 98.6777 11.9244C97.7843 12.4711 97.0843 13.2311 96.5777 14.2044C96.0843 15.1644 95.8377 16.2911 95.8377 17.5844C95.8377 18.8644 96.0843 19.9911 96.5777 20.9644C97.0843 21.9377 97.7777 22.6911 98.6577 23.2244C99.551 23.7577 100.571 24.0244 101.718 24.0244C102.744 24.0244 103.664 23.7977 104.478 23.3444C105.304 22.8777 105.951 22.2511 106.418 21.4644C106.898 20.6644 107.138 19.7511 107.138 18.7244V18.0244L107.718 18.6444H101.718V17.4844H108.438V18.6044C108.438 19.5377 108.264 20.4111 107.918 21.2244C107.584 22.0244 107.118 22.7311 106.518 23.3444C105.918 23.9444 105.204 24.4177 104.378 24.7644C103.564 25.0977 102.678 25.2644 101.718 25.2644ZM114.36 25.2644C113.693 25.2644 113.1 25.1377 112.58 24.8844C112.06 24.6311 111.647 24.2777 111.34 23.8244C111.033 23.3711 110.88 22.8511 110.88 22.2644C110.88 21.7444 110.993 21.2577 111.22 20.8044C111.447 20.3511 111.813 19.9644 112.32 19.6444C112.827 19.3111 113.487 19.0777 114.3 18.9444L118.6 18.2244V19.3444L114.62 20.0044C113.713 20.1511 113.073 20.4244 112.7 20.8244C112.327 21.2244 112.14 21.6911 112.14 22.2244C112.14 22.7977 112.353 23.2644 112.78 23.6244C113.22 23.9844 113.773 24.1644 114.44 24.1644C115.213 24.1644 115.887 23.9911 116.46 23.6444C117.033 23.2844 117.48 22.8177 117.8 22.2444C118.12 21.6577 118.28 21.0177 118.28 20.3244V17.6844C118.28 16.9777 118.027 16.4044 117.52 15.9644C117.013 15.5244 116.353 15.3044 115.54 15.3044C114.873 15.3044 114.273 15.4711 113.74 15.8044C113.207 16.1377 112.8 16.5711 112.52 17.1044L111.44 16.5244C111.64 16.0977 111.947 15.7044 112.36 15.3444C112.773 14.9844 113.253 14.6977 113.8 14.4844C114.347 14.2711 114.927 14.1644 115.54 14.1644C116.313 14.1644 116.993 14.3177 117.58 14.6244C118.18 14.9177 118.647 15.3311 118.98 15.8644C119.313 16.3844 119.48 16.9911 119.48 17.6844V25.0244H118.28V22.8044L118.42 22.9044C118.247 23.3311 117.96 23.7244 117.56 24.0844C117.16 24.4311 116.687 24.7177 116.14 24.9444C115.607 25.1577 115.013 25.2644 114.36 25.2644ZM127.565 25.2644C126.578 25.2644 125.685 25.0244 124.885 24.5444C124.098 24.0511 123.478 23.3844 123.025 22.5444C122.572 21.7044 122.345 20.7577 122.345 19.7044C122.345 18.6511 122.572 17.7044 123.025 16.8644C123.478 16.0244 124.098 15.3644 124.885 14.8844C125.685 14.4044 126.578 14.1644 127.565 14.1644C128.538 14.1644 129.405 14.3977 130.165 14.8644C130.925 15.3177 131.498 15.9311 131.885 16.7044L131.685 17.0844V9.88441H132.885V25.0244H131.685V22.3244L131.885 22.6044C131.512 23.4311 130.938 24.0844 130.165 24.5644C129.405 25.0311 128.538 25.2644 127.565 25.2644ZM127.605 24.0644C128.378 24.0644 129.065 23.8777 129.665 23.5044C130.278 23.1177 130.765 22.5977 131.125 21.9444C131.485 21.2777 131.665 20.5311 131.665 19.7044C131.665 18.8777 131.485 18.1377 131.125 17.4844C130.765 16.8311 130.278 16.3177 129.665 15.9444C129.065 15.5577 128.378 15.3644 127.605 15.3644C126.845 15.3644 126.165 15.5577 125.565 15.9444C124.965 16.3177 124.492 16.8311 124.145 17.4844C123.798 18.1377 123.625 18.8777 123.625 19.7044C123.625 20.5311 123.798 21.2777 124.145 21.9444C124.492 22.5977 124.965 23.1177 125.565 23.5044C126.165 23.8777 126.845 24.0644 127.605 24.0644ZM139.963 25.2644C139.243 25.2644 138.576 25.0977 137.963 24.7644C137.363 24.4311 136.883 23.9644 136.523 23.3644C136.163 22.7511 135.983 22.0244 135.983 21.1844V14.4044H137.183V21.0844C137.183 21.7111 137.31 22.2511 137.563 22.7044C137.83 23.1444 138.183 23.4844 138.623 23.7244C139.076 23.9644 139.583 24.0844 140.143 24.0844C140.756 24.0844 141.283 23.9444 141.723 23.6644C142.176 23.3844 142.523 22.9977 142.763 22.5044C143.003 21.9977 143.123 21.4244 143.123 20.7844V14.4044H144.323V25.0244H143.123V22.8644L143.423 22.9644C143.183 23.6577 142.756 24.2177 142.143 24.6444C141.53 25.0577 140.803 25.2644 139.963 25.2644ZM147.648 25.0244V14.4044H148.848V16.5444L148.548 16.4644C148.788 15.7577 149.215 15.1977 149.828 14.7844C150.455 14.3711 151.182 14.1644 152.008 14.1644C152.742 14.1644 153.408 14.3311 154.008 14.6644C154.608 14.9977 155.088 15.4644 155.448 16.0644C155.808 16.6511 155.988 17.3244 155.988 18.0844V25.0244H154.788V18.4244C154.788 17.7844 154.662 17.2377 154.408 16.7844C154.155 16.3177 153.802 15.9644 153.348 15.7244C152.908 15.4711 152.402 15.3444 151.828 15.3444C151.228 15.3444 150.702 15.4844 150.248 15.7644C149.795 16.0444 149.448 16.4311 149.208 16.9244C148.968 17.4177 148.848 17.9844 148.848 18.6244V25.0244H147.648ZM164.054 29.4244C163.347 29.4244 162.694 29.3111 162.094 29.0844C161.494 28.8577 160.974 28.5511 160.534 28.1644C160.094 27.7777 159.747 27.3377 159.494 26.8444L160.574 26.2644C160.867 26.8377 161.307 27.3111 161.894 27.6844C162.494 28.0577 163.207 28.2444 164.034 28.2444C164.7 28.2444 165.32 28.1111 165.894 27.8444C166.467 27.5911 166.934 27.1911 167.294 26.6444C167.667 26.1111 167.854 25.4377 167.854 24.6244V21.9244L168.074 22.2044C167.7 23.0311 167.134 23.6844 166.374 24.1644C165.614 24.6311 164.767 24.8644 163.834 24.8644C162.847 24.8644 161.96 24.6244 161.174 24.1444C160.387 23.6644 159.767 23.0177 159.314 22.2044C158.874 21.3911 158.654 20.4911 158.654 19.5044C158.654 18.5177 158.874 17.6244 159.314 16.8244C159.767 16.0111 160.38 15.3644 161.154 14.8844C161.94 14.4044 162.834 14.1644 163.834 14.1644C164.767 14.1644 165.607 14.3977 166.354 14.8644C167.1 15.3177 167.674 15.9311 168.074 16.7044L167.854 17.0844V14.4044H169.054V24.6244C169.054 25.5444 168.84 26.3644 168.414 27.0844C167.987 27.8177 167.394 28.3911 166.634 28.8044C165.887 29.2177 165.027 29.4244 164.054 29.4244ZM163.874 23.6644C164.62 23.6644 165.287 23.4777 165.874 23.1044C166.474 22.7311 166.947 22.2311 167.294 21.6044C167.64 20.9644 167.814 20.2644 167.814 19.5044C167.814 18.7444 167.64 18.0511 167.294 17.4244C166.947 16.7977 166.474 16.2977 165.874 15.9244C165.287 15.5511 164.62 15.3644 163.874 15.3644C163.114 15.3644 162.434 15.5511 161.834 15.9244C161.234 16.2977 160.767 16.7977 160.434 17.4244C160.1 18.0511 159.934 18.7444 159.934 19.5044C159.934 20.2644 160.1 20.9644 160.434 21.6044C160.767 22.2311 161.227 22.7311 161.814 23.1044C162.414 23.4777 163.1 23.6644 163.874 23.6644ZM172.315 27.5444V26.8644C172.649 26.7577 172.895 26.5577 173.055 26.2644C173.229 25.9711 173.315 25.5577 173.315 25.0244H172.715V23.0244H174.055V24.5644C174.055 25.4044 173.902 26.0711 173.595 26.5644C173.302 27.0711 172.875 27.3977 172.315 27.5444ZM180.392 25.0244V23.7244H181.172C181.932 23.7244 182.532 23.4911 182.972 23.0244C183.425 22.5577 183.652 21.8911 183.652 21.0244V10.1244H184.952V21.0644C184.952 21.8777 184.792 22.5844 184.472 23.1844C184.165 23.7711 183.725 24.2244 183.152 24.5444C182.592 24.8644 181.932 25.0244 181.172 25.0244H180.392ZM191.509 25.2644C190.842 25.2644 190.249 25.1377 189.729 24.8844C189.209 24.6311 188.795 24.2777 188.489 23.8244C188.182 23.3711 188.029 22.8511 188.029 22.2644C188.029 21.7444 188.142 21.2577 188.369 20.8044C188.595 20.3511 188.962 19.9644 189.469 19.6444C189.975 19.3111 190.635 19.0777 191.449 18.9444L195.749 18.2244V19.3444L191.769 20.0044C190.862 20.1511 190.222 20.4244 189.849 20.8244C189.475 21.2244 189.289 21.6911 189.289 22.2244C189.289 22.7977 189.502 23.2644 189.929 23.6244C190.369 23.9844 190.922 24.1644 191.589 24.1644C192.362 24.1644 193.035 23.9911 193.609 23.6444C194.182 23.2844 194.629 22.8177 194.949 22.2444C195.269 21.6577 195.429 21.0177 195.429 20.3244V17.6844C195.429 16.9777 195.175 16.4044 194.669 15.9644C194.162 15.5244 193.502 15.3044 192.689 15.3044C192.022 15.3044 191.422 15.4711 190.889 15.8044C190.355 16.1377 189.949 16.5711 189.669 17.1044L188.589 16.5244C188.789 16.0977 189.095 15.7044 189.509 15.3444C189.922 14.9844 190.402 14.6977 190.949 14.4844C191.495 14.2711 192.075 14.1644 192.689 14.1644C193.462 14.1644 194.142 14.3177 194.729 14.6244C195.329 14.9177 195.795 15.3311 196.129 15.8644C196.462 16.3844 196.629 16.9911 196.629 17.6844V25.0244H195.429V22.8044L195.569 22.9044C195.395 23.3311 195.109 23.7244 194.709 24.0844C194.309 24.4311 193.835 24.7177 193.289 24.9444C192.755 25.1577 192.162 25.2644 191.509 25.2644ZM199.933 25.0244V9.88441H201.133V20.7044L200.513 20.6444L206.793 14.4044H208.433L204.153 18.6844L208.833 25.0244H207.333L202.893 19.0644L203.693 19.0844L200.813 22.0444L201.133 21.2244V25.0244H199.933ZM213.852 25.2644C213.186 25.2644 212.592 25.1377 212.072 24.8844C211.552 24.6311 211.139 24.2777 210.832 23.8244C210.526 23.3711 210.372 22.8511 210.372 22.2644C210.372 21.7444 210.486 21.2577 210.712 20.8044C210.939 20.3511 211.306 19.9644 211.812 19.6444C212.319 19.3111 212.979 19.0777 213.792 18.9444L218.092 18.2244V19.3444L214.112 20.0044C213.206 20.1511 212.566 20.4244 212.192 20.8244C211.819 21.2244 211.632 21.6911 211.632 22.2244C211.632 22.7977 211.846 23.2644 212.272 23.6244C212.712 23.9844 213.266 24.1644 213.932 24.1644C214.706 24.1644 215.379 23.9911 215.952 23.6444C216.526 23.2844 216.972 22.8177 217.292 22.2444C217.612 21.6577 217.772 21.0177 217.772 20.3244V17.6844C217.772 16.9777 217.519 16.4044 217.012 15.9644C216.506 15.5244 215.846 15.3044 215.032 15.3044C214.366 15.3044 213.766 15.4711 213.232 15.8044C212.699 16.1377 212.292 16.5711 212.012 17.1044L210.932 16.5244C211.132 16.0977 211.439 15.7044 211.852 15.3444C212.266 14.9844 212.746 14.6977 213.292 14.4844C213.839 14.2711 214.419 14.1644 215.032 14.1644C215.806 14.1644 216.486 14.3177 217.072 14.6244C217.672 14.9177 218.139 15.3311 218.472 15.8644C218.806 16.3844 218.972 16.9911 218.972 17.6844V25.0244H217.772V22.8044L217.912 22.9044C217.739 23.3311 217.452 23.7244 217.052 24.0844C216.652 24.4311 216.179 24.7177 215.632 24.9444C215.099 25.1577 214.506 25.2644 213.852 25.2644ZM222.277 25.0244V14.4044H223.477V16.3844L223.257 16.2044C223.484 15.6044 223.871 15.1311 224.417 14.7844C224.977 14.4377 225.637 14.2644 226.397 14.2644H227.077V15.4644H226.257C225.391 15.4644 224.711 15.7444 224.217 16.3044C223.724 16.8511 223.477 17.5911 223.477 18.5244V25.0244H222.277ZM232.915 25.1444C232.035 25.1444 231.355 24.8977 230.875 24.4044C230.395 23.8977 230.155 23.1644 230.155 22.2044V15.5444H228.155V14.4044H228.915C229.315 14.4044 229.621 14.2844 229.835 14.0444C230.048 13.8044 230.155 13.4777 230.155 13.0644V11.9244H231.355V14.4044H233.675V15.5444H231.355V22.2044C231.355 22.4977 231.395 22.7844 231.475 23.0644C231.568 23.3444 231.741 23.5711 231.995 23.7444C232.248 23.9177 232.615 24.0044 233.095 24.0044C233.201 24.0044 233.328 23.9977 233.475 23.9844C233.635 23.9711 233.761 23.9577 233.855 23.9444V25.0244C233.708 25.0644 233.541 25.0911 233.355 25.1044C233.168 25.1311 233.021 25.1444 232.915 25.1444ZM239.477 25.2644C238.811 25.2644 238.217 25.1377 237.697 24.8844C237.177 24.6311 236.764 24.2777 236.457 23.8244C236.151 23.3711 235.997 22.8511 235.997 22.2644C235.997 21.7444 236.111 21.2577 236.337 20.8044C236.564 20.3511 236.931 19.9644 237.437 19.6444C237.944 19.3111 238.604 19.0777 239.417 18.9444L243.717 18.2244V19.3444L239.737 20.0044C238.831 20.1511 238.191 20.4244 237.817 20.8244C237.444 21.2244 237.257 21.6911 237.257 22.2244C237.257 22.7977 237.471 23.2644 237.897 23.6244C238.337 23.9844 238.891 24.1644 239.557 24.1644C240.331 24.1644 241.004 23.9911 241.577 23.6444C242.151 23.2844 242.597 22.8177 242.917 22.2444C243.237 21.6577 243.397 21.0177 243.397 20.3244V17.6844C243.397 16.9777 243.144 16.4044 242.637 15.9644C242.131 15.5244 241.471 15.3044 240.657 15.3044C239.991 15.3044 239.391 15.4711 238.857 15.8044C238.324 16.1377 237.917 16.5711 237.637 17.1044L236.557 16.5244C236.757 16.0977 237.064 15.7044 237.477 15.3444C237.891 14.9844 238.371 14.6977 238.917 14.4844C239.464 14.2711 240.044 14.1644 240.657 14.1644C241.431 14.1644 242.111 14.3177 242.697 14.6244C243.297 14.9177 243.764 15.3311 244.097 15.8644C244.431 16.3844 244.597 16.9911 244.597 17.6844V25.0244H243.397V22.8044L243.537 22.9044C243.364 23.3311 243.077 23.7244 242.677 24.0844C242.277 24.4311 241.804 24.7177 241.257 24.9444C240.724 25.1577 240.131 25.2644 239.477 25.2644ZM254.043 25.0244V11.3244H249.883V10.1244H259.483V11.3244H255.343V25.0244H254.043ZM261.457 25.0244V14.4044H262.657V25.0244H261.457ZM261.457 12.3244V10.1244H262.657V12.3244H261.457ZM265.949 25.0244V14.4044H267.149V16.5444L266.929 16.2444C267.196 15.6044 267.622 15.0977 268.209 14.7244C268.809 14.3511 269.476 14.1644 270.209 14.1644C271.036 14.1644 271.789 14.4044 272.469 14.8844C273.149 15.3511 273.622 15.9777 273.889 16.7644L273.509 16.7844C273.736 15.9711 274.182 15.3311 274.849 14.8644C275.529 14.3977 276.282 14.1644 277.109 14.1644C277.816 14.1644 278.462 14.3311 279.049 14.6644C279.649 14.9977 280.129 15.4644 280.489 16.0644C280.862 16.6511 281.049 17.3244 281.049 18.0844V25.0244H279.849V18.4244C279.849 17.7844 279.716 17.2377 279.449 16.7844C279.196 16.3177 278.856 15.9644 278.429 15.7244C278.002 15.4711 277.522 15.3444 276.989 15.3444C276.416 15.3444 275.909 15.4844 275.469 15.7644C275.042 16.0444 274.702 16.4311 274.449 16.9244C274.209 17.4177 274.089 17.9844 274.089 18.6244V25.0244H272.889V18.4244C272.889 17.7844 272.762 17.2377 272.509 16.7844C272.256 16.3177 271.909 15.9644 271.469 15.7244C271.042 15.4711 270.562 15.3444 270.029 15.3444C269.456 15.3444 268.949 15.4844 268.509 15.7644C268.082 16.0444 267.749 16.4311 267.509 16.9244C267.269 17.4177 267.149 17.9844 267.149 18.6244V25.0244H265.949ZM287.893 25.2644C287.173 25.2644 286.506 25.0977 285.893 24.7644C285.293 24.4311 284.813 23.9644 284.453 23.3644C284.093 22.7511 283.913 22.0244 283.913 21.1844V14.4044H285.113V21.0844C285.113 21.7111 285.239 22.2511 285.493 22.7044C285.759 23.1444 286.113 23.4844 286.553 23.7244C287.006 23.9644 287.513 24.0844 288.073 24.0844C288.686 24.0844 289.213 23.9444 289.653 23.6644C290.106 23.3844 290.453 22.9977 290.693 22.5044C290.933 21.9977 291.053 21.4244 291.053 20.7844V14.4044H292.253V25.0244H291.053V22.8644L291.353 22.9644C291.113 23.6577 290.686 24.2177 290.073 24.6444C289.459 25.0577 288.733 25.2644 287.893 25.2644ZM295.578 25.0244V14.4044H296.778V16.3844L296.558 16.2044C296.785 15.6044 297.171 15.1311 297.718 14.7844C298.278 14.4377 298.938 14.2644 299.698 14.2644H300.378V15.4644H299.558C298.691 15.4644 298.011 15.7444 297.518 16.3044C297.025 16.8511 296.778 17.5911 296.778 18.5244V25.0244H295.578Z" fill="black"/>
<defs>
<clipPath id="clip0_245_228">
<rect width="32" height="32" fill="white" transform="translate(0 0.524414)"/>
</clipPath>
</defs>
</svg>
