<svg width="35" height="35" viewBox="0 0 35 35" fill="none" xmlns="http://www.w3.org/2000/svg">
<path d="M28.5696 6.26771C25.8056 3.37615 21.9386 1.53885 17.6233 1.44159C8.99367 1.24709 1.83896 8.08536 1.64444 16.716C1.57971 19.588 2.29384 22.2956 3.59255 24.6387L3.55426 24.5642L1.15472 32.6109L9.48638 30.6247C11.6155 31.8706 14.172 32.6329 16.9094 32.6946L16.9157 32.6948C25.5454 32.8861 32.6969 26.0467 32.8914 17.4171C32.9887 13.1039 31.3295 9.16022 28.5686 6.26874L28.5696 6.26771ZM16.9752 30.0551L16.9699 30.055C14.5321 30 12.2651 29.2758 10.3435 28.0619L10.4016 28.0958L9.93384 27.8044L4.99024 28.9835L6.40915 24.2205L6.11115 23.7226C4.90956 21.7371 4.22325 19.3352 4.28091 16.7765C4.44255 9.60495 10.388 3.92161 17.5595 4.08325C24.731 4.24488 30.4144 10.1903 30.2527 17.3618C30.0911 24.5334 24.1478 30.2168 16.9752 30.0551ZM24.3176 20.4907C23.932 20.2863 22.0337 19.3001 21.6792 19.1607C21.3237 19.0222 21.0644 18.9522 20.7949 19.3374C20.5275 19.7216 19.7592 20.5836 19.5252 20.8391C19.2922 21.0958 19.0624 21.1221 18.6767 20.9189C17.4789 20.4017 16.4549 19.7255 15.5701 18.901L15.5804 18.9107C14.758 18.1138 14.0579 17.2072 13.4987 16.2122L13.4705 16.1569C13.2522 15.7618 13.4599 15.5551 13.6588 15.365C13.8382 15.1944 14.0601 14.9175 14.2597 14.6949C14.4174 14.5101 14.5537 14.2976 14.6588 14.0686L14.6655 14.0509C14.7127 13.9604 14.7414 13.8548 14.744 13.7413C14.7471 13.6036 14.7111 13.4745 14.6462 13.3636L14.6483 13.3668C14.5539 13.1691 13.8172 11.2298 13.51 10.4404C13.2096 9.67213 12.8846 9.76893 12.6462 9.75093C12.4194 9.7353 12.1587 9.72733 11.898 9.72145C11.4826 9.7226 11.1093 9.90141 10.8484 10.1848L10.8473 10.1868C9.98621 10.9678 9.43728 12.084 9.4091 13.3339C9.40849 13.3613 9.40785 13.3896 9.40828 13.417L9.40838 13.4128C9.51133 14.9581 10.0583 16.3556 10.9222 17.5036L10.91 17.4875C12.5398 20.0264 14.7422 22.0776 17.3494 23.4847L17.4472 23.5322C18.0174 23.8058 18.7491 24.1011 19.4985 24.3567L19.6542 24.4033C20.1155 24.561 20.6487 24.6582 21.2037 24.6707C21.5222 24.6779 21.8362 24.6565 22.1401 24.6098L22.1074 24.6132C23.2365 24.4041 24.1842 23.7471 24.7738 22.8338L24.7837 22.8161C24.9658 22.4353 25.0768 21.9887 25.0875 21.5167C25.0919 21.3222 25.0793 21.1315 25.0509 20.9458L25.0536 20.9658C24.9606 20.8007 24.702 20.6981 24.3154 20.4927L24.3176 20.4907Z" fill="#631D25"/>
</svg>
