<svg width="265" height="192" viewBox="0 0 265 192" fill="none" xmlns="http://www.w3.org/2000/svg">
<g clip-path="url(#clip0_296_184)">
<path d="M70.3023 138V123H65.6703V120.12H78.1503V123H73.5903V138H70.3023ZM82.4084 138.288C81.4964 138.288 80.7044 138.136 80.0324 137.832C79.3604 137.528 78.8404 137.096 78.4724 136.536C78.1044 135.96 77.9204 135.296 77.9204 134.544C77.9204 133.824 78.0804 133.184 78.4004 132.624C78.7204 132.048 79.2164 131.568 79.8884 131.184C80.5604 130.8 81.4084 130.528 82.4324 130.368L86.7044 129.672V132.072L83.0324 132.696C82.4084 132.808 81.9444 133.008 81.6404 133.296C81.3364 133.584 81.1844 133.96 81.1844 134.424C81.1844 134.872 81.3524 135.232 81.6884 135.504C82.0404 135.76 82.4724 135.888 82.9844 135.888C83.6404 135.888 84.2164 135.752 84.7124 135.48C85.2244 135.192 85.6164 134.8 85.8884 134.304C86.1764 133.808 86.3204 133.264 86.3204 132.672V129.312C86.3204 128.752 86.0964 128.288 85.6484 127.92C85.2164 127.536 84.6404 127.344 83.9204 127.344C83.2484 127.344 82.6484 127.528 82.1204 127.896C81.6084 128.248 81.2324 128.72 80.9924 129.312L78.4244 128.064C78.6804 127.376 79.0804 126.784 79.6244 126.288C80.1844 125.776 80.8404 125.376 81.5924 125.088C82.3444 124.8 83.1604 124.656 84.0404 124.656C85.1124 124.656 86.0564 124.856 86.8724 125.256C87.6884 125.64 88.3204 126.184 88.7684 126.888C89.2324 127.576 89.4644 128.384 89.4644 129.312V138H86.4884V135.768L87.1604 135.72C86.8244 136.28 86.4244 136.752 85.9604 137.136C85.4964 137.504 84.9684 137.792 84.3764 138C83.7844 138.192 83.1284 138.288 82.4084 138.288ZM92.3703 138V119.832H95.5143V127.512L95.0823 127.056C95.3863 126.272 95.8823 125.68 96.5703 125.28C97.2743 124.864 98.0903 124.656 99.0183 124.656C99.9783 124.656 100.826 124.864 101.562 125.28C102.314 125.696 102.898 126.28 103.314 127.032C103.73 127.768 103.938 128.624 103.938 129.6V138H100.794V130.344C100.794 129.768 100.682 129.272 100.458 128.856C100.234 128.44 99.9223 128.12 99.5223 127.896C99.1383 127.656 98.6823 127.536 98.1543 127.536C97.6423 127.536 97.1863 127.656 96.7863 127.896C96.3863 128.12 96.0743 128.44 95.8503 128.856C95.6263 129.272 95.5143 129.768 95.5143 130.344V138H92.3703ZM110.557 138.288C109.645 138.288 108.853 138.136 108.181 137.832C107.509 137.528 106.989 137.096 106.621 136.536C106.253 135.96 106.069 135.296 106.069 134.544C106.069 133.824 106.229 133.184 106.549 132.624C106.869 132.048 107.365 131.568 108.037 131.184C108.709 130.8 109.557 130.528 110.581 130.368L114.853 129.672V132.072L111.181 132.696C110.557 132.808 110.093 133.008 109.789 133.296C109.485 133.584 109.333 133.96 109.333 134.424C109.333 134.872 109.501 135.232 109.837 135.504C110.189 135.76 110.621 135.888 111.133 135.888C111.789 135.888 112.365 135.752 112.861 135.48C113.373 135.192 113.765 134.8 114.037 134.304C114.325 133.808 114.469 133.264 114.469 132.672V129.312C114.469 128.752 114.245 128.288 113.797 127.92C113.365 127.536 112.789 127.344 112.069 127.344C111.397 127.344 110.797 127.528 110.269 127.896C109.757 128.248 109.381 128.72 109.141 129.312L106.573 128.064C106.829 127.376 107.229 126.784 107.773 126.288C108.333 125.776 108.989 125.376 109.741 125.088C110.493 124.8 111.309 124.656 112.189 124.656C113.261 124.656 114.205 124.856 115.021 125.256C115.837 125.64 116.469 126.184 116.917 126.888C117.381 127.576 117.613 128.384 117.613 129.312V138H114.637V135.768L115.309 135.72C114.973 136.28 114.573 136.752 114.109 137.136C113.645 137.504 113.117 137.792 112.525 138C111.933 138.192 111.277 138.288 110.557 138.288ZM120.519 138V124.944H123.471V127.512L123.231 127.056C123.535 126.272 124.031 125.68 124.719 125.28C125.423 124.864 126.239 124.656 127.167 124.656C128.127 124.656 128.975 124.864 129.711 125.28C130.463 125.696 131.047 126.28 131.463 127.032C131.879 127.768 132.087 128.624 132.087 129.6V138H128.943V130.344C128.943 129.768 128.831 129.272 128.607 128.856C128.383 128.44 128.071 128.12 127.671 127.896C127.287 127.656 126.831 127.536 126.303 127.536C125.791 127.536 125.335 127.656 124.935 127.896C124.535 128.12 124.223 128.44 123.999 128.856C123.775 129.272 123.663 129.768 123.663 130.344V138H120.519ZM139.275 138V120.12H142.539V135.12H150.195V138H139.275ZM156.002 138.288C155.09 138.288 154.298 138.136 153.626 137.832C152.954 137.528 152.434 137.096 152.066 136.536C151.698 135.96 151.514 135.296 151.514 134.544C151.514 133.824 151.674 133.184 151.994 132.624C152.314 132.048 152.81 131.568 153.482 131.184C154.154 130.8 155.002 130.528 156.026 130.368L160.298 129.672V132.072L156.626 132.696C156.002 132.808 155.538 133.008 155.234 133.296C154.93 133.584 154.778 133.96 154.778 134.424C154.778 134.872 154.946 135.232 155.282 135.504C155.634 135.76 156.066 135.888 156.578 135.888C157.234 135.888 157.81 135.752 158.306 135.48C158.818 135.192 159.21 134.8 159.482 134.304C159.77 133.808 159.914 133.264 159.914 132.672V129.312C159.914 128.752 159.69 128.288 159.242 127.92C158.81 127.536 158.234 127.344 157.514 127.344C156.842 127.344 156.242 127.528 155.714 127.896C155.202 128.248 154.826 128.72 154.586 129.312L152.018 128.064C152.274 127.376 152.674 126.784 153.218 126.288C153.778 125.776 154.434 125.376 155.186 125.088C155.938 124.8 156.754 124.656 157.634 124.656C158.706 124.656 159.65 124.856 160.466 125.256C161.282 125.64 161.914 126.184 162.362 126.888C162.826 127.576 163.058 128.384 163.058 129.312V138H160.082V135.768L160.754 135.72C160.418 136.28 160.018 136.752 159.554 137.136C159.09 137.504 158.562 137.792 157.97 138C157.378 138.192 156.722 138.288 156.002 138.288ZM165.964 138V124.944H168.916V127.968L168.58 127.464C168.82 126.52 169.3 125.816 170.02 125.352C170.74 124.888 171.588 124.656 172.564 124.656C173.636 124.656 174.58 124.936 175.396 125.496C176.212 126.056 176.74 126.792 176.98 127.704L176.092 127.776C176.492 126.736 177.092 125.96 177.892 125.448C178.692 124.92 179.612 124.656 180.652 124.656C181.58 124.656 182.404 124.864 183.124 125.28C183.86 125.696 184.436 126.28 184.852 127.032C185.268 127.768 185.476 128.624 185.476 129.6V138H182.332V130.344C182.332 129.768 182.228 129.272 182.02 128.856C181.812 128.44 181.524 128.12 181.156 127.896C180.788 127.656 180.34 127.536 179.812 127.536C179.316 127.536 178.876 127.656 178.492 127.896C178.108 128.12 177.812 128.44 177.604 128.856C177.396 129.272 177.292 129.768 177.292 130.344V138H174.148V130.344C174.148 129.768 174.044 129.272 173.836 128.856C173.628 128.44 173.332 128.12 172.948 127.896C172.58 127.656 172.14 127.536 171.628 127.536C171.132 127.536 170.692 127.656 170.308 127.896C169.924 128.12 169.628 128.44 169.42 128.856C169.212 129.272 169.108 129.768 169.108 130.344V138H165.964ZM192.096 138.288C191.184 138.288 190.392 138.136 189.72 137.832C189.048 137.528 188.528 137.096 188.16 136.536C187.792 135.96 187.608 135.296 187.608 134.544C187.608 133.824 187.768 133.184 188.088 132.624C188.408 132.048 188.904 131.568 189.576 131.184C190.248 130.8 191.096 130.528 192.12 130.368L196.392 129.672V132.072L192.72 132.696C192.096 132.808 191.632 133.008 191.328 133.296C191.024 133.584 190.872 133.96 190.872 134.424C190.872 134.872 191.04 135.232 191.376 135.504C191.728 135.76 192.16 135.888 192.672 135.888C193.328 135.888 193.904 135.752 194.4 135.48C194.912 135.192 195.304 134.8 195.576 134.304C195.864 133.808 196.008 133.264 196.008 132.672V129.312C196.008 128.752 195.784 128.288 195.336 127.92C194.904 127.536 194.328 127.344 193.608 127.344C192.936 127.344 192.336 127.528 191.808 127.896C191.296 128.248 190.92 128.72 190.68 129.312L188.112 128.064C188.368 127.376 188.768 126.784 189.312 126.288C189.872 125.776 190.528 125.376 191.28 125.088C192.032 124.8 192.848 124.656 193.728 124.656C194.8 124.656 195.744 124.856 196.56 125.256C197.376 125.64 198.008 126.184 198.456 126.888C198.92 127.576 199.152 128.384 199.152 129.312V138H196.176V135.768L196.848 135.72C196.512 136.28 196.112 136.752 195.648 137.136C195.184 137.504 194.656 137.792 194.064 138C193.472 138.192 192.816 138.288 192.096 138.288Z" fill="#631D25"/>
<g filter="url(#filter0_d_296_184)">
<rect x="90.5" width="84" height="84" rx="42" fill="white"/>
<path d="M132.5 29.5V42H145M155.009 23.4279L147.349 17M117.66 17L110 23.4279M132.5 62C121.454 62 112.5 53.0457 112.5 42C112.5 30.9543 121.454 22 132.5 22C143.546 22 152.5 30.9543 152.5 42C152.5 53.0457 143.546 62 132.5 62Z" stroke="#631D25" stroke-width="3" stroke-linecap="round" stroke-linejoin="round"/>
</g>
<path d="M36.7791 167V155.825H41.3841C41.9941 155.825 42.5241 155.945 42.9741 156.185C43.4341 156.425 43.7891 156.755 44.0391 157.175C44.2991 157.595 44.4291 158.08 44.4291 158.63C44.4291 159.21 44.2791 159.725 43.9791 160.175C43.6791 160.625 43.2591 160.95 42.7191 161.15V160.895C43.1591 161.035 43.5391 161.25 43.8591 161.54C44.1891 161.82 44.4391 162.155 44.6091 162.545C44.7891 162.935 44.8791 163.355 44.8791 163.805C44.8791 164.775 44.5691 165.55 43.9491 166.13C43.3391 166.71 42.4841 167 41.3841 167H36.7791ZM37.7541 166.1H41.3241C42.1141 166.1 42.7391 165.895 43.1991 165.485C43.6691 165.075 43.9041 164.52 43.9041 163.82C43.9041 163.13 43.6741 162.58 43.2141 162.17C42.7641 161.75 42.1591 161.54 41.3991 161.54H37.7541V166.1ZM37.7541 160.655H41.2941C41.9441 160.655 42.4641 160.47 42.8541 160.1C43.2541 159.73 43.4541 159.245 43.4541 158.645C43.4541 158.045 43.2591 157.575 42.8691 157.235C42.4891 156.895 41.9641 156.725 41.2941 156.725H37.7541V160.655ZM49.3092 167.18C48.8092 167.18 48.3642 167.085 47.9742 166.895C47.5842 166.705 47.2742 166.44 47.0442 166.1C46.8142 165.76 46.6992 165.37 46.6992 164.93C46.6992 164.54 46.7842 164.175 46.9542 163.835C47.1242 163.495 47.3992 163.205 47.7792 162.965C48.1592 162.715 48.6542 162.54 49.2642 162.44L52.4892 161.9V162.74L49.5042 163.235C48.8242 163.345 48.3442 163.55 48.0642 163.85C47.7842 164.15 47.6442 164.5 47.6442 164.9C47.6442 165.33 47.8042 165.68 48.1242 165.95C48.4542 166.22 48.8692 166.355 49.3692 166.355C49.9492 166.355 50.4542 166.225 50.8842 165.965C51.3142 165.695 51.6492 165.345 51.8892 164.915C52.1292 164.475 52.2492 163.995 52.2492 163.475V161.495C52.2492 160.965 52.0592 160.535 51.6792 160.205C51.2992 159.875 50.8042 159.71 50.1942 159.71C49.6942 159.71 49.2442 159.835 48.8442 160.085C48.4442 160.335 48.1392 160.66 47.9292 161.06L47.1192 160.625C47.2692 160.305 47.4992 160.01 47.8092 159.74C48.1192 159.47 48.4792 159.255 48.8892 159.095C49.2992 158.935 49.7342 158.855 50.1942 158.855C50.7742 158.855 51.2842 158.97 51.7242 159.2C52.1742 159.42 52.5242 159.73 52.7742 160.13C53.0242 160.52 53.1492 160.975 53.1492 161.495V167H52.2492V165.335L52.3542 165.41C52.2242 165.73 52.0092 166.025 51.7092 166.295C51.4092 166.555 51.0542 166.77 50.6442 166.94C50.2442 167.1 49.7992 167.18 49.3092 167.18ZM55.6278 167V155.645H56.5278V163.76L56.0628 163.715L60.7728 159.035H62.0028L58.7928 162.245L62.3028 167H61.1778L57.8478 162.53L58.4478 162.545L56.2878 164.765L56.5278 164.15V167H55.6278ZM66.472 167.18C65.732 167.18 65.082 166.995 64.522 166.625C63.962 166.255 63.552 165.75 63.292 165.11L64.072 164.75C64.322 165.24 64.657 165.63 65.077 165.92C65.497 166.2 65.962 166.34 66.472 166.34C66.992 166.34 67.427 166.215 67.777 165.965C68.137 165.705 68.317 165.365 68.317 164.945C68.317 164.685 68.247 164.465 68.107 164.285C67.977 164.105 67.807 163.96 67.597 163.85C67.387 163.73 67.162 163.64 66.922 163.58L65.692 163.235C65.002 163.045 64.492 162.765 64.162 162.395C63.842 162.025 63.682 161.59 63.682 161.09C63.682 160.64 63.797 160.25 64.027 159.92C64.257 159.58 64.567 159.32 64.957 159.14C65.347 158.95 65.777 158.855 66.247 158.855C66.907 158.855 67.507 159.025 68.047 159.365C68.587 159.705 68.967 160.165 69.187 160.745L68.377 161.12C68.167 160.67 67.872 160.32 67.492 160.07C67.112 159.81 66.692 159.68 66.232 159.68C65.752 159.68 65.362 159.81 65.062 160.07C64.762 160.32 64.612 160.64 64.612 161.03C64.612 161.28 64.672 161.49 64.792 161.66C64.912 161.82 65.067 161.955 65.257 162.065C65.457 162.165 65.662 162.245 65.872 162.305L67.207 162.695C67.857 162.875 68.357 163.16 68.707 163.55C69.067 163.94 69.247 164.4 69.247 164.93C69.247 165.36 69.127 165.745 68.887 166.085C68.647 166.425 68.317 166.695 67.897 166.895C67.477 167.085 67.002 167.18 66.472 167.18ZM75.1092 167.18C74.3492 167.18 73.6642 167 73.0542 166.64C72.4442 166.28 71.9592 165.785 71.5992 165.155C71.2492 164.515 71.0742 163.8 71.0742 163.01C71.0742 162.22 71.2492 161.51 71.5992 160.88C71.9592 160.25 72.4392 159.755 73.0392 159.395C73.6492 159.035 74.3392 158.855 75.1092 158.855C75.8692 158.855 76.5542 159.035 77.1642 159.395C77.7742 159.755 78.2542 160.25 78.6042 160.88C78.9542 161.5 79.1292 162.21 79.1292 163.01C79.1292 163.81 78.9492 164.525 78.5892 165.155C78.2292 165.785 77.7442 166.28 77.1342 166.64C76.5342 167 75.8592 167.18 75.1092 167.18ZM75.1092 166.295C75.6792 166.295 76.1942 166.155 76.6542 165.875C77.1242 165.585 77.4942 165.19 77.7642 164.69C78.0342 164.19 78.1692 163.63 78.1692 163.01C78.1692 162.39 78.0342 161.835 77.7642 161.345C77.4942 160.855 77.1292 160.465 76.6692 160.175C76.2092 159.885 75.6892 159.74 75.1092 159.74C74.5292 159.74 74.0042 159.885 73.5342 160.175C73.0742 160.455 72.7092 160.845 72.4392 161.345C72.1692 161.835 72.0342 162.39 72.0342 163.01C72.0342 163.63 72.1692 164.19 72.4392 164.69C72.7192 165.19 73.0892 165.585 73.5492 165.875C74.0092 166.155 74.5292 166.295 75.1092 166.295ZM83.9325 167V155.825H87.6825C88.3925 155.825 89.0175 155.965 89.5575 156.245C90.0975 156.525 90.5175 156.92 90.8175 157.43C91.1275 157.94 91.2825 158.53 91.2825 159.2C91.2825 159.87 91.1275 160.46 90.8175 160.97C90.5175 161.47 90.0975 161.865 89.5575 162.155C89.0275 162.435 88.4025 162.575 87.6825 162.575H84.9075V167H83.9325ZM84.9075 161.675H87.7125C88.2225 161.675 88.6725 161.575 89.0625 161.375C89.4525 161.165 89.7575 160.875 89.9775 160.505C90.1975 160.125 90.3075 159.685 90.3075 159.185C90.3075 158.685 90.1975 158.255 89.9775 157.895C89.7575 157.525 89.4525 157.24 89.0625 157.04C88.6725 156.83 88.2225 156.725 87.7125 156.725H84.9075V161.675ZM95.027 167.18C94.527 167.18 94.082 167.085 93.692 166.895C93.302 166.705 92.992 166.44 92.762 166.1C92.532 165.76 92.417 165.37 92.417 164.93C92.417 164.54 92.502 164.175 92.672 163.835C92.842 163.495 93.117 163.205 93.497 162.965C93.877 162.715 94.372 162.54 94.982 162.44L98.207 161.9V162.74L95.222 163.235C94.542 163.345 94.062 163.55 93.782 163.85C93.502 164.15 93.362 164.5 93.362 164.9C93.362 165.33 93.522 165.68 93.842 165.95C94.172 166.22 94.587 166.355 95.087 166.355C95.667 166.355 96.172 166.225 96.602 165.965C97.032 165.695 97.367 165.345 97.607 164.915C97.847 164.475 97.967 163.995 97.967 163.475V161.495C97.967 160.965 97.777 160.535 97.397 160.205C97.017 159.875 96.522 159.71 95.912 159.71C95.412 159.71 94.962 159.835 94.562 160.085C94.162 160.335 93.857 160.66 93.647 161.06L92.837 160.625C92.987 160.305 93.217 160.01 93.527 159.74C93.837 159.47 94.197 159.255 94.607 159.095C95.017 158.935 95.452 158.855 95.912 158.855C96.492 158.855 97.002 158.97 97.442 159.2C97.892 159.42 98.242 159.73 98.492 160.13C98.742 160.52 98.867 160.975 98.867 161.495V167H97.967V165.335L98.072 165.41C97.942 165.73 97.727 166.025 97.427 166.295C97.127 166.555 96.772 166.77 96.362 166.94C95.962 167.1 95.517 167.18 95.027 167.18ZM104.094 167.09C103.434 167.09 102.924 166.905 102.564 166.535C102.204 166.155 102.024 165.605 102.024 164.885V159.89H100.524V159.035H101.094C101.394 159.035 101.624 158.945 101.784 158.765C101.944 158.585 102.024 158.34 102.024 158.03V157.175H102.924V159.035H104.664V159.89H102.924V164.885C102.924 165.105 102.954 165.32 103.014 165.53C103.084 165.74 103.214 165.91 103.404 166.04C103.594 166.17 103.869 166.235 104.229 166.235C104.309 166.235 104.404 166.23 104.514 166.22C104.634 166.21 104.729 166.2 104.799 166.19V167C104.689 167.03 104.564 167.05 104.424 167.06C104.284 167.08 104.174 167.09 104.094 167.09ZM106.956 167V159.035H107.856V167H106.956ZM106.956 157.475V155.825H107.856V157.475H106.956ZM110.325 167V155.645H111.225V160.64L111 160.58C111.18 160.05 111.5 159.63 111.96 159.32C112.43 159.01 112.975 158.855 113.595 158.855C114.145 158.855 114.645 158.98 115.095 159.23C115.545 159.48 115.905 159.83 116.175 160.28C116.445 160.72 116.58 161.225 116.58 161.795V167H115.68V162.05C115.68 161.57 115.58 161.16 115.38 160.82C115.19 160.47 114.925 160.205 114.585 160.025C114.255 159.835 113.88 159.74 113.46 159.74C113.01 159.74 112.615 159.845 112.275 160.055C111.945 160.265 111.685 160.555 111.495 160.925C111.315 161.295 111.225 161.72 111.225 162.2V167H110.325ZM121.55 167V155.825H125.165C126.265 155.825 127.215 156.055 128.015 156.515C128.825 156.965 129.45 157.61 129.89 158.45C130.33 159.28 130.55 160.265 130.55 161.405C130.55 162.535 130.33 163.52 129.89 164.36C129.45 165.2 128.825 165.85 128.015 166.31C127.215 166.77 126.265 167 125.165 167H121.55ZM122.525 166.1H125.15C126.04 166.1 126.81 165.905 127.46 165.515C128.12 165.125 128.63 164.58 128.99 163.88C129.36 163.17 129.545 162.345 129.545 161.405C129.545 160.455 129.36 159.63 128.99 158.93C128.63 158.23 128.12 157.69 127.46 157.31C126.8 156.92 126.03 156.725 125.15 156.725H122.525V166.1ZM134.592 167.18C134.092 167.18 133.647 167.085 133.257 166.895C132.867 166.705 132.557 166.44 132.327 166.1C132.097 165.76 131.982 165.37 131.982 164.93C131.982 164.54 132.067 164.175 132.237 163.835C132.407 163.495 132.682 163.205 133.062 162.965C133.442 162.715 133.937 162.54 134.547 162.44L137.772 161.9V162.74L134.787 163.235C134.107 163.345 133.627 163.55 133.347 163.85C133.067 164.15 132.927 164.5 132.927 164.9C132.927 165.33 133.087 165.68 133.407 165.95C133.737 166.22 134.152 166.355 134.652 166.355C135.232 166.355 135.737 166.225 136.167 165.965C136.597 165.695 136.932 165.345 137.172 164.915C137.412 164.475 137.532 163.995 137.532 163.475V161.495C137.532 160.965 137.342 160.535 136.962 160.205C136.582 159.875 136.087 159.71 135.477 159.71C134.977 159.71 134.527 159.835 134.127 160.085C133.727 160.335 133.422 160.66 133.212 161.06L132.402 160.625C132.552 160.305 132.782 160.01 133.092 159.74C133.402 159.47 133.762 159.255 134.172 159.095C134.582 158.935 135.017 158.855 135.477 158.855C136.057 158.855 136.567 158.97 137.007 159.2C137.457 159.42 137.807 159.73 138.057 160.13C138.307 160.52 138.432 160.975 138.432 161.495V167H137.532V165.335L137.637 165.41C137.507 165.73 137.292 166.025 136.992 166.295C136.692 166.555 136.337 166.77 135.927 166.94C135.527 167.1 135.082 167.18 134.592 167.18ZM140.911 170V159.035H141.811V161.045L141.661 160.76C141.961 160.18 142.391 159.72 142.951 159.38C143.521 159.03 144.171 158.855 144.901 158.855C145.651 158.855 146.321 159.035 146.911 159.395C147.501 159.755 147.966 160.25 148.306 160.88C148.646 161.51 148.816 162.225 148.816 163.025C148.816 163.805 148.646 164.51 148.306 165.14C147.966 165.77 147.501 166.27 146.911 166.64C146.321 167 145.651 167.18 144.901 167.18C144.171 167.18 143.516 167.005 142.936 166.655C142.366 166.295 141.941 165.805 141.661 165.185L141.811 164.975V170H140.911ZM144.871 166.28C145.441 166.28 145.951 166.14 146.401 165.86C146.851 165.57 147.206 165.18 147.466 164.69C147.726 164.19 147.856 163.63 147.856 163.01C147.856 162.39 147.726 161.835 147.466 161.345C147.206 160.855 146.851 160.47 146.401 160.19C145.951 159.9 145.441 159.755 144.871 159.755C144.301 159.755 143.786 159.9 143.326 160.19C142.866 160.47 142.501 160.855 142.231 161.345C141.961 161.835 141.826 162.39 141.826 163.01C141.826 163.63 141.961 164.19 142.231 164.69C142.501 165.18 142.861 165.57 143.311 165.86C143.771 166.14 144.291 166.28 144.871 166.28ZM153.254 167.18C152.754 167.18 152.309 167.085 151.919 166.895C151.529 166.705 151.219 166.44 150.989 166.1C150.759 165.76 150.644 165.37 150.644 164.93C150.644 164.54 150.729 164.175 150.899 163.835C151.069 163.495 151.344 163.205 151.724 162.965C152.104 162.715 152.599 162.54 153.209 162.44L156.434 161.9V162.74L153.449 163.235C152.769 163.345 152.289 163.55 152.009 163.85C151.729 164.15 151.589 164.5 151.589 164.9C151.589 165.33 151.749 165.68 152.069 165.95C152.399 166.22 152.814 166.355 153.314 166.355C153.894 166.355 154.399 166.225 154.829 165.965C155.259 165.695 155.594 165.345 155.834 164.915C156.074 164.475 156.194 163.995 156.194 163.475V161.495C156.194 160.965 156.004 160.535 155.624 160.205C155.244 159.875 154.749 159.71 154.139 159.71C153.639 159.71 153.189 159.835 152.789 160.085C152.389 160.335 152.084 160.66 151.874 161.06L151.064 160.625C151.214 160.305 151.444 160.01 151.754 159.74C152.064 159.47 152.424 159.255 152.834 159.095C153.244 158.935 153.679 158.855 154.139 158.855C154.719 158.855 155.229 158.97 155.669 159.2C156.119 159.42 156.469 159.73 156.719 160.13C156.969 160.52 157.094 160.975 157.094 161.495V167H156.194V165.335L156.299 165.41C156.169 165.73 155.954 166.025 155.654 166.295C155.354 166.555 154.999 166.77 154.589 166.94C154.189 167.1 153.744 167.18 153.254 167.18ZM162.322 167.09C161.662 167.09 161.152 166.905 160.792 166.535C160.432 166.155 160.252 165.605 160.252 164.885V159.89H158.752V159.035H159.322C159.622 159.035 159.852 158.945 160.012 158.765C160.172 158.585 160.252 158.34 160.252 158.03V157.175H161.152V159.035H162.892V159.89H161.152V164.885C161.152 165.105 161.182 165.32 161.242 165.53C161.312 165.74 161.442 165.91 161.632 166.04C161.822 166.17 162.097 166.235 162.457 166.235C162.537 166.235 162.632 166.23 162.742 166.22C162.862 166.21 162.957 166.2 163.027 166.19V167C162.917 167.03 162.792 167.05 162.652 167.06C162.512 167.08 162.402 167.09 162.322 167.09ZM167.824 167V155.825H172.429C173.039 155.825 173.569 155.945 174.019 156.185C174.479 156.425 174.834 156.755 175.084 157.175C175.344 157.595 175.474 158.08 175.474 158.63C175.474 159.21 175.324 159.725 175.024 160.175C174.724 160.625 174.304 160.95 173.764 161.15V160.895C174.204 161.035 174.584 161.25 174.904 161.54C175.234 161.82 175.484 162.155 175.654 162.545C175.834 162.935 175.924 163.355 175.924 163.805C175.924 164.775 175.614 165.55 174.994 166.13C174.384 166.71 173.529 167 172.429 167H167.824ZM168.799 166.1H172.369C173.159 166.1 173.784 165.895 174.244 165.485C174.714 165.075 174.949 164.52 174.949 163.82C174.949 163.13 174.719 162.58 174.259 162.17C173.809 161.75 173.204 161.54 172.444 161.54H168.799V166.1ZM168.799 160.655H172.339C172.989 160.655 173.509 160.47 173.899 160.1C174.299 159.73 174.499 159.245 174.499 158.645C174.499 158.045 174.304 157.575 173.914 157.235C173.534 156.895 173.009 156.725 172.339 156.725H168.799V160.655ZM181.719 167.18C180.969 167.18 180.294 167 179.694 166.64C179.094 166.27 178.619 165.77 178.269 165.14C177.919 164.5 177.744 163.785 177.744 162.995C177.744 162.205 177.914 161.5 178.254 160.88C178.594 160.25 179.054 159.755 179.634 159.395C180.214 159.035 180.864 158.855 181.584 158.855C182.134 158.855 182.629 158.955 183.069 159.155C183.519 159.355 183.904 159.635 184.224 159.995C184.554 160.345 184.804 160.75 184.974 161.21C185.154 161.66 185.244 162.135 185.244 162.635C185.244 162.735 185.239 162.84 185.229 162.95C185.219 163.06 185.204 163.175 185.184 163.295H178.269V162.47H184.674L184.269 162.785C184.329 162.205 184.244 161.685 184.014 161.225C183.784 160.755 183.454 160.385 183.024 160.115C182.604 159.835 182.124 159.695 181.584 159.695C181.044 159.695 180.549 159.84 180.099 160.13C179.649 160.41 179.294 160.8 179.034 161.3C178.774 161.79 178.654 162.36 178.674 163.01C178.654 163.66 178.779 164.235 179.049 164.735C179.319 165.235 179.689 165.63 180.159 165.92C180.629 166.2 181.149 166.34 181.719 166.34C182.299 166.34 182.804 166.205 183.234 165.935C183.664 165.655 184.014 165.285 184.284 164.825L185.049 165.23C184.869 165.6 184.614 165.935 184.284 166.235C183.954 166.525 183.569 166.755 183.129 166.925C182.699 167.095 182.229 167.18 181.719 167.18ZM187.391 167V159.035H188.291V160.52L188.126 160.385C188.296 159.935 188.586 159.58 188.996 159.32C189.416 159.06 189.911 158.93 190.481 158.93H190.991V159.83H190.376C189.726 159.83 189.216 160.04 188.846 160.46C188.476 160.87 188.291 161.425 188.291 162.125V167H187.391ZM195.369 167.09C194.709 167.09 194.199 166.905 193.839 166.535C193.479 166.155 193.299 165.605 193.299 164.885V159.89H191.799V159.035H192.369C192.669 159.035 192.899 158.945 193.059 158.765C193.219 158.585 193.299 158.34 193.299 158.03V157.175H194.199V159.035H195.939V159.89H194.199V164.885C194.199 165.105 194.229 165.32 194.289 165.53C194.359 165.74 194.489 165.91 194.679 166.04C194.869 166.17 195.144 166.235 195.504 166.235C195.584 166.235 195.679 166.23 195.789 166.22C195.909 166.21 196.004 166.2 196.074 166.19V167C195.964 167.03 195.839 167.05 195.699 167.06C195.559 167.08 195.449 167.09 195.369 167.09ZM200.291 167.18C199.791 167.18 199.346 167.085 198.956 166.895C198.566 166.705 198.256 166.44 198.026 166.1C197.796 165.76 197.681 165.37 197.681 164.93C197.681 164.54 197.766 164.175 197.936 163.835C198.106 163.495 198.381 163.205 198.761 162.965C199.141 162.715 199.636 162.54 200.246 162.44L203.471 161.9V162.74L200.486 163.235C199.806 163.345 199.326 163.55 199.046 163.85C198.766 164.15 198.626 164.5 198.626 164.9C198.626 165.33 198.786 165.68 199.106 165.95C199.436 166.22 199.851 166.355 200.351 166.355C200.931 166.355 201.436 166.225 201.866 165.965C202.296 165.695 202.631 165.345 202.871 164.915C203.111 164.475 203.231 163.995 203.231 163.475V161.495C203.231 160.965 203.041 160.535 202.661 160.205C202.281 159.875 201.786 159.71 201.176 159.71C200.676 159.71 200.226 159.835 199.826 160.085C199.426 160.335 199.121 160.66 198.911 161.06L198.101 160.625C198.251 160.305 198.481 160.01 198.791 159.74C199.101 159.47 199.461 159.255 199.871 159.095C200.281 158.935 200.716 158.855 201.176 158.855C201.756 158.855 202.266 158.97 202.706 159.2C203.156 159.42 203.506 159.73 203.756 160.13C204.006 160.52 204.131 160.975 204.131 161.495V167H203.231V165.335L203.336 165.41C203.206 165.73 202.991 166.025 202.691 166.295C202.391 166.555 202.036 166.77 201.626 166.94C201.226 167.1 200.781 167.18 200.291 167.18ZM206.609 167V155.645H207.509V160.64L207.284 160.58C207.464 160.05 207.784 159.63 208.244 159.32C208.714 159.01 209.259 158.855 209.879 158.855C210.429 158.855 210.929 158.98 211.379 159.23C211.829 159.48 212.189 159.83 212.459 160.28C212.729 160.72 212.864 161.225 212.864 161.795V167H211.964V162.05C211.964 161.57 211.864 161.16 211.664 160.82C211.474 160.47 211.209 160.205 210.869 160.025C210.539 159.835 210.164 159.74 209.744 159.74C209.294 159.74 208.899 159.845 208.559 160.055C208.229 160.265 207.969 160.555 207.779 160.925C207.599 161.295 207.509 161.72 207.509 162.2V167H206.609ZM217.473 167.18C216.973 167.18 216.528 167.085 216.138 166.895C215.748 166.705 215.438 166.44 215.208 166.1C214.978 165.76 214.863 165.37 214.863 164.93C214.863 164.54 214.948 164.175 215.118 163.835C215.288 163.495 215.563 163.205 215.943 162.965C216.323 162.715 216.818 162.54 217.428 162.44L220.653 161.9V162.74L217.668 163.235C216.988 163.345 216.508 163.55 216.228 163.85C215.948 164.15 215.808 164.5 215.808 164.9C215.808 165.33 215.968 165.68 216.288 165.95C216.618 166.22 217.033 166.355 217.533 166.355C218.113 166.355 218.618 166.225 219.048 165.965C219.478 165.695 219.813 165.345 220.053 164.915C220.293 164.475 220.413 163.995 220.413 163.475V161.495C220.413 160.965 220.223 160.535 219.843 160.205C219.463 159.875 218.968 159.71 218.358 159.71C217.858 159.71 217.408 159.835 217.008 160.085C216.608 160.335 216.303 160.66 216.093 161.06L215.283 160.625C215.433 160.305 215.663 160.01 215.973 159.74C216.283 159.47 216.643 159.255 217.053 159.095C217.463 158.935 217.898 158.855 218.358 158.855C218.938 158.855 219.448 158.97 219.888 159.2C220.338 159.42 220.688 159.73 220.938 160.13C221.188 160.52 221.313 160.975 221.313 161.495V167H220.413V165.335L220.518 165.41C220.388 165.73 220.173 166.025 219.873 166.295C219.573 166.555 219.218 166.77 218.808 166.94C218.408 167.1 217.963 167.18 217.473 167.18ZM223.792 167V159.035H224.692V160.64L224.467 160.58C224.647 160.05 224.967 159.63 225.427 159.32C225.897 159.01 226.442 158.855 227.062 158.855C227.612 158.855 228.112 158.98 228.562 159.23C229.012 159.48 229.372 159.83 229.642 160.28C229.912 160.72 230.047 161.225 230.047 161.795V167H229.147V162.05C229.147 161.57 229.052 161.16 228.862 160.82C228.672 160.47 228.407 160.205 228.067 160.025C227.737 159.835 227.357 159.74 226.927 159.74C226.477 159.74 226.082 159.845 225.742 160.055C225.402 160.265 225.142 160.555 224.962 160.925C224.782 161.295 224.692 161.72 224.692 162.2V167H223.792ZM51.6884 186.18C50.9784 186.18 50.3384 186.045 49.7684 185.775C49.2084 185.505 48.7384 185.15 48.3584 184.71C47.9884 184.27 47.7234 183.795 47.5634 183.285L48.4334 182.97C48.7134 183.73 49.1284 184.31 49.6784 184.71C50.2384 185.11 50.9034 185.31 51.6734 185.31C52.1834 185.31 52.6284 185.225 53.0084 185.055C53.3984 184.885 53.7034 184.645 53.9234 184.335C54.1434 184.025 54.2534 183.66 54.2534 183.24C54.2534 182.66 54.0884 182.21 53.7584 181.89C53.4384 181.57 53.0184 181.34 52.4984 181.2L50.4584 180.6C49.6284 180.36 49.0134 179.975 48.6134 179.445C48.2234 178.905 48.0284 178.295 48.0284 177.615C48.0284 177.025 48.1684 176.51 48.4484 176.07C48.7384 175.62 49.1284 175.27 49.6184 175.02C50.1084 174.77 50.6634 174.645 51.2834 174.645C51.9334 174.645 52.5134 174.77 53.0234 175.02C53.5434 175.26 53.9784 175.58 54.3284 175.98C54.6884 176.37 54.9434 176.805 55.0934 177.285L54.2384 177.6C53.9884 176.91 53.6034 176.39 53.0834 176.04C52.5634 175.68 51.9684 175.5 51.2984 175.5C50.8584 175.5 50.4634 175.585 50.1134 175.755C49.7634 175.925 49.4884 176.165 49.2884 176.475C49.0884 176.785 48.9884 177.15 48.9884 177.57C48.9884 178.08 49.1334 178.515 49.4234 178.875C49.7134 179.235 50.1984 179.52 50.8784 179.73L52.7084 180.27C53.5084 180.51 54.1234 180.88 54.5534 181.38C54.9934 181.87 55.2134 182.475 55.2134 183.195C55.2134 183.785 55.0634 184.305 54.7634 184.755C54.4634 185.195 54.0434 185.545 53.5034 185.805C52.9734 186.055 52.3684 186.18 51.6884 186.18ZM59.5191 186.18C59.0191 186.18 58.5741 186.085 58.1841 185.895C57.7941 185.705 57.4841 185.44 57.2541 185.1C57.0241 184.76 56.9091 184.37 56.9091 183.93C56.9091 183.54 56.9941 183.175 57.1641 182.835C57.3341 182.495 57.6091 182.205 57.9891 181.965C58.3691 181.715 58.8641 181.54 59.4741 181.44L62.6991 180.9V181.74L59.7141 182.235C59.0341 182.345 58.5541 182.55 58.2741 182.85C57.9941 183.15 57.8541 183.5 57.8541 183.9C57.8541 184.33 58.0141 184.68 58.3341 184.95C58.6641 185.22 59.0791 185.355 59.5791 185.355C60.1591 185.355 60.6641 185.225 61.0941 184.965C61.5241 184.695 61.8591 184.345 62.0991 183.915C62.3391 183.475 62.4591 182.995 62.4591 182.475V180.495C62.4591 179.965 62.2691 179.535 61.8891 179.205C61.5091 178.875 61.0141 178.71 60.4041 178.71C59.9041 178.71 59.4541 178.835 59.0541 179.085C58.6541 179.335 58.3491 179.66 58.1391 180.06L57.3291 179.625C57.4791 179.305 57.7091 179.01 58.0191 178.74C58.3291 178.47 58.6891 178.255 59.0991 178.095C59.5091 177.935 59.9441 177.855 60.4041 177.855C60.9841 177.855 61.4941 177.97 61.9341 178.2C62.3841 178.42 62.7341 178.73 62.9841 179.13C63.2341 179.52 63.3591 179.975 63.3591 180.495V186H62.4591V184.335L62.5641 184.41C62.4341 184.73 62.2191 185.025 61.9191 185.295C61.6191 185.555 61.2641 185.77 60.8541 185.94C60.4541 186.1 60.0091 186.18 59.5191 186.18ZM65.8378 186V178.035H66.7378V179.64L66.5728 179.415C66.7728 178.935 67.0928 178.555 67.5328 178.275C67.9828 177.995 68.4828 177.855 69.0328 177.855C69.6528 177.855 70.2178 178.035 70.7278 178.395C71.2378 178.745 71.5928 179.215 71.7928 179.805L71.5078 179.82C71.6778 179.21 72.0128 178.73 72.5128 178.38C73.0228 178.03 73.5878 177.855 74.2078 177.855C74.7378 177.855 75.2228 177.98 75.6628 178.23C76.1128 178.48 76.4728 178.83 76.7428 179.28C77.0228 179.72 77.1628 180.225 77.1628 180.795V186H76.2628V181.05C76.2628 180.57 76.1628 180.16 75.9628 179.82C75.7728 179.47 75.5178 179.205 75.1978 179.025C74.8778 178.835 74.5178 178.74 74.1178 178.74C73.6878 178.74 73.3078 178.845 72.9778 179.055C72.6578 179.265 72.4028 179.555 72.2128 179.925C72.0328 180.295 71.9428 180.72 71.9428 181.2V186H71.0428V181.05C71.0428 180.57 70.9478 180.16 70.7578 179.82C70.5678 179.47 70.3078 179.205 69.9778 179.025C69.6578 178.835 69.2978 178.74 68.8978 178.74C68.4678 178.74 68.0878 178.845 67.7578 179.055C67.4378 179.265 67.1878 179.555 67.0078 179.925C66.8278 180.295 66.7378 180.72 66.7378 181.2V186H65.8378ZM79.4755 189V178.035H80.3755V180.045L80.2255 179.76C80.5255 179.18 80.9555 178.72 81.5155 178.38C82.0855 178.03 82.7355 177.855 83.4655 177.855C84.2155 177.855 84.8855 178.035 85.4755 178.395C86.0655 178.755 86.5305 179.25 86.8705 179.88C87.2105 180.51 87.3805 181.225 87.3805 182.025C87.3805 182.805 87.2105 183.51 86.8705 184.14C86.5305 184.77 86.0655 185.27 85.4755 185.64C84.8855 186 84.2155 186.18 83.4655 186.18C82.7355 186.18 82.0805 186.005 81.5005 185.655C80.9305 185.295 80.5055 184.805 80.2255 184.185L80.3755 183.975V189H79.4755ZM83.4355 185.28C84.0055 185.28 84.5155 185.14 84.9655 184.86C85.4155 184.57 85.7705 184.18 86.0305 183.69C86.2905 183.19 86.4205 182.63 86.4205 182.01C86.4205 181.39 86.2905 180.835 86.0305 180.345C85.7705 179.855 85.4155 179.47 84.9655 179.19C84.5155 178.9 84.0055 178.755 83.4355 178.755C82.8655 178.755 82.3505 178.9 81.8905 179.19C81.4305 179.47 81.0655 179.855 80.7955 180.345C80.5255 180.835 80.3905 181.39 80.3905 182.01C80.3905 182.63 80.5255 183.19 80.7955 183.69C81.0655 184.18 81.4255 184.57 81.8755 184.86C82.3355 185.14 82.8555 185.28 83.4355 185.28ZM91.8189 186.18C91.3189 186.18 90.8739 186.085 90.4839 185.895C90.0939 185.705 89.7839 185.44 89.5539 185.1C89.3239 184.76 89.2089 184.37 89.2089 183.93C89.2089 183.54 89.2939 183.175 89.4639 182.835C89.6339 182.495 89.9089 182.205 90.2889 181.965C90.6689 181.715 91.1639 181.54 91.7739 181.44L94.9989 180.9V181.74L92.0139 182.235C91.3339 182.345 90.8539 182.55 90.5739 182.85C90.2939 183.15 90.1539 183.5 90.1539 183.9C90.1539 184.33 90.3139 184.68 90.6339 184.95C90.9639 185.22 91.3789 185.355 91.8789 185.355C92.4589 185.355 92.9639 185.225 93.3939 184.965C93.8239 184.695 94.1589 184.345 94.3989 183.915C94.6389 183.475 94.7589 182.995 94.7589 182.475V180.495C94.7589 179.965 94.5689 179.535 94.1889 179.205C93.8089 178.875 93.3139 178.71 92.7039 178.71C92.2039 178.71 91.7539 178.835 91.3539 179.085C90.9539 179.335 90.6489 179.66 90.4389 180.06L89.6289 179.625C89.7789 179.305 90.0089 179.01 90.3189 178.74C90.6289 178.47 90.9889 178.255 91.3989 178.095C91.8089 177.935 92.2439 177.855 92.7039 177.855C93.2839 177.855 93.7939 177.97 94.2339 178.2C94.6839 178.42 95.0339 178.73 95.2839 179.13C95.5339 179.52 95.6589 179.975 95.6589 180.495V186H94.7589V184.335L94.8639 184.41C94.7339 184.73 94.5189 185.025 94.2189 185.295C93.9189 185.555 93.5639 185.77 93.1539 185.94C92.7539 186.1 92.3089 186.18 91.8189 186.18ZM98.1376 186V178.035H99.0376V186H98.1376ZM98.1376 176.475V174.825H99.0376V176.475H98.1376ZM107.147 186.18C106.547 186.18 105.997 186.07 105.497 185.85C104.997 185.63 104.567 185.315 104.207 184.905C103.857 184.495 103.602 184.005 103.442 183.435L104.267 183.12C104.467 183.79 104.812 184.325 105.302 184.725C105.802 185.115 106.412 185.31 107.132 185.31C107.682 185.31 108.167 185.205 108.587 184.995C109.007 184.775 109.332 184.465 109.562 184.065C109.792 183.655 109.907 183.18 109.907 182.64C109.907 182.07 109.782 181.595 109.532 181.215C109.292 180.825 108.962 180.535 108.542 180.345C108.132 180.145 107.667 180.045 107.147 180.045C107.037 180.045 106.912 180.05 106.772 180.06C106.632 180.07 106.507 180.085 106.397 180.105L106.232 179.7L109.307 175.68H103.907V174.825H110.462V175.575L107.462 179.475L107.387 179.28C108.027 179.27 108.607 179.405 109.127 179.685C109.657 179.965 110.077 180.36 110.387 180.87C110.707 181.37 110.867 181.96 110.867 182.64C110.867 183.3 110.712 183.9 110.402 184.44C110.092 184.97 109.657 185.395 109.097 185.715C108.537 186.025 107.887 186.18 107.147 186.18ZM115.676 186V174.825H120.281C120.891 174.825 121.421 174.945 121.871 175.185C122.331 175.425 122.686 175.755 122.936 176.175C123.196 176.595 123.326 177.08 123.326 177.63C123.326 178.21 123.176 178.725 122.876 179.175C122.576 179.625 122.156 179.95 121.616 180.15V179.895C122.056 180.035 122.436 180.25 122.756 180.54C123.086 180.82 123.336 181.155 123.506 181.545C123.686 181.935 123.776 182.355 123.776 182.805C123.776 183.775 123.466 184.55 122.846 185.13C122.236 185.71 121.381 186 120.281 186H115.676ZM116.651 185.1H120.221C121.011 185.1 121.636 184.895 122.096 184.485C122.566 184.075 122.801 183.52 122.801 182.82C122.801 182.13 122.571 181.58 122.111 181.17C121.661 180.75 121.056 180.54 120.296 180.54H116.651V185.1ZM116.651 179.655H120.191C120.841 179.655 121.361 179.47 121.751 179.1C122.151 178.73 122.351 178.245 122.351 177.645C122.351 177.045 122.156 176.575 121.766 176.235C121.386 175.895 120.861 175.725 120.191 175.725H116.651V179.655ZM128.746 186.18C128.206 186.18 127.706 186.055 127.246 185.805C126.796 185.555 126.436 185.205 126.166 184.755C125.896 184.295 125.761 183.75 125.761 183.12V178.035H126.661V183.045C126.661 183.515 126.756 183.92 126.946 184.26C127.146 184.59 127.411 184.845 127.741 185.025C128.081 185.205 128.461 185.295 128.881 185.295C129.341 185.295 129.736 185.19 130.066 184.98C130.406 184.77 130.666 184.48 130.846 184.11C131.026 183.73 131.116 183.3 131.116 182.82V178.035H132.016V186H131.116V184.38L131.341 184.455C131.161 184.975 130.841 185.395 130.381 185.715C129.921 186.025 129.376 186.18 128.746 186.18ZM134.51 186V174.645H135.41V186H134.51ZM140.159 186.18C139.659 186.18 139.214 186.085 138.824 185.895C138.434 185.705 138.124 185.44 137.894 185.1C137.664 184.76 137.549 184.37 137.549 183.93C137.549 183.54 137.634 183.175 137.804 182.835C137.974 182.495 138.249 182.205 138.629 181.965C139.009 181.715 139.504 181.54 140.114 181.44L143.339 180.9V181.74L140.354 182.235C139.674 182.345 139.194 182.55 138.914 182.85C138.634 183.15 138.494 183.5 138.494 183.9C138.494 184.33 138.654 184.68 138.974 184.95C139.304 185.22 139.719 185.355 140.219 185.355C140.799 185.355 141.304 185.225 141.734 184.965C142.164 184.695 142.499 184.345 142.739 183.915C142.979 183.475 143.099 182.995 143.099 182.475V180.495C143.099 179.965 142.909 179.535 142.529 179.205C142.149 178.875 141.654 178.71 141.044 178.71C140.544 178.71 140.094 178.835 139.694 179.085C139.294 179.335 138.989 179.66 138.779 180.06L137.969 179.625C138.119 179.305 138.349 179.01 138.659 178.74C138.969 178.47 139.329 178.255 139.739 178.095C140.149 177.935 140.584 177.855 141.044 177.855C141.624 177.855 142.134 177.97 142.574 178.2C143.024 178.42 143.374 178.73 143.624 179.13C143.874 179.52 143.999 179.975 143.999 180.495V186H143.099V184.335L143.204 184.41C143.074 184.73 142.859 185.025 142.559 185.295C142.259 185.555 141.904 185.77 141.494 185.94C141.094 186.1 140.649 186.18 140.159 186.18ZM146.477 186V178.035H147.377V179.64L147.152 179.58C147.332 179.05 147.652 178.63 148.112 178.32C148.582 178.01 149.127 177.855 149.747 177.855C150.297 177.855 150.797 177.98 151.247 178.23C151.697 178.48 152.057 178.83 152.327 179.28C152.597 179.72 152.732 180.225 152.732 180.795V186H151.832V181.05C151.832 180.57 151.737 180.16 151.547 179.82C151.357 179.47 151.092 179.205 150.752 179.025C150.422 178.835 150.042 178.74 149.612 178.74C149.162 178.74 148.767 178.845 148.427 179.055C148.087 179.265 147.827 179.555 147.647 179.925C147.467 180.295 147.377 180.72 147.377 181.2V186H146.477ZM157.702 186V174.825H158.677V185.1H163.702V186H157.702ZM167.8 186.18C167.3 186.18 166.855 186.085 166.465 185.895C166.075 185.705 165.765 185.44 165.535 185.1C165.305 184.76 165.19 184.37 165.19 183.93C165.19 183.54 165.275 183.175 165.445 182.835C165.615 182.495 165.89 182.205 166.27 181.965C166.65 181.715 167.145 181.54 167.755 181.44L170.98 180.9V181.74L167.995 182.235C167.315 182.345 166.835 182.55 166.555 182.85C166.275 183.15 166.135 183.5 166.135 183.9C166.135 184.33 166.295 184.68 166.615 184.95C166.945 185.22 167.36 185.355 167.86 185.355C168.44 185.355 168.945 185.225 169.375 184.965C169.805 184.695 170.14 184.345 170.38 183.915C170.62 183.475 170.74 182.995 170.74 182.475V180.495C170.74 179.965 170.55 179.535 170.17 179.205C169.79 178.875 169.295 178.71 168.685 178.71C168.185 178.71 167.735 178.835 167.335 179.085C166.935 179.335 166.63 179.66 166.42 180.06L165.61 179.625C165.76 179.305 165.99 179.01 166.3 178.74C166.61 178.47 166.97 178.255 167.38 178.095C167.79 177.935 168.225 177.855 168.685 177.855C169.265 177.855 169.775 177.97 170.215 178.2C170.665 178.42 171.015 178.73 171.265 179.13C171.515 179.52 171.64 179.975 171.64 180.495V186H170.74V184.335L170.845 184.41C170.715 184.73 170.5 185.025 170.2 185.295C169.9 185.555 169.545 185.77 169.135 185.94C168.735 186.1 168.29 186.18 167.8 186.18ZM174.119 186V178.035H175.019V179.64L174.854 179.415C175.054 178.935 175.374 178.555 175.814 178.275C176.264 177.995 176.764 177.855 177.314 177.855C177.934 177.855 178.499 178.035 179.009 178.395C179.519 178.745 179.874 179.215 180.074 179.805L179.789 179.82C179.959 179.21 180.294 178.73 180.794 178.38C181.304 178.03 181.869 177.855 182.489 177.855C183.019 177.855 183.504 177.98 183.944 178.23C184.394 178.48 184.754 178.83 185.024 179.28C185.304 179.72 185.444 180.225 185.444 180.795V186H184.544V181.05C184.544 180.57 184.444 180.16 184.244 179.82C184.054 179.47 183.799 179.205 183.479 179.025C183.159 178.835 182.799 178.74 182.399 178.74C181.969 178.74 181.589 178.845 181.259 179.055C180.939 179.265 180.684 179.555 180.494 179.925C180.314 180.295 180.224 180.72 180.224 181.2V186H179.324V181.05C179.324 180.57 179.229 180.16 179.039 179.82C178.849 179.47 178.589 179.205 178.259 179.025C177.939 178.835 177.579 178.74 177.179 178.74C176.749 178.74 176.369 178.845 176.039 179.055C175.719 179.265 175.469 179.555 175.289 179.925C175.109 180.295 175.019 180.72 175.019 181.2V186H174.119ZM190.037 186.18C189.537 186.18 189.092 186.085 188.702 185.895C188.312 185.705 188.002 185.44 187.772 185.1C187.542 184.76 187.427 184.37 187.427 183.93C187.427 183.54 187.512 183.175 187.682 182.835C187.852 182.495 188.127 182.205 188.507 181.965C188.887 181.715 189.382 181.54 189.992 181.44L193.217 180.9V181.74L190.232 182.235C189.552 182.345 189.072 182.55 188.792 182.85C188.512 183.15 188.372 183.5 188.372 183.9C188.372 184.33 188.532 184.68 188.852 184.95C189.182 185.22 189.597 185.355 190.097 185.355C190.677 185.355 191.182 185.225 191.612 184.965C192.042 184.695 192.377 184.345 192.617 183.915C192.857 183.475 192.977 182.995 192.977 182.475V180.495C192.977 179.965 192.787 179.535 192.407 179.205C192.027 178.875 191.532 178.71 190.922 178.71C190.422 178.71 189.972 178.835 189.572 179.085C189.172 179.335 188.867 179.66 188.657 180.06L187.847 179.625C187.997 179.305 188.227 179.01 188.537 178.74C188.847 178.47 189.207 178.255 189.617 178.095C190.027 177.935 190.462 177.855 190.922 177.855C191.502 177.855 192.012 177.97 192.452 178.2C192.902 178.42 193.252 178.73 193.502 179.13C193.752 179.52 193.877 179.975 193.877 180.495V186H192.977V184.335L193.082 184.41C192.952 184.73 192.737 185.025 192.437 185.295C192.137 185.555 191.782 185.77 191.372 185.94C190.972 186.1 190.527 186.18 190.037 186.18ZM196.355 186V178.035H197.255V179.64L197.03 179.58C197.21 179.05 197.53 178.63 197.99 178.32C198.46 178.01 199.005 177.855 199.625 177.855C200.175 177.855 200.675 177.98 201.125 178.23C201.575 178.48 201.935 178.83 202.205 179.28C202.475 179.72 202.61 180.225 202.61 180.795V186H201.71V181.05C201.71 180.57 201.615 180.16 201.425 179.82C201.235 179.47 200.97 179.205 200.63 179.025C200.3 178.835 199.92 178.74 199.49 178.74C199.04 178.74 198.645 178.845 198.305 179.055C197.965 179.265 197.705 179.555 197.525 179.925C197.345 180.295 197.255 180.72 197.255 181.2V186H196.355ZM204.823 189.3C204.683 189.3 204.528 189.285 204.358 189.255C204.198 189.235 204.043 189.2 203.893 189.15V188.31C204.013 188.34 204.148 188.365 204.298 188.385C204.458 188.405 204.603 188.415 204.733 188.415C205.223 188.405 205.608 188.285 205.888 188.055C206.168 187.825 206.423 187.445 206.653 186.915L207.223 185.58V186.42L203.848 178.035H204.838L207.733 185.265H207.373L210.283 178.035H211.288L207.568 187.11C207.428 187.44 207.243 187.775 207.013 188.115C206.783 188.455 206.488 188.735 206.128 188.955C205.778 189.185 205.343 189.3 204.823 189.3ZM214.778 186.18C214.278 186.18 213.833 186.085 213.443 185.895C213.053 185.705 212.743 185.44 212.513 185.1C212.283 184.76 212.168 184.37 212.168 183.93C212.168 183.54 212.253 183.175 212.423 182.835C212.593 182.495 212.868 182.205 213.248 181.965C213.628 181.715 214.123 181.54 214.733 181.44L217.958 180.9V181.74L214.973 182.235C214.293 182.345 213.813 182.55 213.533 182.85C213.253 183.15 213.113 183.5 213.113 183.9C213.113 184.33 213.273 184.68 213.593 184.95C213.923 185.22 214.338 185.355 214.838 185.355C215.418 185.355 215.923 185.225 216.353 184.965C216.783 184.695 217.118 184.345 217.358 183.915C217.598 183.475 217.718 182.995 217.718 182.475V180.495C217.718 179.965 217.528 179.535 217.148 179.205C216.768 178.875 216.273 178.71 215.663 178.71C215.163 178.71 214.713 178.835 214.313 179.085C213.913 179.335 213.608 179.66 213.398 180.06L212.588 179.625C212.738 179.305 212.968 179.01 213.278 178.74C213.588 178.47 213.948 178.255 214.358 178.095C214.768 177.935 215.203 177.855 215.663 177.855C216.243 177.855 216.753 177.97 217.193 178.2C217.643 178.42 217.993 178.73 218.243 179.13C218.493 179.52 218.618 179.975 218.618 180.495V186H217.718V184.335L217.823 184.41C217.693 184.73 217.478 185.025 217.178 185.295C216.878 185.555 216.523 185.77 216.113 185.94C215.713 186.1 215.268 186.18 214.778 186.18Z" fill="#414141"/>
</g>
<defs>
<filter id="filter0_d_296_184" x="90.5" y="-0.75" width="91.5" height="91.5" filterUnits="userSpaceOnUse" color-interpolation-filters="sRGB">
<feFlood flood-opacity="0" result="BackgroundImageFix"/>
<feColorMatrix in="SourceAlpha" type="matrix" values="0 0 0 0 0 0 0 0 0 0 0 0 0 0 0 0 0 0 127 0" result="hardAlpha"/>
<feMorphology radius="2.25" operator="erode" in="SourceAlpha" result="effect1_dropShadow_296_184"/>
<feOffset dx="3.75" dy="3"/>
<feGaussianBlur stdDeviation="3"/>
<feComposite in2="hardAlpha" operator="out"/>
<feColorMatrix type="matrix" values="0 0 0 0 0 0 0 0 0 0 0 0 0 0 0 0 0 0 0.25 0"/>
<feBlend mode="normal" in2="BackgroundImageFix" result="effect1_dropShadow_296_184"/>
<feBlend mode="normal" in="SourceGraphic" in2="effect1_dropShadow_296_184" result="shape"/>
</filter>
<clipPath id="clip0_296_184">
<rect width="264" height="192" fill="white" transform="translate(0.5)"/>
</clipPath>
</defs>
</svg>
