<svg width="265" height="192" viewBox="0 0 265 192" fill="none" xmlns="http://www.w3.org/2000/svg">
<g clip-path="url(#clip0_296_133)">
<path d="M41.2983 138V123H36.6663V120.12H49.1463V123H44.5863V138H41.2983ZM53.4045 138.288C52.4925 138.288 51.7005 138.136 51.0285 137.832C50.3565 137.528 49.8365 137.096 49.4685 136.536C49.1005 135.96 48.9165 135.296 48.9165 134.544C48.9165 133.824 49.0765 133.184 49.3965 132.624C49.7165 132.048 50.2125 131.568 50.8845 131.184C51.5565 130.8 52.4045 130.528 53.4285 130.368L57.7005 129.672V132.072L54.0285 132.696C53.4045 132.808 52.9405 133.008 52.6365 133.296C52.3325 133.584 52.1805 133.96 52.1805 134.424C52.1805 134.872 52.3485 135.232 52.6845 135.504C53.0365 135.76 53.4685 135.888 53.9805 135.888C54.6365 135.888 55.2125 135.752 55.7085 135.48C56.2205 135.192 56.6125 134.8 56.8845 134.304C57.1725 133.808 57.3165 133.264 57.3165 132.672V129.312C57.3165 128.752 57.0925 128.288 56.6445 127.92C56.2125 127.536 55.6365 127.344 54.9165 127.344C54.2445 127.344 53.6445 127.528 53.1165 127.896C52.6045 128.248 52.2285 128.72 51.9885 129.312L49.4205 128.064C49.6765 127.376 50.0765 126.784 50.6205 126.288C51.1805 125.776 51.8365 125.376 52.5885 125.088C53.3405 124.8 54.1565 124.656 55.0365 124.656C56.1085 124.656 57.0525 124.856 57.8685 125.256C58.6845 125.64 59.3165 126.184 59.7645 126.888C60.2285 127.576 60.4605 128.384 60.4605 129.312V138H57.4845V135.768L58.1565 135.72C57.8205 136.28 57.4205 136.752 56.9565 137.136C56.4925 137.504 55.9645 137.792 55.3725 138C54.7805 138.192 54.1245 138.288 53.4045 138.288ZM63.3663 138V124.944H66.3183V127.512L66.0783 127.056C66.3823 126.272 66.8783 125.68 67.5663 125.28C68.2703 124.864 69.0863 124.656 70.0143 124.656C70.9743 124.656 71.8223 124.864 72.5583 125.28C73.3103 125.696 73.8943 126.28 74.3103 127.032C74.7263 127.768 74.9343 128.624 74.9343 129.6V138H71.7903V130.344C71.7903 129.768 71.6783 129.272 71.4543 128.856C71.2303 128.44 70.9183 128.12 70.5183 127.896C70.1343 127.656 69.6783 127.536 69.1503 127.536C68.6383 127.536 68.1823 127.656 67.7823 127.896C67.3823 128.12 67.0703 128.44 66.8463 128.856C66.6223 129.272 66.5103 129.768 66.5103 130.344V138H63.3663ZM77.5929 142.8V124.944H80.5449V127.536L80.2569 126.888C80.7049 126.184 81.3129 125.64 82.0809 125.256C82.8489 124.856 83.7369 124.656 84.7449 124.656C85.9769 124.656 87.0889 124.96 88.0809 125.568C89.0729 126.176 89.8569 126.992 90.4329 128.016C91.0249 129.04 91.3209 130.192 91.3209 131.472C91.3209 132.736 91.0329 133.888 90.4569 134.928C89.8809 135.968 89.0969 136.792 88.1049 137.4C87.1129 137.992 85.9849 138.288 84.7209 138.288C83.7769 138.288 82.9049 138.104 82.1049 137.736C81.3209 137.352 80.6969 136.808 80.2329 136.104L80.7369 135.48V142.8H77.5929ZM84.3609 135.408C85.0809 135.408 85.7209 135.24 86.2809 134.904C86.8409 134.568 87.2729 134.104 87.5769 133.512C87.8969 132.92 88.0569 132.24 88.0569 131.472C88.0569 130.704 87.8969 130.032 87.5769 129.456C87.2729 128.864 86.8409 128.4 86.2809 128.064C85.7209 127.712 85.0809 127.536 84.3609 127.536C83.6729 127.536 83.0489 127.704 82.4889 128.04C81.9449 128.376 81.5129 128.848 81.1929 129.456C80.8889 130.048 80.7369 130.72 80.7369 131.472C80.7369 132.24 80.8889 132.92 81.1929 133.512C81.5129 134.104 81.9449 134.568 82.4889 134.904C83.0489 135.24 83.6729 135.408 84.3609 135.408ZM97.6779 138.288C96.7659 138.288 95.9739 138.136 95.3019 137.832C94.6299 137.528 94.1099 137.096 93.7419 136.536C93.3739 135.96 93.1899 135.296 93.1899 134.544C93.1899 133.824 93.3499 133.184 93.6699 132.624C93.9899 132.048 94.4859 131.568 95.1579 131.184C95.8299 130.8 96.6779 130.528 97.7019 130.368L101.974 129.672V132.072L98.3019 132.696C97.6779 132.808 97.2139 133.008 96.9099 133.296C96.6059 133.584 96.4539 133.96 96.4539 134.424C96.4539 134.872 96.6219 135.232 96.9579 135.504C97.3099 135.76 97.7419 135.888 98.2539 135.888C98.9099 135.888 99.4859 135.752 99.9819 135.48C100.494 135.192 100.886 134.8 101.158 134.304C101.446 133.808 101.59 133.264 101.59 132.672V129.312C101.59 128.752 101.366 128.288 100.918 127.92C100.486 127.536 99.9099 127.344 99.1899 127.344C98.5179 127.344 97.9179 127.528 97.3899 127.896C96.8779 128.248 96.5019 128.72 96.2619 129.312L93.6939 128.064C93.9499 127.376 94.3499 126.784 94.8939 126.288C95.4539 125.776 96.1099 125.376 96.8619 125.088C97.6139 124.8 98.4299 124.656 99.3099 124.656C100.382 124.656 101.326 124.856 102.142 125.256C102.958 125.64 103.59 126.184 104.038 126.888C104.502 127.576 104.734 128.384 104.734 129.312V138H101.758V135.768L102.43 135.72C102.094 136.28 101.694 136.752 101.23 137.136C100.766 137.504 100.238 137.792 99.6459 138C99.0539 138.192 98.3979 138.288 97.6779 138.288ZM112.169 138V120.12H118.841C120.057 120.12 121.129 120.344 122.057 120.792C123.001 121.224 123.737 121.864 124.265 122.712C124.793 123.544 125.057 124.56 125.057 125.76C125.057 126.944 124.785 127.96 124.241 128.808C123.713 129.64 122.985 130.28 122.057 130.728C121.129 131.176 120.057 131.4 118.841 131.4H115.433V138H112.169ZM115.433 128.52H118.889C119.481 128.52 119.993 128.408 120.425 128.184C120.857 127.944 121.193 127.616 121.433 127.2C121.673 126.784 121.793 126.304 121.793 125.76C121.793 125.2 121.673 124.72 121.433 124.32C121.193 123.904 120.857 123.584 120.425 123.36C119.993 123.12 119.481 123 118.889 123H115.433V128.52ZM133.191 138.288C131.847 138.288 130.671 137.984 129.663 137.376C128.655 136.768 127.871 135.944 127.311 134.904C126.751 133.864 126.471 132.712 126.471 131.448C126.471 130.136 126.751 128.976 127.311 127.968C127.887 126.944 128.663 126.136 129.639 125.544C130.631 124.952 131.735 124.656 132.951 124.656C133.975 124.656 134.871 124.824 135.639 125.16C136.423 125.496 137.087 125.96 137.631 126.552C138.175 127.144 138.591 127.824 138.879 128.592C139.167 129.344 139.311 130.16 139.311 131.04C139.311 131.264 139.295 131.496 139.263 131.736C139.247 131.976 139.207 132.184 139.143 132.36H129.063V129.96H137.367L135.879 131.088C136.023 130.352 135.983 129.696 135.759 129.12C135.551 128.544 135.199 128.088 134.703 127.752C134.223 127.416 133.639 127.248 132.951 127.248C132.295 127.248 131.711 127.416 131.199 127.752C130.687 128.072 130.295 128.552 130.023 129.192C129.767 129.816 129.671 130.576 129.735 131.472C129.671 132.272 129.775 132.984 130.047 133.608C130.335 134.216 130.751 134.688 131.295 135.024C131.855 135.36 132.495 135.528 133.215 135.528C133.935 135.528 134.543 135.376 135.039 135.072C135.551 134.768 135.951 134.36 136.239 133.848L138.783 135.096C138.527 135.72 138.127 136.272 137.583 136.752C137.039 137.232 136.391 137.608 135.639 137.88C134.903 138.152 134.087 138.288 133.191 138.288ZM141.694 138V124.944H144.646V127.512L144.406 127.056C144.71 126.272 145.206 125.68 145.894 125.28C146.598 124.864 147.414 124.656 148.342 124.656C149.302 124.656 150.15 124.864 150.886 125.28C151.638 125.696 152.222 126.28 152.638 127.032C153.054 127.768 153.262 128.624 153.262 129.6V138H150.118V130.344C150.118 129.768 150.006 129.272 149.782 128.856C149.558 128.44 149.246 128.12 148.846 127.896C148.462 127.656 148.006 127.536 147.478 127.536C146.966 127.536 146.51 127.656 146.11 127.896C145.71 128.12 145.398 128.44 145.174 128.856C144.95 129.272 144.838 129.768 144.838 130.344V138H141.694ZM162.257 143.28C161.281 143.28 160.377 143.12 159.545 142.8C158.713 142.48 157.993 142.032 157.385 141.456C156.793 140.896 156.361 140.232 156.089 139.464L159.017 138.36C159.209 138.968 159.585 139.456 160.145 139.824C160.721 140.208 161.425 140.4 162.257 140.4C162.897 140.4 163.457 140.28 163.937 140.04C164.433 139.8 164.817 139.448 165.089 138.984C165.361 138.536 165.497 137.992 165.497 137.352V134.376L166.097 135.096C165.649 135.88 165.049 136.472 164.297 136.872C163.545 137.272 162.689 137.472 161.729 137.472C160.513 137.472 159.425 137.192 158.465 136.632C157.505 136.072 156.753 135.304 156.209 134.328C155.665 133.352 155.393 132.256 155.393 131.04C155.393 129.808 155.665 128.712 156.209 127.752C156.753 126.792 157.497 126.04 158.441 125.496C159.385 124.936 160.457 124.656 161.657 124.656C162.633 124.656 163.489 124.864 164.225 125.28C164.977 125.68 165.601 126.264 166.097 127.032L165.665 127.824V124.944H168.641V137.352C168.641 138.488 168.361 139.504 167.801 140.4C167.257 141.296 166.505 142 165.545 142.512C164.601 143.024 163.505 143.28 162.257 143.28ZM162.113 134.568C162.785 134.568 163.369 134.424 163.865 134.136C164.377 133.832 164.777 133.416 165.065 132.888C165.353 132.36 165.497 131.752 165.497 131.064C165.497 130.392 165.345 129.792 165.041 129.264C164.753 128.72 164.353 128.296 163.841 127.992C163.345 127.688 162.769 127.536 162.113 127.536C161.457 127.536 160.865 127.688 160.337 127.992C159.809 128.296 159.393 128.72 159.089 129.264C158.801 129.792 158.657 130.392 158.657 131.064C158.657 131.736 158.801 132.336 159.089 132.864C159.393 133.392 159.801 133.808 160.313 134.112C160.841 134.416 161.441 134.568 162.113 134.568ZM175.537 138.288C174.625 138.288 173.833 138.136 173.161 137.832C172.489 137.528 171.969 137.096 171.601 136.536C171.233 135.96 171.049 135.296 171.049 134.544C171.049 133.824 171.209 133.184 171.529 132.624C171.849 132.048 172.345 131.568 173.017 131.184C173.689 130.8 174.537 130.528 175.561 130.368L179.833 129.672V132.072L176.161 132.696C175.537 132.808 175.073 133.008 174.769 133.296C174.465 133.584 174.313 133.96 174.313 134.424C174.313 134.872 174.481 135.232 174.817 135.504C175.169 135.76 175.601 135.888 176.113 135.888C176.769 135.888 177.345 135.752 177.841 135.48C178.353 135.192 178.745 134.8 179.017 134.304C179.305 133.808 179.449 133.264 179.449 132.672V129.312C179.449 128.752 179.225 128.288 178.777 127.92C178.345 127.536 177.769 127.344 177.049 127.344C176.377 127.344 175.777 127.528 175.249 127.896C174.737 128.248 174.361 128.72 174.121 129.312L171.553 128.064C171.809 127.376 172.209 126.784 172.753 126.288C173.313 125.776 173.969 125.376 174.721 125.088C175.473 124.8 176.289 124.656 177.169 124.656C178.241 124.656 179.185 124.856 180.001 125.256C180.817 125.64 181.449 126.184 181.897 126.888C182.361 127.576 182.593 128.384 182.593 129.312V138H179.617V135.768L180.289 135.72C179.953 136.28 179.553 136.752 179.089 137.136C178.625 137.504 178.097 137.792 177.505 138C176.913 138.192 176.257 138.288 175.537 138.288ZM188.787 138L184.299 124.944H187.611L190.899 134.856L189.747 134.832L193.251 124.944H196.035L199.515 134.832L198.363 134.856L201.651 124.944H204.963L200.475 138H197.667L194.115 127.656H195.171L191.571 138H188.787ZM212.644 138.288C211.3 138.288 210.124 137.984 209.116 137.376C208.108 136.768 207.324 135.944 206.764 134.904C206.204 133.864 205.924 132.712 205.924 131.448C205.924 130.136 206.204 128.976 206.764 127.968C207.34 126.944 208.116 126.136 209.092 125.544C210.084 124.952 211.188 124.656 212.404 124.656C213.428 124.656 214.324 124.824 215.092 125.16C215.876 125.496 216.54 125.96 217.084 126.552C217.628 127.144 218.044 127.824 218.332 128.592C218.62 129.344 218.764 130.16 218.764 131.04C218.764 131.264 218.748 131.496 218.716 131.736C218.7 131.976 218.66 132.184 218.596 132.36H208.516V129.96H216.82L215.332 131.088C215.476 130.352 215.436 129.696 215.212 129.12C215.004 128.544 214.652 128.088 214.156 127.752C213.676 127.416 213.092 127.248 212.404 127.248C211.748 127.248 211.164 127.416 210.652 127.752C210.14 128.072 209.748 128.552 209.476 129.192C209.22 129.816 209.124 130.576 209.188 131.472C209.124 132.272 209.228 132.984 209.5 133.608C209.788 134.216 210.204 134.688 210.748 135.024C211.308 135.36 211.948 135.528 212.668 135.528C213.388 135.528 213.996 135.376 214.492 135.072C215.004 134.768 215.404 134.36 215.692 133.848L218.236 135.096C217.98 135.72 217.58 136.272 217.036 136.752C216.492 137.232 215.844 137.608 215.092 137.88C214.356 138.152 213.54 138.288 212.644 138.288ZM227.1 138.144C225.628 138.144 224.484 137.744 223.668 136.944C222.868 136.128 222.468 134.984 222.468 133.512V127.752H220.212V124.944H220.452C221.092 124.944 221.588 124.776 221.94 124.44C222.292 124.104 222.468 123.616 222.468 122.976V121.968H225.612V124.944H228.612V127.752H225.612V133.344C225.612 133.776 225.684 134.144 225.828 134.448C225.988 134.752 226.228 134.984 226.548 135.144C226.884 135.304 227.308 135.384 227.82 135.384C227.932 135.384 228.06 135.376 228.204 135.36C228.364 135.344 228.516 135.328 228.66 135.312V138C228.436 138.032 228.18 138.064 227.892 138.096C227.604 138.128 227.34 138.144 227.1 138.144Z" fill="#631D25"/>
<g filter="url(#filter0_d_296_133)">
<rect x="90.75" width="84" height="84" rx="42" fill="white"/>
<path d="M116.56 33.1304C113.107 35.3819 110.405 38.0837 110.405 38.0837C108.154 37.4833 106.953 36.8829 106.953 36.1324C106.953 34.9316 110.706 33.8809 116.56 33.1304Z" fill="#81ABB8"/>
<path d="M151.383 33.5815C155.285 34.332 157.687 35.2327 157.687 36.1333C157.687 36.7337 156.937 37.184 155.586 37.6343C155.586 37.7844 153.935 35.8331 151.383 33.5815Z" fill="#81ABB8"/>
<path d="M158.888 41.9863C162.791 50.6922 151.684 58.9477 141.177 61.1992C138.775 61.9497 135.773 62.2499 132.321 62.2499C128.868 62.2499 125.716 61.7996 123.465 61.1992C113.108 59.0978 101.85 50.6922 105.753 41.9863C106.803 42.5867 108.004 43.1871 109.655 43.7875C114.308 45.4386 122.714 46.6395 132.321 46.6395C142.828 46.6395 151.984 45.2885 156.187 43.3372C156.187 43.3372 156.337 43.3372 156.337 43.1871C157.387 42.7368 158.138 42.4366 158.888 41.9863Z" fill="#B8EAF5"/>
<path d="M158.888 41.9863C162.791 50.6922 151.684 58.9477 141.177 61.1992C138.775 61.9497 135.773 62.2499 132.321 62.2499C128.868 62.2499 125.716 61.7996 123.465 61.1992C113.108 59.0978 101.85 50.6922 105.753 41.9863C106.803 42.5867 108.004 43.1871 109.655 43.7875C114.308 45.4386 122.714 46.6395 132.321 46.6395C142.828 46.6395 151.984 45.2885 156.187 43.3372C156.187 43.3372 156.337 43.3372 156.337 43.1871C157.387 42.7368 158.138 42.4366 158.888 41.9863Z" fill="#32BDC8"/>
<path d="M162.641 36.5827C161.74 39.7349 148.531 42.1365 132.32 42.1365C115.509 42.1365 102 39.4346 102 36.2825C102 33.8809 109.655 31.7795 120.612 30.8789V31.029C119.262 31.6294 117.761 32.3799 116.56 33.2805C110.706 34.031 106.953 35.0817 106.953 36.2825C106.953 37.033 108.304 37.6334 110.406 38.2338C114.759 39.4346 123.014 40.1851 132.32 40.1851C142.677 40.1851 151.683 39.2845 155.586 37.9336C156.937 37.4833 157.687 36.8829 157.687 36.4326C157.687 35.532 155.286 34.6314 151.383 33.8809C150.483 33.1304 149.582 32.3799 148.531 31.6294C157.087 32.6801 162.641 34.4813 162.641 36.5827C162.791 36.4326 162.791 36.4326 162.641 36.5827Z" fill="#52DDE8"/>
<path d="M156.485 43.1873C156.485 43.1873 156.335 43.1874 156.335 43.3375C152.132 45.2888 142.976 46.6397 132.469 46.6397C122.862 46.6397 114.306 45.4389 109.803 43.7878C108.302 43.1874 106.951 42.5869 105.901 41.9865C101.248 39.1346 102.148 36.2827 102.148 36.2827C102.148 39.5849 115.807 42.1366 132.469 42.1366C148.68 42.1366 161.888 39.735 162.789 36.5829C162.789 37.3334 162.789 39.735 158.886 41.9865C158.136 42.4368 157.385 42.737 156.485 43.1873Z" fill="#36BACC"/>
<path d="M148.532 31.3295C149.583 32.08 150.483 32.8306 151.384 33.5811C153.935 35.8326 155.587 37.6338 155.587 37.6338C151.684 38.9847 142.678 39.8853 132.321 39.8853C123.015 39.8853 114.759 39.1348 110.406 37.934C110.406 37.934 113.108 35.2322 116.56 32.9807C117.911 32.08 119.262 31.3295 120.613 30.7291C122.564 29.9786 124.516 29.6784 126.167 30.1287C126.167 30.1287 130.97 25.0253 139.075 26.5263C142.378 27.2768 145.83 29.2281 148.532 31.3295Z" fill="#DDF5F1"/>
<path d="M131.87 27.126C128.118 28.1767 126.016 30.4282 126.016 30.4282C124.365 29.8278 122.414 30.2781 120.463 31.0286C119.112 31.629 117.611 32.3795 116.41 33.2801C112.958 35.5316 110.256 38.2334 110.256 38.2334C114.609 39.4342 122.864 40.1847 132.171 40.1847C136.373 40.1847 140.426 40.0346 143.878 39.7344C141.927 34.0306 138.175 29.5276 131.87 27.126Z" fill="#DDF5F1"/>
<path d="M151.384 33.581C150.484 32.8305 149.583 32.08 148.532 31.3295C145.68 29.2281 142.378 27.2768 139.076 26.6764C136.224 26.2261 133.822 26.5263 131.871 26.9766C138.025 29.3782 141.928 33.8812 144.029 39.4349C149.133 38.9846 153.185 38.3842 155.587 37.6337C155.587 37.7838 153.936 35.8325 151.384 33.581Z" fill="url(#paint0_linear_296_133)"/>
<path d="M123.837 36.9981C124.231 36.2101 123.311 35.9474 122.917 36.6041C122.655 37.1295 123.311 37.9175 123.837 36.9981Z" fill="white"/>
<path d="M126.993 32.4018C126.861 33.3212 128.043 33.1898 128.043 32.4018C128.043 31.7451 126.993 31.2198 126.993 32.4018Z" fill="white"/>
<path d="M149.45 34.8973C149.187 35.4226 149.844 35.5539 149.975 35.1599C150.238 34.7659 149.713 34.3719 149.45 34.8973Z" fill="white"/>
<path d="M142.093 32.534C142.487 33.4534 143.407 32.6653 143.013 32.0087C142.619 31.4833 141.568 31.4833 142.093 32.534Z" fill="white"/>
<path d="M120.292 34.5035C119.898 34.8975 120.423 35.1602 120.686 34.8975C120.949 34.6348 120.686 34.1095 120.292 34.5035Z" fill="white"/>
<path d="M127.12 36.9989C127.777 37.6556 128.303 36.8676 127.777 36.3422C127.383 35.8169 126.464 36.2109 127.12 36.9989Z" fill="white"/>
<path d="M139.331 30.9574C138.806 32.0082 140.119 32.2708 140.513 31.3515C140.776 30.6948 139.857 29.7754 139.331 30.9574Z" fill="white"/>
<path d="M144.454 34.7664C144.191 35.6858 145.242 35.8171 145.373 35.0291C145.636 34.5038 144.717 33.7157 144.454 34.7664Z" fill="white"/>
<path d="M120.026 35.5543C119.763 35.1603 119.369 35.5543 119.632 35.9483C119.894 36.0797 120.42 35.9483 120.026 35.5543Z" fill="white"/>
<path d="M137.235 34.1096C137.892 34.5036 138.154 33.5842 137.629 33.3216C136.972 33.0589 136.316 33.7156 137.235 34.1096Z" fill="white"/>
<path d="M137.237 30.1699C136.581 29.9073 136.449 30.6953 136.975 30.8266C137.369 31.0893 137.894 30.4326 137.237 30.1699Z" fill="white"/>
<path d="M141.834 30.3007C142.228 30.8261 142.622 30.3007 142.359 29.9067C142.228 29.5127 141.44 29.644 141.834 30.3007Z" fill="white"/>
<path d="M135.396 36.6049C135.396 37.6556 136.447 37.3929 136.579 36.6049C136.579 35.8169 135.396 35.4229 135.396 36.6049Z" fill="white"/>
<path d="M123.576 34.2412C123.05 35.0293 124.101 35.2919 124.495 34.7666C124.758 34.1099 124.101 33.3219 123.576 34.2412Z" fill="white"/>
<path d="M120.686 33.0591C121.211 33.5845 121.737 32.7965 121.211 32.4025C120.817 32.1398 120.029 32.5338 120.686 33.0591Z" fill="white"/>
<path d="M131.192 34.6348C130.667 34.6348 130.798 35.2915 131.192 35.2915C131.586 35.2915 131.849 34.6348 131.192 34.6348Z" fill="white"/>
<path d="M131.586 31.2203C132.111 31.6143 132.505 30.9576 132.111 30.5636C131.586 30.3009 130.929 30.6949 131.586 31.2203Z" fill="white"/>
<path d="M117.954 60.8338L113.918 56.7979L128.716 41.9994L113.918 27.265L117.954 23.165L132.752 37.8994L147.551 23.165L151.587 27.265L136.852 41.9994L151.587 56.7979L147.551 60.8338L132.752 46.0994L117.954 60.8338Z" fill="#FD0000"/>
</g>
<path d="M39.2894 167V155.825H40.1144L44.2844 162.035H43.8794L48.0644 155.825H48.8894V167H47.9144V157.25L48.1544 157.385L44.1044 163.43H44.0594L40.0094 157.385L40.2644 157.25V167H39.2894ZM55.1766 167.18C54.4266 167.18 53.7516 167 53.1516 166.64C52.5516 166.27 52.0766 165.77 51.7266 165.14C51.3766 164.5 51.2016 163.785 51.2016 162.995C51.2016 162.205 51.3716 161.5 51.7116 160.88C52.0516 160.25 52.5116 159.755 53.0916 159.395C53.6716 159.035 54.3216 158.855 55.0416 158.855C55.5916 158.855 56.0866 158.955 56.5266 159.155C56.9766 159.355 57.3616 159.635 57.6816 159.995C58.0116 160.345 58.2616 160.75 58.4316 161.21C58.6116 161.66 58.7016 162.135 58.7016 162.635C58.7016 162.735 58.6966 162.84 58.6866 162.95C58.6766 163.06 58.6616 163.175 58.6416 163.295H51.7266V162.47H58.1316L57.7266 162.785C57.7866 162.205 57.7016 161.685 57.4716 161.225C57.2416 160.755 56.9116 160.385 56.4816 160.115C56.0616 159.835 55.5816 159.695 55.0416 159.695C54.5016 159.695 54.0066 159.84 53.5566 160.13C53.1066 160.41 52.7516 160.8 52.4916 161.3C52.2316 161.79 52.1116 162.36 52.1316 163.01C52.1116 163.66 52.2366 164.235 52.5066 164.735C52.7766 165.235 53.1466 165.63 53.6166 165.92C54.0866 166.2 54.6066 166.34 55.1766 166.34C55.7566 166.34 56.2616 166.205 56.6916 165.935C57.1216 165.655 57.4716 165.285 57.7416 164.825L58.5066 165.23C58.3266 165.6 58.0716 165.935 57.7416 166.235C57.4116 166.525 57.0266 166.755 56.5866 166.925C56.1566 167.095 55.6866 167.18 55.1766 167.18ZM60.848 167V159.035H61.748V160.64L61.523 160.58C61.703 160.05 62.023 159.63 62.483 159.32C62.953 159.01 63.498 158.855 64.118 158.855C64.668 158.855 65.168 158.98 65.618 159.23C66.068 159.48 66.428 159.83 66.698 160.28C66.968 160.72 67.103 161.225 67.103 161.795V167H66.203V162.05C66.203 161.57 66.108 161.16 65.918 160.82C65.728 160.47 65.463 160.205 65.123 160.025C64.793 159.835 64.413 159.74 63.983 159.74C63.533 159.74 63.138 159.845 62.798 160.055C62.458 160.265 62.198 160.555 62.018 160.925C61.838 161.295 61.748 161.72 61.748 162.2V167H60.848ZM73.152 170.3C72.622 170.3 72.132 170.215 71.682 170.045C71.232 169.875 70.842 169.645 70.512 169.355C70.182 169.065 69.922 168.735 69.732 168.365L70.542 167.93C70.762 168.36 71.092 168.715 71.532 168.995C71.982 169.275 72.517 169.415 73.137 169.415C73.637 169.415 74.102 169.315 74.532 169.115C74.962 168.925 75.312 168.625 75.582 168.215C75.862 167.815 76.002 167.31 76.002 166.7V164.675L76.167 164.885C75.887 165.505 75.462 165.995 74.892 166.355C74.322 166.705 73.687 166.88 72.987 166.88C72.247 166.88 71.582 166.7 70.992 166.34C70.402 165.98 69.937 165.495 69.597 164.885C69.267 164.275 69.102 163.6 69.102 162.86C69.102 162.12 69.267 161.45 69.597 160.85C69.937 160.24 70.397 159.755 70.977 159.395C71.567 159.035 72.237 158.855 72.987 158.855C73.687 158.855 74.317 159.03 74.877 159.38C75.437 159.72 75.867 160.18 76.167 160.76L76.002 161.045V159.035H76.902V166.7C76.902 167.39 76.742 168.005 76.422 168.545C76.102 169.095 75.657 169.525 75.087 169.835C74.527 170.145 73.882 170.3 73.152 170.3ZM73.017 165.98C73.577 165.98 74.077 165.84 74.517 165.56C74.967 165.28 75.322 164.905 75.582 164.435C75.842 163.955 75.972 163.43 75.972 162.86C75.972 162.29 75.842 161.77 75.582 161.3C75.322 160.83 74.967 160.455 74.517 160.175C74.077 159.895 73.577 159.755 73.017 159.755C72.447 159.755 71.937 159.895 71.487 160.175C71.037 160.455 70.687 160.83 70.437 161.3C70.187 161.77 70.062 162.29 70.062 162.86C70.062 163.43 70.187 163.955 70.437 164.435C70.687 164.905 71.032 165.28 71.472 165.56C71.922 165.84 72.437 165.98 73.017 165.98ZM83.0983 170.3C82.5683 170.3 82.0783 170.215 81.6283 170.045C81.1783 169.875 80.7883 169.645 80.4583 169.355C80.1283 169.065 79.8683 168.735 79.6783 168.365L80.4883 167.93C80.7083 168.36 81.0383 168.715 81.4783 168.995C81.9283 169.275 82.4633 169.415 83.0833 169.415C83.5833 169.415 84.0483 169.315 84.4783 169.115C84.9083 168.925 85.2583 168.625 85.5283 168.215C85.8083 167.815 85.9483 167.31 85.9483 166.7V164.675L86.1133 164.885C85.8333 165.505 85.4083 165.995 84.8383 166.355C84.2683 166.705 83.6333 166.88 82.9333 166.88C82.1933 166.88 81.5283 166.7 80.9383 166.34C80.3483 165.98 79.8833 165.495 79.5433 164.885C79.2133 164.275 79.0483 163.6 79.0483 162.86C79.0483 162.12 79.2133 161.45 79.5433 160.85C79.8833 160.24 80.3433 159.755 80.9233 159.395C81.5133 159.035 82.1833 158.855 82.9333 158.855C83.6333 158.855 84.2633 159.03 84.8233 159.38C85.3833 159.72 85.8133 160.18 86.1133 160.76L85.9483 161.045V159.035H86.8483V166.7C86.8483 167.39 86.6883 168.005 86.3683 168.545C86.0483 169.095 85.6033 169.525 85.0333 169.835C84.4733 170.145 83.8283 170.3 83.0983 170.3ZM82.9633 165.98C83.5233 165.98 84.0233 165.84 84.4633 165.56C84.9133 165.28 85.2683 164.905 85.5283 164.435C85.7883 163.955 85.9183 163.43 85.9183 162.86C85.9183 162.29 85.7883 161.77 85.5283 161.3C85.2683 160.83 84.9133 160.455 84.4633 160.175C84.0233 159.895 83.5233 159.755 82.9633 159.755C82.3933 159.755 81.8833 159.895 81.4333 160.175C80.9833 160.455 80.6333 160.83 80.3833 161.3C80.1333 161.77 80.0083 162.29 80.0083 162.86C80.0083 163.43 80.1333 163.955 80.3833 164.435C80.6333 164.905 80.9783 165.28 81.4183 165.56C81.8683 165.84 82.3833 165.98 82.9633 165.98ZM92.1446 167.18C91.6046 167.18 91.1046 167.055 90.6446 166.805C90.1946 166.555 89.8346 166.205 89.5646 165.755C89.2946 165.295 89.1596 164.75 89.1596 164.12V159.035H90.0596V164.045C90.0596 164.515 90.1546 164.92 90.3446 165.26C90.5446 165.59 90.8096 165.845 91.1396 166.025C91.4796 166.205 91.8596 166.295 92.2796 166.295C92.7396 166.295 93.1346 166.19 93.4646 165.98C93.8046 165.77 94.0646 165.48 94.2446 165.11C94.4246 164.73 94.5146 164.3 94.5146 163.82V159.035H95.4146V167H94.5146V165.38L94.7396 165.455C94.5596 165.975 94.2396 166.395 93.7796 166.715C93.3196 167.025 92.7746 167.18 92.1446 167.18ZM97.9086 167V159.035H98.8086V160.64L98.5836 160.58C98.7636 160.05 99.0836 159.63 99.5436 159.32C100.014 159.01 100.559 158.855 101.179 158.855C101.729 158.855 102.229 158.98 102.679 159.23C103.129 159.48 103.489 159.83 103.759 160.28C104.029 160.72 104.164 161.225 104.164 161.795V167H103.264V162.05C103.264 161.57 103.169 161.16 102.979 160.82C102.789 160.47 102.524 160.205 102.184 160.025C101.854 159.835 101.474 159.74 101.044 159.74C100.594 159.74 100.199 159.845 99.8586 160.055C99.5186 160.265 99.2586 160.555 99.0786 160.925C98.8986 161.295 98.8086 161.72 98.8086 162.2V167H97.9086ZM108.773 167.18C108.273 167.18 107.828 167.085 107.438 166.895C107.048 166.705 106.738 166.44 106.508 166.1C106.278 165.76 106.163 165.37 106.163 164.93C106.163 164.54 106.248 164.175 106.418 163.835C106.588 163.495 106.863 163.205 107.243 162.965C107.623 162.715 108.118 162.54 108.728 162.44L111.953 161.9V162.74L108.968 163.235C108.288 163.345 107.808 163.55 107.528 163.85C107.248 164.15 107.108 164.5 107.108 164.9C107.108 165.33 107.268 165.68 107.588 165.95C107.918 166.22 108.333 166.355 108.833 166.355C109.413 166.355 109.918 166.225 110.348 165.965C110.778 165.695 111.113 165.345 111.353 164.915C111.593 164.475 111.713 163.995 111.713 163.475V161.495C111.713 160.965 111.523 160.535 111.143 160.205C110.763 159.875 110.268 159.71 109.658 159.71C109.158 159.71 108.708 159.835 108.308 160.085C107.908 160.335 107.603 160.66 107.393 161.06L106.583 160.625C106.733 160.305 106.963 160.01 107.273 159.74C107.583 159.47 107.943 159.255 108.353 159.095C108.763 158.935 109.198 158.855 109.658 158.855C110.238 158.855 110.748 158.97 111.188 159.2C111.638 159.42 111.988 159.73 112.238 160.13C112.488 160.52 112.613 160.975 112.613 161.495V167H111.713V165.335L111.818 165.41C111.688 165.73 111.473 166.025 111.173 166.295C110.873 166.555 110.518 166.77 110.108 166.94C109.708 167.1 109.263 167.18 108.773 167.18ZM115.091 167V155.645H115.991V163.76L115.526 163.715L120.236 159.035H121.466L118.256 162.245L121.766 167H120.641L117.311 162.53L117.911 162.545L115.751 164.765L115.991 164.15V167H115.091ZM125.53 167.18C125.03 167.18 124.585 167.085 124.195 166.895C123.805 166.705 123.495 166.44 123.265 166.1C123.035 165.76 122.92 165.37 122.92 164.93C122.92 164.54 123.005 164.175 123.175 163.835C123.345 163.495 123.62 163.205 124 162.965C124.38 162.715 124.875 162.54 125.485 162.44L128.71 161.9V162.74L125.725 163.235C125.045 163.345 124.565 163.55 124.285 163.85C124.005 164.15 123.865 164.5 123.865 164.9C123.865 165.33 124.025 165.68 124.345 165.95C124.675 166.22 125.09 166.355 125.59 166.355C126.17 166.355 126.675 166.225 127.105 165.965C127.535 165.695 127.87 165.345 128.11 164.915C128.35 164.475 128.47 163.995 128.47 163.475V161.495C128.47 160.965 128.28 160.535 127.9 160.205C127.52 159.875 127.025 159.71 126.415 159.71C125.915 159.71 125.465 159.835 125.065 160.085C124.665 160.335 124.36 160.66 124.15 161.06L123.34 160.625C123.49 160.305 123.72 160.01 124.03 159.74C124.34 159.47 124.7 159.255 125.11 159.095C125.52 158.935 125.955 158.855 126.415 158.855C126.995 158.855 127.505 158.97 127.945 159.2C128.395 159.42 128.745 159.73 128.995 160.13C129.245 160.52 129.37 160.975 129.37 161.495V167H128.47V165.335L128.575 165.41C128.445 165.73 128.23 166.025 127.93 166.295C127.63 166.555 127.275 166.77 126.865 166.94C126.465 167.1 126.02 167.18 125.53 167.18ZM131.849 167V159.035H132.749V160.64L132.524 160.58C132.704 160.05 133.024 159.63 133.484 159.32C133.954 159.01 134.499 158.855 135.119 158.855C135.669 158.855 136.169 158.98 136.619 159.23C137.069 159.48 137.429 159.83 137.699 160.28C137.969 160.72 138.104 161.225 138.104 161.795V167H137.204V162.05C137.204 161.57 137.109 161.16 136.919 160.82C136.729 160.47 136.464 160.205 136.124 160.025C135.794 159.835 135.414 159.74 134.984 159.74C134.534 159.74 134.139 159.845 133.799 160.055C133.459 160.265 133.199 160.555 133.019 160.925C132.839 161.295 132.749 161.72 132.749 162.2V167H131.849ZM143.074 167V155.825H147.679C148.289 155.825 148.819 155.945 149.269 156.185C149.729 156.425 150.084 156.755 150.334 157.175C150.594 157.595 150.724 158.08 150.724 158.63C150.724 159.21 150.574 159.725 150.274 160.175C149.974 160.625 149.554 160.95 149.014 161.15V160.895C149.454 161.035 149.834 161.25 150.154 161.54C150.484 161.82 150.734 162.155 150.904 162.545C151.084 162.935 151.174 163.355 151.174 163.805C151.174 164.775 150.864 165.55 150.244 166.13C149.634 166.71 148.779 167 147.679 167H143.074ZM144.049 166.1H147.619C148.409 166.1 149.034 165.895 149.494 165.485C149.964 165.075 150.199 164.52 150.199 163.82C150.199 163.13 149.969 162.58 149.509 162.17C149.059 161.75 148.454 161.54 147.694 161.54H144.049V166.1ZM144.049 160.655H147.589C148.239 160.655 148.759 160.47 149.149 160.1C149.549 159.73 149.749 159.245 149.749 158.645C149.749 158.045 149.554 157.575 149.164 157.235C148.784 156.895 148.259 156.725 147.589 156.725H144.049V160.655ZM155.604 167.18C155.104 167.18 154.659 167.085 154.269 166.895C153.879 166.705 153.569 166.44 153.339 166.1C153.109 165.76 152.994 165.37 152.994 164.93C152.994 164.54 153.079 164.175 153.249 163.835C153.419 163.495 153.694 163.205 154.074 162.965C154.454 162.715 154.949 162.54 155.559 162.44L158.784 161.9V162.74L155.799 163.235C155.119 163.345 154.639 163.55 154.359 163.85C154.079 164.15 153.939 164.5 153.939 164.9C153.939 165.33 154.099 165.68 154.419 165.95C154.749 166.22 155.164 166.355 155.664 166.355C156.244 166.355 156.749 166.225 157.179 165.965C157.609 165.695 157.944 165.345 158.184 164.915C158.424 164.475 158.544 163.995 158.544 163.475V161.495C158.544 160.965 158.354 160.535 157.974 160.205C157.594 159.875 157.099 159.71 156.489 159.71C155.989 159.71 155.539 159.835 155.139 160.085C154.739 160.335 154.434 160.66 154.224 161.06L153.414 160.625C153.564 160.305 153.794 160.01 154.104 159.74C154.414 159.47 154.774 159.255 155.184 159.095C155.594 158.935 156.029 158.855 156.489 158.855C157.069 158.855 157.579 158.97 158.019 159.2C158.469 159.42 158.819 159.73 159.069 160.13C159.319 160.52 159.444 160.975 159.444 161.495V167H158.544V165.335L158.649 165.41C158.519 165.73 158.304 166.025 158.004 166.295C157.704 166.555 157.349 166.77 156.939 166.94C156.539 167.1 156.094 167.18 155.604 167.18ZM161.922 167V155.645H162.822V160.64L162.597 160.58C162.777 160.05 163.097 159.63 163.557 159.32C164.027 159.01 164.572 158.855 165.192 158.855C165.742 158.855 166.242 158.98 166.692 159.23C167.142 159.48 167.502 159.83 167.772 160.28C168.042 160.72 168.177 161.225 168.177 161.795V167H167.277V162.05C167.277 161.57 167.177 161.16 166.977 160.82C166.787 160.47 166.522 160.205 166.182 160.025C165.852 159.835 165.477 159.74 165.057 159.74C164.607 159.74 164.212 159.845 163.872 160.055C163.542 160.265 163.282 160.555 163.092 160.925C162.912 161.295 162.822 161.72 162.822 162.2V167H161.922ZM172.786 167.18C172.286 167.18 171.841 167.085 171.451 166.895C171.061 166.705 170.751 166.44 170.521 166.1C170.291 165.76 170.176 165.37 170.176 164.93C170.176 164.54 170.261 164.175 170.431 163.835C170.601 163.495 170.876 163.205 171.256 162.965C171.636 162.715 172.131 162.54 172.741 162.44L175.966 161.9V162.74L172.981 163.235C172.301 163.345 171.821 163.55 171.541 163.85C171.261 164.15 171.121 164.5 171.121 164.9C171.121 165.33 171.281 165.68 171.601 165.95C171.931 166.22 172.346 166.355 172.846 166.355C173.426 166.355 173.931 166.225 174.361 165.965C174.791 165.695 175.126 165.345 175.366 164.915C175.606 164.475 175.726 163.995 175.726 163.475V161.495C175.726 160.965 175.536 160.535 175.156 160.205C174.776 159.875 174.281 159.71 173.671 159.71C173.171 159.71 172.721 159.835 172.321 160.085C171.921 160.335 171.616 160.66 171.406 161.06L170.596 160.625C170.746 160.305 170.976 160.01 171.286 159.74C171.596 159.47 171.956 159.255 172.366 159.095C172.776 158.935 173.211 158.855 173.671 158.855C174.251 158.855 174.761 158.97 175.201 159.2C175.651 159.42 176.001 159.73 176.251 160.13C176.501 160.52 176.626 160.975 176.626 161.495V167H175.726V165.335L175.831 165.41C175.701 165.73 175.486 166.025 175.186 166.295C174.886 166.555 174.531 166.77 174.121 166.94C173.721 167.1 173.276 167.18 172.786 167.18ZM179.105 167V159.035H180.005V160.64L179.78 160.58C179.96 160.05 180.28 159.63 180.74 159.32C181.21 159.01 181.755 158.855 182.375 158.855C182.925 158.855 183.425 158.98 183.875 159.23C184.325 159.48 184.685 159.83 184.955 160.28C185.225 160.72 185.36 161.225 185.36 161.795V167H184.46V162.05C184.46 161.57 184.365 161.16 184.175 160.82C183.985 160.47 183.72 160.205 183.38 160.025C183.05 159.835 182.67 159.74 182.24 159.74C181.79 159.74 181.395 159.845 181.055 160.055C180.715 160.265 180.455 160.555 180.275 160.925C180.095 161.295 180.005 161.72 180.005 162.2V167H179.105ZM189.174 167L193.284 155.825H194.289L198.399 167H197.349L196.329 164.15H191.244L190.209 167H189.174ZM191.559 163.25H195.999L193.599 156.575H193.959L191.559 163.25ZM199.891 167V155.645H200.791V167H199.891ZM205.54 167.18C205.04 167.18 204.595 167.085 204.205 166.895C203.815 166.705 203.505 166.44 203.275 166.1C203.045 165.76 202.93 165.37 202.93 164.93C202.93 164.54 203.015 164.175 203.185 163.835C203.355 163.495 203.63 163.205 204.01 162.965C204.39 162.715 204.885 162.54 205.495 162.44L208.72 161.9V162.74L205.735 163.235C205.055 163.345 204.575 163.55 204.295 163.85C204.015 164.15 203.875 164.5 203.875 164.9C203.875 165.33 204.035 165.68 204.355 165.95C204.685 166.22 205.1 166.355 205.6 166.355C206.18 166.355 206.685 166.225 207.115 165.965C207.545 165.695 207.88 165.345 208.12 164.915C208.36 164.475 208.48 163.995 208.48 163.475V161.495C208.48 160.965 208.29 160.535 207.91 160.205C207.53 159.875 207.035 159.71 206.425 159.71C205.925 159.71 205.475 159.835 205.075 160.085C204.675 160.335 204.37 160.66 204.16 161.06L203.35 160.625C203.5 160.305 203.73 160.01 204.04 159.74C204.35 159.47 204.71 159.255 205.12 159.095C205.53 158.935 205.965 158.855 206.425 158.855C207.005 158.855 207.515 158.97 207.955 159.2C208.405 159.42 208.755 159.73 209.005 160.13C209.255 160.52 209.38 160.975 209.38 161.495V167H208.48V165.335L208.585 165.41C208.455 165.73 208.24 166.025 207.94 166.295C207.64 166.555 207.285 166.77 206.875 166.94C206.475 167.1 206.03 167.18 205.54 167.18ZM211.859 167V159.035H212.759V160.64L212.594 160.415C212.794 159.935 213.114 159.555 213.554 159.275C214.004 158.995 214.504 158.855 215.054 158.855C215.674 158.855 216.239 159.035 216.749 159.395C217.259 159.745 217.614 160.215 217.814 160.805L217.529 160.82C217.699 160.21 218.034 159.73 218.534 159.38C219.044 159.03 219.609 158.855 220.229 158.855C220.759 158.855 221.244 158.98 221.684 159.23C222.134 159.48 222.494 159.83 222.764 160.28C223.044 160.72 223.184 161.225 223.184 161.795V167H222.284V162.05C222.284 161.57 222.184 161.16 221.984 160.82C221.794 160.47 221.539 160.205 221.219 160.025C220.899 159.835 220.539 159.74 220.139 159.74C219.709 159.74 219.329 159.845 218.999 160.055C218.679 160.265 218.424 160.555 218.234 160.925C218.054 161.295 217.964 161.72 217.964 162.2V167H217.064V162.05C217.064 161.57 216.969 161.16 216.779 160.82C216.589 160.47 216.329 160.205 215.999 160.025C215.679 159.835 215.319 159.74 214.919 159.74C214.489 159.74 214.109 159.845 213.779 160.055C213.459 160.265 213.209 160.555 213.029 160.925C212.849 161.295 212.759 161.72 212.759 162.2V167H211.859ZM225.496 167V159.035H226.396V167H225.496ZM225.496 157.475V155.825H226.396V157.475H225.496ZM77.3701 186V175.725H74.2501V174.825H81.4501V175.725H78.3451V186H77.3701ZM84.3902 186.18C83.8902 186.18 83.4452 186.085 83.0552 185.895C82.6652 185.705 82.3552 185.44 82.1252 185.1C81.8952 184.76 81.7802 184.37 81.7802 183.93C81.7802 183.54 81.8652 183.175 82.0352 182.835C82.2052 182.495 82.4802 182.205 82.8602 181.965C83.2402 181.715 83.7352 181.54 84.3452 181.44L87.5702 180.9V181.74L84.5852 182.235C83.9052 182.345 83.4252 182.55 83.1452 182.85C82.8652 183.15 82.7252 183.5 82.7252 183.9C82.7252 184.33 82.8852 184.68 83.2052 184.95C83.5352 185.22 83.9502 185.355 84.4502 185.355C85.0302 185.355 85.5352 185.225 85.9652 184.965C86.3952 184.695 86.7302 184.345 86.9702 183.915C87.2102 183.475 87.3302 182.995 87.3302 182.475V180.495C87.3302 179.965 87.1402 179.535 86.7602 179.205C86.3802 178.875 85.8852 178.71 85.2752 178.71C84.7752 178.71 84.3252 178.835 83.9252 179.085C83.5252 179.335 83.2202 179.66 83.0102 180.06L82.2002 179.625C82.3502 179.305 82.5802 179.01 82.8902 178.74C83.2002 178.47 83.5602 178.255 83.9702 178.095C84.3802 177.935 84.8152 177.855 85.2752 177.855C85.8552 177.855 86.3652 177.97 86.8052 178.2C87.2552 178.42 87.6052 178.73 87.8552 179.13C88.1052 179.52 88.2302 179.975 88.2302 180.495V186H87.3302V184.335L87.4352 184.41C87.3052 184.73 87.0902 185.025 86.7902 185.295C86.4902 185.555 86.1352 185.77 85.7252 185.94C85.3252 186.1 84.8802 186.18 84.3902 186.18ZM90.7089 186V178.035H91.6089V179.64L91.3839 179.58C91.5639 179.05 91.8839 178.63 92.3439 178.32C92.8139 178.01 93.3589 177.855 93.9789 177.855C94.5289 177.855 95.0289 177.98 95.4789 178.23C95.9289 178.48 96.2889 178.83 96.5589 179.28C96.8289 179.72 96.9639 180.225 96.9639 180.795V186H96.0639V181.05C96.0639 180.57 95.9689 180.16 95.7789 179.82C95.5889 179.47 95.3239 179.205 94.9839 179.025C94.6539 178.835 94.2739 178.74 93.8439 178.74C93.3939 178.74 92.9989 178.845 92.6589 179.055C92.3189 179.265 92.0589 179.555 91.8789 179.925C91.6989 180.295 91.6089 180.72 91.6089 181.2V186H90.7089ZM99.2929 189V178.035H100.193V180.045L100.043 179.76C100.343 179.18 100.773 178.72 101.333 178.38C101.903 178.03 102.553 177.855 103.283 177.855C104.033 177.855 104.703 178.035 105.293 178.395C105.883 178.755 106.348 179.25 106.688 179.88C107.028 180.51 107.198 181.225 107.198 182.025C107.198 182.805 107.028 183.51 106.688 184.14C106.348 184.77 105.883 185.27 105.293 185.64C104.703 186 104.033 186.18 103.283 186.18C102.553 186.18 101.898 186.005 101.318 185.655C100.748 185.295 100.323 184.805 100.043 184.185L100.193 183.975V189H99.2929ZM103.253 185.28C103.823 185.28 104.333 185.14 104.783 184.86C105.233 184.57 105.588 184.18 105.848 183.69C106.108 183.19 106.238 182.63 106.238 182.01C106.238 181.39 106.108 180.835 105.848 180.345C105.588 179.855 105.233 179.47 104.783 179.19C104.333 178.9 103.823 178.755 103.253 178.755C102.683 178.755 102.168 178.9 101.708 179.19C101.248 179.47 100.883 179.855 100.613 180.345C100.343 180.835 100.208 181.39 100.208 182.01C100.208 182.63 100.343 183.19 100.613 183.69C100.883 184.18 101.243 184.57 101.693 184.86C102.153 185.14 102.673 185.28 103.253 185.28ZM111.636 186.18C111.136 186.18 110.691 186.085 110.301 185.895C109.911 185.705 109.601 185.44 109.371 185.1C109.141 184.76 109.026 184.37 109.026 183.93C109.026 183.54 109.111 183.175 109.281 182.835C109.451 182.495 109.726 182.205 110.106 181.965C110.486 181.715 110.981 181.54 111.591 181.44L114.816 180.9V181.74L111.831 182.235C111.151 182.345 110.671 182.55 110.391 182.85C110.111 183.15 109.971 183.5 109.971 183.9C109.971 184.33 110.131 184.68 110.451 184.95C110.781 185.22 111.196 185.355 111.696 185.355C112.276 185.355 112.781 185.225 113.211 184.965C113.641 184.695 113.976 184.345 114.216 183.915C114.456 183.475 114.576 182.995 114.576 182.475V180.495C114.576 179.965 114.386 179.535 114.006 179.205C113.626 178.875 113.131 178.71 112.521 178.71C112.021 178.71 111.571 178.835 111.171 179.085C110.771 179.335 110.466 179.66 110.256 180.06L109.446 179.625C109.596 179.305 109.826 179.01 110.136 178.74C110.446 178.47 110.806 178.255 111.216 178.095C111.626 177.935 112.061 177.855 112.521 177.855C113.101 177.855 113.611 177.97 114.051 178.2C114.501 178.42 114.851 178.73 115.101 179.13C115.351 179.52 115.476 179.975 115.476 180.495V186H114.576V184.335L114.681 184.41C114.551 184.73 114.336 185.025 114.036 185.295C113.736 185.555 113.381 185.77 112.971 185.94C112.571 186.1 112.126 186.18 111.636 186.18ZM120.596 186V174.825H124.346C125.056 174.825 125.681 174.965 126.221 175.245C126.761 175.525 127.181 175.92 127.481 176.43C127.791 176.94 127.946 177.53 127.946 178.2C127.946 178.87 127.791 179.46 127.481 179.97C127.181 180.47 126.761 180.865 126.221 181.155C125.691 181.435 125.066 181.575 124.346 181.575H121.571V186H120.596ZM121.571 180.675H124.376C124.886 180.675 125.336 180.575 125.726 180.375C126.116 180.165 126.421 179.875 126.641 179.505C126.861 179.125 126.971 178.685 126.971 178.185C126.971 177.685 126.861 177.255 126.641 176.895C126.421 176.525 126.116 176.24 125.726 176.04C125.336 175.83 124.886 175.725 124.376 175.725H121.571V180.675ZM133.275 186.18C132.525 186.18 131.85 186 131.25 185.64C130.65 185.27 130.175 184.77 129.825 184.14C129.475 183.5 129.3 182.785 129.3 181.995C129.3 181.205 129.47 180.5 129.81 179.88C130.15 179.25 130.61 178.755 131.19 178.395C131.77 178.035 132.42 177.855 133.14 177.855C133.69 177.855 134.185 177.955 134.625 178.155C135.075 178.355 135.46 178.635 135.78 178.995C136.11 179.345 136.36 179.75 136.53 180.21C136.71 180.66 136.8 181.135 136.8 181.635C136.8 181.735 136.795 181.84 136.785 181.95C136.775 182.06 136.76 182.175 136.74 182.295H129.825V181.47H136.23L135.825 181.785C135.885 181.205 135.8 180.685 135.57 180.225C135.34 179.755 135.01 179.385 134.58 179.115C134.16 178.835 133.68 178.695 133.14 178.695C132.6 178.695 132.105 178.84 131.655 179.13C131.205 179.41 130.85 179.8 130.59 180.3C130.33 180.79 130.21 181.36 130.23 182.01C130.21 182.66 130.335 183.235 130.605 183.735C130.875 184.235 131.245 184.63 131.715 184.92C132.185 185.2 132.705 185.34 133.275 185.34C133.855 185.34 134.36 185.205 134.79 184.935C135.22 184.655 135.57 184.285 135.84 183.825L136.605 184.23C136.425 184.6 136.17 184.935 135.84 185.235C135.51 185.525 135.125 185.755 134.685 185.925C134.255 186.095 133.785 186.18 133.275 186.18ZM138.946 186V178.035H139.846V179.64L139.621 179.58C139.801 179.05 140.121 178.63 140.581 178.32C141.051 178.01 141.596 177.855 142.216 177.855C142.766 177.855 143.266 177.98 143.716 178.23C144.166 178.48 144.526 178.83 144.796 179.28C145.066 179.72 145.201 180.225 145.201 180.795V186H144.301V181.05C144.301 180.57 144.206 180.16 144.016 179.82C143.826 179.47 143.561 179.205 143.221 179.025C142.891 178.835 142.511 178.74 142.081 178.74C141.631 178.74 141.236 178.845 140.896 179.055C140.556 179.265 140.296 179.555 140.116 179.925C139.936 180.295 139.846 180.72 139.846 181.2V186H138.946ZM151.25 189.3C150.72 189.3 150.23 189.215 149.78 189.045C149.33 188.875 148.94 188.645 148.61 188.355C148.28 188.065 148.02 187.735 147.83 187.365L148.64 186.93C148.86 187.36 149.19 187.715 149.63 187.995C150.08 188.275 150.615 188.415 151.235 188.415C151.735 188.415 152.2 188.315 152.63 188.115C153.06 187.925 153.41 187.625 153.68 187.215C153.96 186.815 154.1 186.31 154.1 185.7V183.675L154.265 183.885C153.985 184.505 153.56 184.995 152.99 185.355C152.42 185.705 151.785 185.88 151.085 185.88C150.345 185.88 149.68 185.7 149.09 185.34C148.5 184.98 148.035 184.495 147.695 183.885C147.365 183.275 147.2 182.6 147.2 181.86C147.2 181.12 147.365 180.45 147.695 179.85C148.035 179.24 148.495 178.755 149.075 178.395C149.665 178.035 150.335 177.855 151.085 177.855C151.785 177.855 152.415 178.03 152.975 178.38C153.535 178.72 153.965 179.18 154.265 179.76L154.1 180.045V178.035H155V185.7C155 186.39 154.84 187.005 154.52 187.545C154.2 188.095 153.755 188.525 153.185 188.835C152.625 189.145 151.98 189.3 151.25 189.3ZM151.115 184.98C151.675 184.98 152.175 184.84 152.615 184.56C153.065 184.28 153.42 183.905 153.68 183.435C153.94 182.955 154.07 182.43 154.07 181.86C154.07 181.29 153.94 180.77 153.68 180.3C153.42 179.83 153.065 179.455 152.615 179.175C152.175 178.895 151.675 178.755 151.115 178.755C150.545 178.755 150.035 178.895 149.585 179.175C149.135 179.455 148.785 179.83 148.535 180.3C148.285 180.77 148.16 181.29 148.16 181.86C148.16 182.43 148.285 182.955 148.535 183.435C148.785 183.905 149.13 184.28 149.57 184.56C150.02 184.84 150.535 184.98 151.115 184.98ZM159.756 186.18C159.256 186.18 158.811 186.085 158.421 185.895C158.031 185.705 157.721 185.44 157.491 185.1C157.261 184.76 157.146 184.37 157.146 183.93C157.146 183.54 157.231 183.175 157.401 182.835C157.571 182.495 157.846 182.205 158.226 181.965C158.606 181.715 159.101 181.54 159.711 181.44L162.936 180.9V181.74L159.951 182.235C159.271 182.345 158.791 182.55 158.511 182.85C158.231 183.15 158.091 183.5 158.091 183.9C158.091 184.33 158.251 184.68 158.571 184.95C158.901 185.22 159.316 185.355 159.816 185.355C160.396 185.355 160.901 185.225 161.331 184.965C161.761 184.695 162.096 184.345 162.336 183.915C162.576 183.475 162.696 182.995 162.696 182.475V180.495C162.696 179.965 162.506 179.535 162.126 179.205C161.746 178.875 161.251 178.71 160.641 178.71C160.141 178.71 159.691 178.835 159.291 179.085C158.891 179.335 158.586 179.66 158.376 180.06L157.566 179.625C157.716 179.305 157.946 179.01 158.256 178.74C158.566 178.47 158.926 178.255 159.336 178.095C159.746 177.935 160.181 177.855 160.641 177.855C161.221 177.855 161.731 177.97 162.171 178.2C162.621 178.42 162.971 178.73 163.221 179.13C163.471 179.52 163.596 179.975 163.596 180.495V186H162.696V184.335L162.801 184.41C162.671 184.73 162.456 185.025 162.156 185.295C161.856 185.555 161.501 185.77 161.091 185.94C160.691 186.1 160.246 186.18 159.756 186.18ZM167.815 186L165.085 178.035H166.09L168.475 185.25H168.085L170.245 178.035H171.16L173.32 185.25H172.93L175.33 178.035H176.335L173.59 186H172.675L170.59 179.04H170.815L168.73 186H167.815ZM181.322 186.18C180.572 186.18 179.897 186 179.297 185.64C178.697 185.27 178.222 184.77 177.872 184.14C177.522 183.5 177.347 182.785 177.347 181.995C177.347 181.205 177.517 180.5 177.857 179.88C178.197 179.25 178.657 178.755 179.237 178.395C179.817 178.035 180.467 177.855 181.187 177.855C181.737 177.855 182.232 177.955 182.672 178.155C183.122 178.355 183.507 178.635 183.827 178.995C184.157 179.345 184.407 179.75 184.577 180.21C184.757 180.66 184.847 181.135 184.847 181.635C184.847 181.735 184.842 181.84 184.832 181.95C184.822 182.06 184.807 182.175 184.787 182.295H177.872V181.47H184.277L183.872 181.785C183.932 181.205 183.847 180.685 183.617 180.225C183.387 179.755 183.057 179.385 182.627 179.115C182.207 178.835 181.727 178.695 181.187 178.695C180.647 178.695 180.152 178.84 179.702 179.13C179.252 179.41 178.897 179.8 178.637 180.3C178.377 180.79 178.257 181.36 178.277 182.01C178.257 182.66 178.382 183.235 178.652 183.735C178.922 184.235 179.292 184.63 179.762 184.92C180.232 185.2 180.752 185.34 181.322 185.34C181.902 185.34 182.407 185.205 182.837 184.935C183.267 184.655 183.617 184.285 183.887 183.825L184.652 184.23C184.472 184.6 184.217 184.935 183.887 185.235C183.557 185.525 183.172 185.755 182.732 185.925C182.302 186.095 181.832 186.18 181.322 186.18ZM189.888 186.09C189.228 186.09 188.718 185.905 188.358 185.535C187.998 185.155 187.818 184.605 187.818 183.885V178.89H186.318V178.035H186.888C187.188 178.035 187.418 177.945 187.578 177.765C187.738 177.585 187.818 177.34 187.818 177.03V176.175H188.718V178.035H190.458V178.89H188.718V183.885C188.718 184.105 188.748 184.32 188.808 184.53C188.878 184.74 189.008 184.91 189.198 185.04C189.388 185.17 189.663 185.235 190.023 185.235C190.103 185.235 190.198 185.23 190.308 185.22C190.428 185.21 190.523 185.2 190.593 185.19V186C190.483 186.03 190.358 186.05 190.218 186.06C190.078 186.08 189.968 186.09 189.888 186.09Z" fill="#414141"/>
</g>
<defs>
<filter id="filter0_d_296_133" x="90.75" y="-0.75" width="91.5" height="91.5" filterUnits="userSpaceOnUse" color-interpolation-filters="sRGB">
<feFlood flood-opacity="0" result="BackgroundImageFix"/>
<feColorMatrix in="SourceAlpha" type="matrix" values="0 0 0 0 0 0 0 0 0 0 0 0 0 0 0 0 0 0 127 0" result="hardAlpha"/>
<feMorphology radius="2.25" operator="erode" in="SourceAlpha" result="effect1_dropShadow_296_133"/>
<feOffset dx="3.75" dy="3"/>
<feGaussianBlur stdDeviation="3"/>
<feComposite in2="hardAlpha" operator="out"/>
<feColorMatrix type="matrix" values="0 0 0 0 0 0 0 0 0 0 0 0 0 0 0 0 0 0 0.25 0"/>
<feBlend mode="normal" in2="BackgroundImageFix" result="effect1_dropShadow_296_133"/>
<feBlend mode="normal" in="SourceGraphic" in2="effect1_dropShadow_296_133" result="shape"/>
</filter>
<linearGradient id="paint0_linear_296_133" x1="131.938" y1="33.0172" x2="155.656" y2="33.0172" gradientUnits="userSpaceOnUse">
<stop stop-color="#E7F6FA"/>
<stop offset="1" stop-color="white"/>
</linearGradient>
<clipPath id="clip0_296_133">
<rect width="264" height="192" fill="white" transform="translate(0.75)"/>
</clipPath>
</defs>
</svg>
