<svg width="264" height="192" viewBox="0 0 264 192" fill="none" xmlns="http://www.w3.org/2000/svg">
<g clip-path="url(#clip0_296_105)">
<path d="M23.8022 138V120.12H29.6342C31.5222 120.12 33.1622 120.504 34.5542 121.272C35.9622 122.024 37.0502 123.072 37.8182 124.416C38.5862 125.744 38.9702 127.288 38.9702 129.048C38.9702 130.792 38.5862 132.344 37.8182 133.704C37.0502 135.048 35.9622 136.104 34.5542 136.872C33.1622 137.624 31.5222 138 29.6342 138H23.8022ZM27.0662 135.12H29.7062C30.9222 135.12 31.9702 134.872 32.8502 134.376C33.7462 133.864 34.4422 133.16 34.9382 132.264C35.4342 131.352 35.6822 130.28 35.6822 129.048C35.6822 127.8 35.4342 126.728 34.9382 125.832C34.4422 124.936 33.7462 124.24 32.8502 123.744C31.9702 123.248 30.9222 123 29.7062 123H27.0662V135.12ZM45.217 138.288C44.305 138.288 43.513 138.136 42.841 137.832C42.169 137.528 41.649 137.096 41.281 136.536C40.913 135.96 40.729 135.296 40.729 134.544C40.729 133.824 40.889 133.184 41.209 132.624C41.529 132.048 42.025 131.568 42.697 131.184C43.369 130.8 44.217 130.528 45.241 130.368L49.513 129.672V132.072L45.841 132.696C45.217 132.808 44.753 133.008 44.449 133.296C44.145 133.584 43.993 133.96 43.993 134.424C43.993 134.872 44.161 135.232 44.497 135.504C44.849 135.76 45.281 135.888 45.793 135.888C46.449 135.888 47.025 135.752 47.521 135.48C48.033 135.192 48.425 134.8 48.697 134.304C48.985 133.808 49.129 133.264 49.129 132.672V129.312C49.129 128.752 48.905 128.288 48.457 127.92C48.025 127.536 47.449 127.344 46.729 127.344C46.057 127.344 45.457 127.528 44.929 127.896C44.417 128.248 44.041 128.72 43.801 129.312L41.233 128.064C41.489 127.376 41.889 126.784 42.433 126.288C42.993 125.776 43.649 125.376 44.401 125.088C45.153 124.8 45.969 124.656 46.849 124.656C47.921 124.656 48.865 124.856 49.681 125.256C50.497 125.64 51.129 126.184 51.577 126.888C52.041 127.576 52.273 128.384 52.273 129.312V138H49.297V135.768L49.969 135.72C49.633 136.28 49.233 136.752 48.769 137.136C48.305 137.504 47.777 137.792 47.185 138C46.593 138.192 45.937 138.288 45.217 138.288ZM61.5148 143.28C60.5388 143.28 59.6348 143.12 58.8028 142.8C57.9708 142.48 57.2508 142.032 56.6428 141.456C56.0508 140.896 55.6188 140.232 55.3468 139.464L58.2748 138.36C58.4668 138.968 58.8428 139.456 59.4028 139.824C59.9788 140.208 60.6828 140.4 61.5148 140.4C62.1548 140.4 62.7148 140.28 63.1948 140.04C63.6908 139.8 64.0748 139.448 64.3468 138.984C64.6188 138.536 64.7548 137.992 64.7548 137.352V134.376L65.3548 135.096C64.9068 135.88 64.3068 136.472 63.5548 136.872C62.8028 137.272 61.9468 137.472 60.9868 137.472C59.7708 137.472 58.6828 137.192 57.7228 136.632C56.7628 136.072 56.0108 135.304 55.4668 134.328C54.9228 133.352 54.6508 132.256 54.6508 131.04C54.6508 129.808 54.9228 128.712 55.4668 127.752C56.0108 126.792 56.7548 126.04 57.6988 125.496C58.6428 124.936 59.7148 124.656 60.9148 124.656C61.8908 124.656 62.7468 124.864 63.4828 125.28C64.2348 125.68 64.8588 126.264 65.3548 127.032L64.9228 127.824V124.944H67.8988V137.352C67.8988 138.488 67.6188 139.504 67.0588 140.4C66.5148 141.296 65.7628 142 64.8028 142.512C63.8588 143.024 62.7628 143.28 61.5148 143.28ZM61.3708 134.568C62.0428 134.568 62.6268 134.424 63.1228 134.136C63.6348 133.832 64.0348 133.416 64.3228 132.888C64.6108 132.36 64.7548 131.752 64.7548 131.064C64.7548 130.392 64.6028 129.792 64.2988 129.264C64.0108 128.72 63.6108 128.296 63.0988 127.992C62.6028 127.688 62.0268 127.536 61.3708 127.536C60.7148 127.536 60.1228 127.688 59.5948 127.992C59.0668 128.296 58.6508 128.72 58.3468 129.264C58.0588 129.792 57.9148 130.392 57.9148 131.064C57.9148 131.736 58.0588 132.336 58.3468 132.864C58.6508 133.392 59.0588 133.808 59.5708 134.112C60.0988 134.416 60.6988 134.568 61.3708 134.568ZM70.8351 138V124.944H73.9791V138H70.8351ZM70.8351 123.48V120.12H73.9791V123.48H70.8351ZM76.882 138V124.944H79.834V127.512L79.594 127.056C79.898 126.272 80.394 125.68 81.082 125.28C81.786 124.864 82.602 124.656 83.53 124.656C84.49 124.656 85.338 124.864 86.074 125.28C86.826 125.696 87.41 126.28 87.826 127.032C88.242 127.768 88.45 128.624 88.45 129.6V138H85.306V130.344C85.306 129.768 85.194 129.272 84.97 128.856C84.746 128.44 84.434 128.12 84.034 127.896C83.65 127.656 83.194 127.536 82.666 127.536C82.154 127.536 81.698 127.656 81.298 127.896C80.898 128.12 80.586 128.44 80.362 128.856C80.138 129.272 80.026 129.768 80.026 130.344V138H76.882ZM97.4445 143.28C96.4685 143.28 95.5645 143.12 94.7325 142.8C93.9005 142.48 93.1805 142.032 92.5725 141.456C91.9805 140.896 91.5485 140.232 91.2765 139.464L94.2045 138.36C94.3965 138.968 94.7725 139.456 95.3325 139.824C95.9085 140.208 96.6125 140.4 97.4445 140.4C98.0845 140.4 98.6445 140.28 99.1245 140.04C99.6205 139.8 100.005 139.448 100.277 138.984C100.549 138.536 100.685 137.992 100.685 137.352V134.376L101.285 135.096C100.837 135.88 100.237 136.472 99.4845 136.872C98.7325 137.272 97.8765 137.472 96.9165 137.472C95.7005 137.472 94.6125 137.192 93.6525 136.632C92.6925 136.072 91.9405 135.304 91.3965 134.328C90.8525 133.352 90.5805 132.256 90.5805 131.04C90.5805 129.808 90.8525 128.712 91.3965 127.752C91.9405 126.792 92.6845 126.04 93.6285 125.496C94.5725 124.936 95.6445 124.656 96.8445 124.656C97.8205 124.656 98.6765 124.864 99.4125 125.28C100.165 125.68 100.789 126.264 101.285 127.032L100.853 127.824V124.944H103.829V137.352C103.829 138.488 103.549 139.504 102.989 140.4C102.445 141.296 101.693 142 100.733 142.512C99.7885 143.024 98.6925 143.28 97.4445 143.28ZM97.3005 134.568C97.9725 134.568 98.5565 134.424 99.0525 134.136C99.5645 133.832 99.9645 133.416 100.253 132.888C100.541 132.36 100.685 131.752 100.685 131.064C100.685 130.392 100.533 129.792 100.229 129.264C99.9405 128.72 99.5405 128.296 99.0285 127.992C98.5325 127.688 97.9565 127.536 97.3005 127.536C96.6445 127.536 96.0525 127.688 95.5245 127.992C94.9965 128.296 94.5805 128.72 94.2765 129.264C93.9885 129.792 93.8445 130.392 93.8445 131.064C93.8445 131.736 93.9885 132.336 94.2765 132.864C94.5805 133.392 94.9885 133.808 95.5005 134.112C96.0285 134.416 96.6285 134.568 97.3005 134.568ZM117.678 138.288C116.542 138.288 115.486 138.08 114.51 137.664C113.55 137.248 112.718 136.672 112.014 135.936C111.326 135.184 110.822 134.312 110.502 133.32L113.214 132.144C113.646 133.168 114.27 133.976 115.086 134.568C115.902 135.144 116.822 135.432 117.846 135.432C118.422 135.432 118.918 135.344 119.334 135.168C119.766 134.976 120.094 134.72 120.318 134.4C120.558 134.08 120.678 133.696 120.678 133.248C120.678 132.72 120.518 132.288 120.198 131.952C119.894 131.6 119.43 131.328 118.806 131.136L115.374 130.032C113.982 129.6 112.934 128.952 112.23 128.088C111.526 127.224 111.174 126.208 111.174 125.04C111.174 124.016 111.422 123.112 111.918 122.328C112.43 121.544 113.134 120.936 114.03 120.504C114.942 120.056 115.982 119.832 117.15 119.832C118.222 119.832 119.206 120.024 120.102 120.408C120.998 120.776 121.766 121.296 122.406 121.968C123.062 122.624 123.55 123.4 123.87 124.296L121.182 125.496C120.83 124.6 120.302 123.912 119.598 123.432C118.894 122.936 118.078 122.688 117.15 122.688C116.606 122.688 116.126 122.784 115.71 122.976C115.294 123.152 114.966 123.408 114.726 123.744C114.502 124.064 114.39 124.448 114.39 124.896C114.39 125.392 114.55 125.832 114.87 126.216C115.19 126.584 115.678 126.872 116.334 127.08L119.622 128.112C121.046 128.576 122.11 129.216 122.814 130.032C123.534 130.848 123.894 131.856 123.894 133.056C123.894 134.08 123.63 134.984 123.102 135.768C122.574 136.552 121.846 137.168 120.918 137.616C119.99 138.064 118.91 138.288 117.678 138.288ZM130.412 138.288C129.5 138.288 128.708 138.136 128.036 137.832C127.364 137.528 126.844 137.096 126.476 136.536C126.108 135.96 125.924 135.296 125.924 134.544C125.924 133.824 126.084 133.184 126.404 132.624C126.724 132.048 127.22 131.568 127.892 131.184C128.564 130.8 129.412 130.528 130.436 130.368L134.708 129.672V132.072L131.036 132.696C130.412 132.808 129.948 133.008 129.644 133.296C129.34 133.584 129.188 133.96 129.188 134.424C129.188 134.872 129.356 135.232 129.692 135.504C130.044 135.76 130.476 135.888 130.988 135.888C131.644 135.888 132.22 135.752 132.716 135.48C133.228 135.192 133.62 134.8 133.892 134.304C134.18 133.808 134.324 133.264 134.324 132.672V129.312C134.324 128.752 134.1 128.288 133.652 127.92C133.22 127.536 132.644 127.344 131.924 127.344C131.252 127.344 130.652 127.528 130.124 127.896C129.612 128.248 129.236 128.72 128.996 129.312L126.428 128.064C126.684 127.376 127.084 126.784 127.628 126.288C128.188 125.776 128.844 125.376 129.596 125.088C130.348 124.8 131.164 124.656 132.044 124.656C133.116 124.656 134.06 124.856 134.876 125.256C135.692 125.64 136.324 126.184 136.772 126.888C137.236 127.576 137.468 128.384 137.468 129.312V138H134.492V135.768L135.164 135.72C134.828 136.28 134.428 136.752 133.964 137.136C133.5 137.504 132.972 137.792 132.38 138C131.788 138.192 131.132 138.288 130.412 138.288ZM140.374 142.8V124.944H143.326V127.536L143.038 126.888C143.486 126.184 144.094 125.64 144.862 125.256C145.63 124.856 146.518 124.656 147.526 124.656C148.758 124.656 149.87 124.96 150.862 125.568C151.854 126.176 152.638 126.992 153.214 128.016C153.806 129.04 154.102 130.192 154.102 131.472C154.102 132.736 153.814 133.888 153.238 134.928C152.662 135.968 151.878 136.792 150.886 137.4C149.894 137.992 148.766 138.288 147.502 138.288C146.558 138.288 145.686 138.104 144.886 137.736C144.102 137.352 143.478 136.808 143.014 136.104L143.518 135.48V142.8H140.374ZM147.142 135.408C147.862 135.408 148.502 135.24 149.062 134.904C149.622 134.568 150.054 134.104 150.358 133.512C150.678 132.92 150.838 132.24 150.838 131.472C150.838 130.704 150.678 130.032 150.358 129.456C150.054 128.864 149.622 128.4 149.062 128.064C148.502 127.712 147.862 127.536 147.142 127.536C146.454 127.536 145.83 127.704 145.27 128.04C144.726 128.376 144.294 128.848 143.974 129.456C143.67 130.048 143.518 130.72 143.518 131.472C143.518 132.24 143.67 132.92 143.974 133.512C144.294 134.104 144.726 134.568 145.27 134.904C145.83 135.24 146.454 135.408 147.142 135.408ZM156.499 138V124.944H159.643V138H156.499ZM156.499 123.48V120.12H159.643V123.48H156.499ZM167.076 138V120.12H173.748C174.964 120.12 176.036 120.344 176.964 120.792C177.908 121.224 178.644 121.864 179.172 122.712C179.7 123.544 179.964 124.56 179.964 125.76C179.964 126.944 179.692 127.96 179.148 128.808C178.62 129.64 177.892 130.28 176.964 130.728C176.036 131.176 174.964 131.4 173.748 131.4H170.34V138H167.076ZM170.34 128.52H173.796C174.388 128.52 174.9 128.408 175.332 128.184C175.764 127.944 176.1 127.616 176.34 127.2C176.58 126.784 176.7 126.304 176.7 125.76C176.7 125.2 176.58 124.72 176.34 124.32C176.1 123.904 175.764 123.584 175.332 123.36C174.9 123.12 174.388 123 173.796 123H170.34V128.52ZM182.374 138V124.944H185.518V138H182.374ZM182.374 123.48V120.12H185.518V123.48H182.374ZM188.421 138V119.832H191.565V138H188.421ZM194.468 138V124.944H197.612V138H194.468ZM194.468 123.48V120.12H197.612V123.48H194.468ZM200.515 138V119.832H203.659V127.512L203.227 127.056C203.531 126.272 204.027 125.68 204.715 125.28C205.419 124.864 206.235 124.656 207.163 124.656C208.123 124.656 208.971 124.864 209.707 125.28C210.459 125.696 211.043 126.28 211.459 127.032C211.875 127.768 212.083 128.624 212.083 129.6V138H208.939V130.344C208.939 129.768 208.827 129.272 208.603 128.856C208.379 128.44 208.067 128.12 207.667 127.896C207.283 127.656 206.827 127.536 206.299 127.536C205.787 127.536 205.331 127.656 204.931 127.896C204.531 128.12 204.219 128.44 203.995 128.856C203.771 129.272 203.659 129.768 203.659 130.344V138H200.515ZM218.701 138.288C217.789 138.288 216.997 138.136 216.325 137.832C215.653 137.528 215.133 137.096 214.765 136.536C214.397 135.96 214.213 135.296 214.213 134.544C214.213 133.824 214.373 133.184 214.693 132.624C215.013 132.048 215.509 131.568 216.181 131.184C216.853 130.8 217.701 130.528 218.725 130.368L222.997 129.672V132.072L219.325 132.696C218.701 132.808 218.237 133.008 217.933 133.296C217.629 133.584 217.477 133.96 217.477 134.424C217.477 134.872 217.645 135.232 217.981 135.504C218.333 135.76 218.765 135.888 219.277 135.888C219.933 135.888 220.509 135.752 221.005 135.48C221.517 135.192 221.909 134.8 222.181 134.304C222.469 133.808 222.613 133.264 222.613 132.672V129.312C222.613 128.752 222.389 128.288 221.941 127.92C221.509 127.536 220.933 127.344 220.213 127.344C219.541 127.344 218.941 127.528 218.413 127.896C217.901 128.248 217.525 128.72 217.285 129.312L214.717 128.064C214.973 127.376 215.373 126.784 215.917 126.288C216.477 125.776 217.133 125.376 217.885 125.088C218.637 124.8 219.453 124.656 220.333 124.656C221.405 124.656 222.349 124.856 223.165 125.256C223.981 125.64 224.613 126.184 225.061 126.888C225.525 127.576 225.757 128.384 225.757 129.312V138H222.781V135.768L223.453 135.72C223.117 136.28 222.717 136.752 222.253 137.136C221.789 137.504 221.261 137.792 220.669 138C220.077 138.192 219.421 138.288 218.701 138.288ZM228.663 138V124.944H231.615V127.512L231.375 127.056C231.679 126.272 232.175 125.68 232.863 125.28C233.567 124.864 234.383 124.656 235.311 124.656C236.271 124.656 237.119 124.864 237.855 125.28C238.607 125.696 239.191 126.28 239.607 127.032C240.023 127.768 240.231 128.624 240.231 129.6V138H237.087V130.344C237.087 129.768 236.975 129.272 236.751 128.856C236.527 128.44 236.215 128.12 235.815 127.896C235.431 127.656 234.975 127.536 234.447 127.536C233.935 127.536 233.479 127.656 233.079 127.896C232.679 128.12 232.367 128.44 232.143 128.856C231.919 129.272 231.807 129.768 231.807 130.344V138H228.663Z" fill="#631D25"/>
<path d="M36.5472 165.5V154.325H40.1622C41.2622 154.325 42.2122 154.555 43.0122 155.015C43.8222 155.465 44.4472 156.11 44.8872 156.95C45.3272 157.78 45.5472 158.765 45.5472 159.905C45.5472 161.035 45.3272 162.02 44.8872 162.86C44.4472 163.7 43.8222 164.35 43.0122 164.81C42.2122 165.27 41.2622 165.5 40.1622 165.5H36.5472ZM37.5222 164.6H40.1472C41.0372 164.6 41.8072 164.405 42.4572 164.015C43.1172 163.625 43.6272 163.08 43.9872 162.38C44.3572 161.67 44.5422 160.845 44.5422 159.905C44.5422 158.955 44.3572 158.13 43.9872 157.43C43.6272 156.73 43.1172 156.19 42.4572 155.81C41.7972 155.42 41.0272 155.225 40.1472 155.225H37.5222V164.6ZM47.5297 165.5V157.535H48.4297V165.5H47.5297ZM47.5297 155.975V154.325H48.4297V155.975H47.5297ZM54.8888 165.68C54.1588 165.68 53.5038 165.505 52.9238 165.155C52.3538 164.795 51.9288 164.305 51.6488 163.685L51.7988 163.475V165.5H50.8988V154.145H51.7988V159.545L51.6488 159.26C51.9488 158.68 52.3788 158.22 52.9388 157.88C53.5088 157.53 54.1588 157.355 54.8888 157.355C55.6388 157.355 56.3088 157.535 56.8988 157.895C57.4888 158.255 57.9538 158.75 58.2938 159.38C58.6338 160.01 58.8038 160.72 58.8038 161.51C58.8038 162.3 58.6338 163.01 58.2938 163.64C57.9538 164.27 57.4888 164.77 56.8988 165.14C56.3088 165.5 55.6388 165.68 54.8888 165.68ZM54.8588 164.78C55.4288 164.78 55.9388 164.64 56.3888 164.36C56.8388 164.07 57.1938 163.68 57.4538 163.19C57.7138 162.69 57.8438 162.13 57.8438 161.51C57.8438 160.89 57.7138 160.335 57.4538 159.845C57.1938 159.355 56.8388 158.97 56.3888 158.69C55.9388 158.4 55.4288 158.255 54.8588 158.255C54.2888 158.255 53.7738 158.4 53.3138 158.69C52.8538 158.97 52.4888 159.355 52.2188 159.845C51.9488 160.335 51.8138 160.89 51.8138 161.51C51.8138 162.13 51.9488 162.69 52.2188 163.19C52.4888 163.68 52.8538 164.07 53.3138 164.36C53.7738 164.64 54.2888 164.78 54.8588 164.78ZM63.7823 165.68C63.2423 165.68 62.7423 165.555 62.2823 165.305C61.8323 165.055 61.4723 164.705 61.2023 164.255C60.9323 163.795 60.7973 163.25 60.7973 162.62V157.535H61.6973V162.545C61.6973 163.015 61.7923 163.42 61.9823 163.76C62.1823 164.09 62.4473 164.345 62.7773 164.525C63.1173 164.705 63.4973 164.795 63.9173 164.795C64.3773 164.795 64.7723 164.69 65.1023 164.48C65.4423 164.27 65.7023 163.98 65.8823 163.61C66.0623 163.23 66.1523 162.8 66.1523 162.32V157.535H67.0523V165.5H66.1523V163.88L66.3773 163.955C66.1973 164.475 65.8773 164.895 65.4173 165.215C64.9573 165.525 64.4123 165.68 63.7823 165.68ZM71.8263 165.68C71.3263 165.68 70.8813 165.585 70.4913 165.395C70.1013 165.205 69.7913 164.94 69.5613 164.6C69.3313 164.26 69.2163 163.87 69.2163 163.43C69.2163 163.04 69.3013 162.675 69.4713 162.335C69.6413 161.995 69.9163 161.705 70.2963 161.465C70.6763 161.215 71.1713 161.04 71.7813 160.94L75.0063 160.4V161.24L72.0213 161.735C71.3413 161.845 70.8613 162.05 70.5813 162.35C70.3013 162.65 70.1613 163 70.1613 163.4C70.1613 163.83 70.3213 164.18 70.6413 164.45C70.9713 164.72 71.3863 164.855 71.8863 164.855C72.4663 164.855 72.9713 164.725 73.4013 164.465C73.8313 164.195 74.1663 163.845 74.4063 163.415C74.6463 162.975 74.7663 162.495 74.7663 161.975V159.995C74.7663 159.465 74.5763 159.035 74.1963 158.705C73.8163 158.375 73.3213 158.21 72.7113 158.21C72.2113 158.21 71.7613 158.335 71.3613 158.585C70.9613 158.835 70.6563 159.16 70.4463 159.56L69.6363 159.125C69.7863 158.805 70.0163 158.51 70.3263 158.24C70.6363 157.97 70.9963 157.755 71.4063 157.595C71.8163 157.435 72.2513 157.355 72.7113 157.355C73.2913 157.355 73.8013 157.47 74.2413 157.7C74.6913 157.92 75.0413 158.23 75.2913 158.63C75.5413 159.02 75.6663 159.475 75.6663 159.995V165.5H74.7663V163.835L74.8713 163.91C74.7413 164.23 74.5263 164.525 74.2263 164.795C73.9263 165.055 73.5713 165.27 73.1613 165.44C72.7613 165.6 72.3163 165.68 71.8263 165.68ZM80.8934 165.59C80.2334 165.59 79.7234 165.405 79.3634 165.035C79.0034 164.655 78.8234 164.105 78.8234 163.385V158.39H77.3234V157.535H77.8934C78.1934 157.535 78.4234 157.445 78.5834 157.265C78.7434 157.085 78.8234 156.84 78.8234 156.53V155.675H79.7234V157.535H81.4634V158.39H79.7234V163.385C79.7234 163.605 79.7534 163.82 79.8134 164.03C79.8834 164.24 80.0134 164.41 80.2034 164.54C80.3934 164.67 80.6684 164.735 81.0284 164.735C81.1084 164.735 81.2034 164.73 81.3134 164.72C81.4334 164.71 81.5284 164.7 81.5984 164.69V165.5C81.4884 165.53 81.3634 165.55 81.2234 165.56C81.0834 165.58 80.9734 165.59 80.8934 165.59ZM86.3958 165.5V154.325H90.0108C91.1108 154.325 92.0608 154.555 92.8608 155.015C93.6708 155.465 94.2958 156.11 94.7358 156.95C95.1758 157.78 95.3958 158.765 95.3958 159.905C95.3958 161.035 95.1758 162.02 94.7358 162.86C94.2958 163.7 93.6708 164.35 92.8608 164.81C92.0608 165.27 91.1108 165.5 90.0108 165.5H86.3958ZM87.3708 164.6H89.9958C90.8858 164.6 91.6558 164.405 92.3058 164.015C92.9658 163.625 93.4758 163.08 93.8358 162.38C94.2058 161.67 94.3908 160.845 94.3908 159.905C94.3908 158.955 94.2058 158.13 93.8358 157.43C93.4758 156.73 92.9658 156.19 92.3058 155.81C91.6458 155.42 90.8758 155.225 89.9958 155.225H87.3708V164.6ZM101.023 165.68C100.273 165.68 99.5983 165.5 98.9983 165.14C98.3983 164.77 97.9233 164.27 97.5733 163.64C97.2233 163 97.0483 162.285 97.0483 161.495C97.0483 160.705 97.2183 160 97.5583 159.38C97.8983 158.75 98.3583 158.255 98.9383 157.895C99.5183 157.535 100.168 157.355 100.888 157.355C101.438 157.355 101.933 157.455 102.373 157.655C102.823 157.855 103.208 158.135 103.528 158.495C103.858 158.845 104.108 159.25 104.278 159.71C104.458 160.16 104.548 160.635 104.548 161.135C104.548 161.235 104.543 161.34 104.533 161.45C104.523 161.56 104.508 161.675 104.488 161.795H97.5733V160.97H103.978L103.573 161.285C103.633 160.705 103.548 160.185 103.318 159.725C103.088 159.255 102.758 158.885 102.328 158.615C101.908 158.335 101.428 158.195 100.888 158.195C100.348 158.195 99.8533 158.34 99.4033 158.63C98.9533 158.91 98.5983 159.3 98.3383 159.8C98.0783 160.29 97.9583 160.86 97.9783 161.51C97.9583 162.16 98.0833 162.735 98.3533 163.235C98.6233 163.735 98.9933 164.13 99.4633 164.42C99.9333 164.7 100.453 164.84 101.023 164.84C101.603 164.84 102.108 164.705 102.538 164.435C102.968 164.155 103.318 163.785 103.588 163.325L104.353 163.73C104.173 164.1 103.918 164.435 103.588 164.735C103.258 165.025 102.873 165.255 102.433 165.425C102.003 165.595 101.533 165.68 101.023 165.68ZM106.695 165.5V157.535H107.595V159.14L107.37 159.08C107.55 158.55 107.87 158.13 108.33 157.82C108.8 157.51 109.345 157.355 109.965 157.355C110.515 157.355 111.015 157.48 111.465 157.73C111.915 157.98 112.275 158.33 112.545 158.78C112.815 159.22 112.95 159.725 112.95 160.295V165.5H112.05V160.55C112.05 160.07 111.955 159.66 111.765 159.32C111.575 158.97 111.31 158.705 110.97 158.525C110.64 158.335 110.26 158.24 109.83 158.24C109.38 158.24 108.985 158.345 108.645 158.555C108.305 158.765 108.045 159.055 107.865 159.425C107.685 159.795 107.595 160.22 107.595 160.7V165.5H106.695ZM118.999 168.8C118.469 168.8 117.979 168.715 117.529 168.545C117.079 168.375 116.689 168.145 116.359 167.855C116.029 167.565 115.769 167.235 115.579 166.865L116.389 166.43C116.609 166.86 116.939 167.215 117.379 167.495C117.829 167.775 118.364 167.915 118.984 167.915C119.484 167.915 119.949 167.815 120.379 167.615C120.809 167.425 121.159 167.125 121.429 166.715C121.709 166.315 121.849 165.81 121.849 165.2V163.175L122.014 163.385C121.734 164.005 121.309 164.495 120.739 164.855C120.169 165.205 119.534 165.38 118.834 165.38C118.094 165.38 117.429 165.2 116.839 164.84C116.249 164.48 115.784 163.995 115.444 163.385C115.114 162.775 114.949 162.1 114.949 161.36C114.949 160.62 115.114 159.95 115.444 159.35C115.784 158.74 116.244 158.255 116.824 157.895C117.414 157.535 118.084 157.355 118.834 157.355C119.534 157.355 120.164 157.53 120.724 157.88C121.284 158.22 121.714 158.68 122.014 159.26L121.849 159.545V157.535H122.749V165.2C122.749 165.89 122.589 166.505 122.269 167.045C121.949 167.595 121.504 168.025 120.934 168.335C120.374 168.645 119.729 168.8 118.999 168.8ZM118.864 164.48C119.424 164.48 119.924 164.34 120.364 164.06C120.814 163.78 121.169 163.405 121.429 162.935C121.689 162.455 121.819 161.93 121.819 161.36C121.819 160.79 121.689 160.27 121.429 159.8C121.169 159.33 120.814 158.955 120.364 158.675C119.924 158.395 119.424 158.255 118.864 158.255C118.294 158.255 117.784 158.395 117.334 158.675C116.884 158.955 116.534 159.33 116.284 159.8C116.034 160.27 115.909 160.79 115.909 161.36C115.909 161.93 116.034 162.455 116.284 162.935C116.534 163.405 116.879 163.78 117.319 164.06C117.769 164.34 118.284 164.48 118.864 164.48ZM127.505 165.68C127.005 165.68 126.56 165.585 126.17 165.395C125.78 165.205 125.47 164.94 125.24 164.6C125.01 164.26 124.895 163.87 124.895 163.43C124.895 163.04 124.98 162.675 125.15 162.335C125.32 161.995 125.595 161.705 125.975 161.465C126.355 161.215 126.85 161.04 127.46 160.94L130.685 160.4V161.24L127.7 161.735C127.02 161.845 126.54 162.05 126.26 162.35C125.98 162.65 125.84 163 125.84 163.4C125.84 163.83 126 164.18 126.32 164.45C126.65 164.72 127.065 164.855 127.565 164.855C128.145 164.855 128.65 164.725 129.08 164.465C129.51 164.195 129.845 163.845 130.085 163.415C130.325 162.975 130.445 162.495 130.445 161.975V159.995C130.445 159.465 130.255 159.035 129.875 158.705C129.495 158.375 129 158.21 128.39 158.21C127.89 158.21 127.44 158.335 127.04 158.585C126.64 158.835 126.335 159.16 126.125 159.56L125.315 159.125C125.465 158.805 125.695 158.51 126.005 158.24C126.315 157.97 126.675 157.755 127.085 157.595C127.495 157.435 127.93 157.355 128.39 157.355C128.97 157.355 129.48 157.47 129.92 157.7C130.37 157.92 130.72 158.23 130.97 158.63C131.22 159.02 131.345 159.475 131.345 159.995V165.5H130.445V163.835L130.55 163.91C130.42 164.23 130.205 164.525 129.905 164.795C129.605 165.055 129.25 165.27 128.84 165.44C128.44 165.6 127.995 165.68 127.505 165.68ZM133.824 165.5V157.535H134.724V159.14L134.499 159.08C134.679 158.55 134.999 158.13 135.459 157.82C135.929 157.51 136.474 157.355 137.094 157.355C137.644 157.355 138.144 157.48 138.594 157.73C139.044 157.98 139.404 158.33 139.674 158.78C139.944 159.22 140.079 159.725 140.079 160.295V165.5H139.179V160.55C139.179 160.07 139.084 159.66 138.894 159.32C138.704 158.97 138.439 158.705 138.099 158.525C137.769 158.335 137.389 158.24 136.959 158.24C136.509 158.24 136.114 158.345 135.774 158.555C135.434 158.765 135.174 159.055 134.994 159.425C134.814 159.795 134.724 160.22 134.724 160.7V165.5H133.824ZM145.048 165.5V154.325H148.663C149.763 154.325 150.713 154.555 151.513 155.015C152.323 155.465 152.948 156.11 153.388 156.95C153.828 157.78 154.048 158.765 154.048 159.905C154.048 161.035 153.828 162.02 153.388 162.86C152.948 163.7 152.323 164.35 151.513 164.81C150.713 165.27 149.763 165.5 148.663 165.5H145.048ZM146.023 164.6H148.648C149.538 164.6 150.308 164.405 150.958 164.015C151.618 163.625 152.128 163.08 152.488 162.38C152.858 161.67 153.043 160.845 153.043 159.905C153.043 158.955 152.858 158.13 152.488 157.43C152.128 156.73 151.618 156.19 150.958 155.81C150.298 155.42 149.528 155.225 148.648 155.225H146.023V164.6ZM158.091 165.68C157.591 165.68 157.146 165.585 156.756 165.395C156.366 165.205 156.056 164.94 155.826 164.6C155.596 164.26 155.481 163.87 155.481 163.43C155.481 163.04 155.566 162.675 155.736 162.335C155.906 161.995 156.181 161.705 156.561 161.465C156.941 161.215 157.436 161.04 158.046 160.94L161.271 160.4V161.24L158.286 161.735C157.606 161.845 157.126 162.05 156.846 162.35C156.566 162.65 156.426 163 156.426 163.4C156.426 163.83 156.586 164.18 156.906 164.45C157.236 164.72 157.651 164.855 158.151 164.855C158.731 164.855 159.236 164.725 159.666 164.465C160.096 164.195 160.431 163.845 160.671 163.415C160.911 162.975 161.031 162.495 161.031 161.975V159.995C161.031 159.465 160.841 159.035 160.461 158.705C160.081 158.375 159.586 158.21 158.976 158.21C158.476 158.21 158.026 158.335 157.626 158.585C157.226 158.835 156.921 159.16 156.711 159.56L155.901 159.125C156.051 158.805 156.281 158.51 156.591 158.24C156.901 157.97 157.261 157.755 157.671 157.595C158.081 157.435 158.516 157.355 158.976 157.355C159.556 157.355 160.066 157.47 160.506 157.7C160.956 157.92 161.306 158.23 161.556 158.63C161.806 159.02 161.931 159.475 161.931 159.995V165.5H161.031V163.835L161.136 163.91C161.006 164.23 160.791 164.525 160.491 164.795C160.191 165.055 159.836 165.27 159.426 165.44C159.026 165.6 158.581 165.68 158.091 165.68ZM168.13 168.8C167.6 168.8 167.11 168.715 166.66 168.545C166.21 168.375 165.82 168.145 165.49 167.855C165.16 167.565 164.9 167.235 164.71 166.865L165.52 166.43C165.74 166.86 166.07 167.215 166.51 167.495C166.96 167.775 167.495 167.915 168.115 167.915C168.615 167.915 169.08 167.815 169.51 167.615C169.94 167.425 170.29 167.125 170.56 166.715C170.84 166.315 170.98 165.81 170.98 165.2V163.175L171.145 163.385C170.865 164.005 170.44 164.495 169.87 164.855C169.3 165.205 168.665 165.38 167.965 165.38C167.225 165.38 166.56 165.2 165.97 164.84C165.38 164.48 164.915 163.995 164.575 163.385C164.245 162.775 164.08 162.1 164.08 161.36C164.08 160.62 164.245 159.95 164.575 159.35C164.915 158.74 165.375 158.255 165.955 157.895C166.545 157.535 167.215 157.355 167.965 157.355C168.665 157.355 169.295 157.53 169.855 157.88C170.415 158.22 170.845 158.68 171.145 159.26L170.98 159.545V157.535H171.88V165.2C171.88 165.89 171.72 166.505 171.4 167.045C171.08 167.595 170.635 168.025 170.065 168.335C169.505 168.645 168.86 168.8 168.13 168.8ZM167.995 164.48C168.555 164.48 169.055 164.34 169.495 164.06C169.945 163.78 170.3 163.405 170.56 162.935C170.82 162.455 170.95 161.93 170.95 161.36C170.95 160.79 170.82 160.27 170.56 159.8C170.3 159.33 169.945 158.955 169.495 158.675C169.055 158.395 168.555 158.255 167.995 158.255C167.425 158.255 166.915 158.395 166.465 158.675C166.015 158.955 165.665 159.33 165.415 159.8C165.165 160.27 165.04 160.79 165.04 161.36C165.04 161.93 165.165 162.455 165.415 162.935C165.665 163.405 166.01 163.78 166.45 164.06C166.9 164.34 167.415 164.48 167.995 164.48ZM174.356 165.5V157.535H175.256V165.5H174.356ZM174.356 155.975V154.325H175.256V155.975H174.356ZM177.725 165.5V157.535H178.625V159.14L178.4 159.08C178.58 158.55 178.9 158.13 179.36 157.82C179.83 157.51 180.375 157.355 180.995 157.355C181.545 157.355 182.045 157.48 182.495 157.73C182.945 157.98 183.305 158.33 183.575 158.78C183.845 159.22 183.98 159.725 183.98 160.295V165.5H183.08V160.55C183.08 160.07 182.985 159.66 182.795 159.32C182.605 158.97 182.34 158.705 182 158.525C181.67 158.335 181.29 158.24 180.86 158.24C180.41 158.24 180.015 158.345 179.675 158.555C179.335 158.765 179.075 159.055 178.895 159.425C178.715 159.795 178.625 160.22 178.625 160.7V165.5H177.725ZM190.029 168.8C189.499 168.8 189.009 168.715 188.559 168.545C188.109 168.375 187.719 168.145 187.389 167.855C187.059 167.565 186.799 167.235 186.609 166.865L187.419 166.43C187.639 166.86 187.969 167.215 188.409 167.495C188.859 167.775 189.394 167.915 190.014 167.915C190.514 167.915 190.979 167.815 191.409 167.615C191.839 167.425 192.189 167.125 192.459 166.715C192.739 166.315 192.879 165.81 192.879 165.2V163.175L193.044 163.385C192.764 164.005 192.339 164.495 191.769 164.855C191.199 165.205 190.564 165.38 189.864 165.38C189.124 165.38 188.459 165.2 187.869 164.84C187.279 164.48 186.814 163.995 186.474 163.385C186.144 162.775 185.979 162.1 185.979 161.36C185.979 160.62 186.144 159.95 186.474 159.35C186.814 158.74 187.274 158.255 187.854 157.895C188.444 157.535 189.114 157.355 189.864 157.355C190.564 157.355 191.194 157.53 191.754 157.88C192.314 158.22 192.744 158.68 193.044 159.26L192.879 159.545V157.535H193.779V165.2C193.779 165.89 193.619 166.505 193.299 167.045C192.979 167.595 192.534 168.025 191.964 168.335C191.404 168.645 190.759 168.8 190.029 168.8ZM189.894 164.48C190.454 164.48 190.954 164.34 191.394 164.06C191.844 163.78 192.199 163.405 192.459 162.935C192.719 162.455 192.849 161.93 192.849 161.36C192.849 160.79 192.719 160.27 192.459 159.8C192.199 159.33 191.844 158.955 191.394 158.675C190.954 158.395 190.454 158.255 189.894 158.255C189.324 158.255 188.814 158.395 188.364 158.675C187.914 158.955 187.564 159.33 187.314 159.8C187.064 160.27 186.939 160.79 186.939 161.36C186.939 161.93 187.064 162.455 187.314 162.935C187.564 163.405 187.909 163.78 188.349 164.06C188.799 164.34 189.314 164.48 189.894 164.48ZM202.526 165.68C201.816 165.68 201.176 165.545 200.606 165.275C200.046 165.005 199.576 164.65 199.196 164.21C198.826 163.77 198.561 163.295 198.401 162.785L199.271 162.47C199.551 163.23 199.966 163.81 200.516 164.21C201.076 164.61 201.741 164.81 202.511 164.81C203.021 164.81 203.466 164.725 203.846 164.555C204.236 164.385 204.541 164.145 204.761 163.835C204.981 163.525 205.091 163.16 205.091 162.74C205.091 162.16 204.926 161.71 204.596 161.39C204.276 161.07 203.856 160.84 203.336 160.7L201.296 160.1C200.466 159.86 199.851 159.475 199.451 158.945C199.061 158.405 198.866 157.795 198.866 157.115C198.866 156.525 199.006 156.01 199.286 155.57C199.576 155.12 199.966 154.77 200.456 154.52C200.946 154.27 201.501 154.145 202.121 154.145C202.771 154.145 203.351 154.27 203.861 154.52C204.381 154.76 204.816 155.08 205.166 155.48C205.526 155.87 205.781 156.305 205.931 156.785L205.076 157.1C204.826 156.41 204.441 155.89 203.921 155.54C203.401 155.18 202.806 155 202.136 155C201.696 155 201.301 155.085 200.951 155.255C200.601 155.425 200.326 155.665 200.126 155.975C199.926 156.285 199.826 156.65 199.826 157.07C199.826 157.58 199.971 158.015 200.261 158.375C200.551 158.735 201.036 159.02 201.716 159.23L203.546 159.77C204.346 160.01 204.961 160.38 205.391 160.88C205.831 161.37 206.051 161.975 206.051 162.695C206.051 163.285 205.901 163.805 205.601 164.255C205.301 164.695 204.881 165.045 204.341 165.305C203.811 165.555 203.206 165.68 202.526 165.68ZM210.357 165.68C209.857 165.68 209.412 165.585 209.022 165.395C208.632 165.205 208.322 164.94 208.092 164.6C207.862 164.26 207.747 163.87 207.747 163.43C207.747 163.04 207.832 162.675 208.002 162.335C208.172 161.995 208.447 161.705 208.827 161.465C209.207 161.215 209.702 161.04 210.312 160.94L213.537 160.4V161.24L210.552 161.735C209.872 161.845 209.392 162.05 209.112 162.35C208.832 162.65 208.692 163 208.692 163.4C208.692 163.83 208.852 164.18 209.172 164.45C209.502 164.72 209.917 164.855 210.417 164.855C210.997 164.855 211.502 164.725 211.932 164.465C212.362 164.195 212.697 163.845 212.937 163.415C213.177 162.975 213.297 162.495 213.297 161.975V159.995C213.297 159.465 213.107 159.035 212.727 158.705C212.347 158.375 211.852 158.21 211.242 158.21C210.742 158.21 210.292 158.335 209.892 158.585C209.492 158.835 209.187 159.16 208.977 159.56L208.167 159.125C208.317 158.805 208.547 158.51 208.857 158.24C209.167 157.97 209.527 157.755 209.937 157.595C210.347 157.435 210.782 157.355 211.242 157.355C211.822 157.355 212.332 157.47 212.772 157.7C213.222 157.92 213.572 158.23 213.822 158.63C214.072 159.02 214.197 159.475 214.197 159.995V165.5H213.297V163.835L213.402 163.91C213.272 164.23 213.057 164.525 212.757 164.795C212.457 165.055 212.102 165.27 211.692 165.44C211.292 165.6 210.847 165.68 210.357 165.68ZM216.675 168.5V157.535H217.575V159.545L217.425 159.26C217.725 158.68 218.155 158.22 218.715 157.88C219.285 157.53 219.935 157.355 220.665 157.355C221.415 157.355 222.085 157.535 222.675 157.895C223.265 158.255 223.73 158.75 224.07 159.38C224.41 160.01 224.58 160.725 224.58 161.525C224.58 162.305 224.41 163.01 224.07 163.64C223.73 164.27 223.265 164.77 222.675 165.14C222.085 165.5 221.415 165.68 220.665 165.68C219.935 165.68 219.28 165.505 218.7 165.155C218.13 164.795 217.705 164.305 217.425 163.685L217.575 163.475V168.5H216.675ZM220.635 164.78C221.205 164.78 221.715 164.64 222.165 164.36C222.615 164.07 222.97 163.68 223.23 163.19C223.49 162.69 223.62 162.13 223.62 161.51C223.62 160.89 223.49 160.335 223.23 159.845C222.97 159.355 222.615 158.97 222.165 158.69C221.715 158.4 221.205 158.255 220.635 158.255C220.065 158.255 219.55 158.4 219.09 158.69C218.63 158.97 218.265 159.355 217.995 159.845C217.725 160.335 217.59 160.89 217.59 161.51C217.59 162.13 217.725 162.69 217.995 163.19C218.265 163.68 218.625 164.07 219.075 164.36C219.535 164.64 220.055 164.78 220.635 164.78ZM226.739 165.5V157.535H227.639V165.5H226.739ZM226.739 155.975V154.325H227.639V155.975H226.739ZM88.8979 184.68C88.1879 184.68 87.5479 184.545 86.9779 184.275C86.4179 184.005 85.9479 183.65 85.5679 183.21C85.1979 182.77 84.9329 182.295 84.7729 181.785L85.6429 181.47C85.9229 182.23 86.3379 182.81 86.8879 183.21C87.4479 183.61 88.1129 183.81 88.8829 183.81C89.3929 183.81 89.8379 183.725 90.2179 183.555C90.6079 183.385 90.9129 183.145 91.1329 182.835C91.3529 182.525 91.4629 182.16 91.4629 181.74C91.4629 181.16 91.2979 180.71 90.9679 180.39C90.6479 180.07 90.2279 179.84 89.7079 179.7L87.6679 179.1C86.8379 178.86 86.2229 178.475 85.8229 177.945C85.4329 177.405 85.2379 176.795 85.2379 176.115C85.2379 175.525 85.3779 175.01 85.6579 174.57C85.9479 174.12 86.3379 173.77 86.8279 173.52C87.3179 173.27 87.8729 173.145 88.4929 173.145C89.1429 173.145 89.7229 173.27 90.2329 173.52C90.7529 173.76 91.1879 174.08 91.5379 174.48C91.8979 174.87 92.1529 175.305 92.3029 175.785L91.4479 176.1C91.1979 175.41 90.8129 174.89 90.2929 174.54C89.7729 174.18 89.1779 174 88.5079 174C88.0679 174 87.6729 174.085 87.3229 174.255C86.9729 174.425 86.6979 174.665 86.4979 174.975C86.2979 175.285 86.1979 175.65 86.1979 176.07C86.1979 176.58 86.3429 177.015 86.6329 177.375C86.9229 177.735 87.4079 178.02 88.0879 178.23L89.9179 178.77C90.7179 179.01 91.3329 179.38 91.7629 179.88C92.2029 180.37 92.4229 180.975 92.4229 181.695C92.4229 182.285 92.2729 182.805 91.9729 183.255C91.6729 183.695 91.2529 184.045 90.7129 184.305C90.1829 184.555 89.5779 184.68 88.8979 184.68ZM98.3866 184.68C97.6366 184.68 96.9616 184.5 96.3616 184.14C95.7616 183.77 95.2866 183.27 94.9366 182.64C94.5866 182 94.4116 181.285 94.4116 180.495C94.4116 179.705 94.5816 179 94.9216 178.38C95.2616 177.75 95.7216 177.255 96.3016 176.895C96.8816 176.535 97.5316 176.355 98.2516 176.355C98.8016 176.355 99.2966 176.455 99.7366 176.655C100.187 176.855 100.572 177.135 100.892 177.495C101.222 177.845 101.472 178.25 101.642 178.71C101.822 179.16 101.912 179.635 101.912 180.135C101.912 180.235 101.907 180.34 101.897 180.45C101.887 180.56 101.872 180.675 101.852 180.795H94.9366V179.97H101.342L100.937 180.285C100.997 179.705 100.912 179.185 100.682 178.725C100.452 178.255 100.122 177.885 99.6916 177.615C99.2716 177.335 98.7916 177.195 98.2516 177.195C97.7116 177.195 97.2166 177.34 96.7666 177.63C96.3166 177.91 95.9616 178.3 95.7016 178.8C95.4416 179.29 95.3216 179.86 95.3416 180.51C95.3216 181.16 95.4466 181.735 95.7166 182.235C95.9866 182.735 96.3566 183.13 96.8266 183.42C97.2966 183.7 97.8166 183.84 98.3866 183.84C98.9666 183.84 99.4716 183.705 99.9016 183.435C100.332 183.155 100.682 182.785 100.952 182.325L101.717 182.73C101.537 183.1 101.282 183.435 100.952 183.735C100.622 184.025 100.237 184.255 99.7966 184.425C99.3666 184.595 98.8966 184.68 98.3866 184.68ZM107.778 187.8C107.248 187.8 106.758 187.715 106.308 187.545C105.858 187.375 105.468 187.145 105.138 186.855C104.808 186.565 104.548 186.235 104.358 185.865L105.168 185.43C105.388 185.86 105.718 186.215 106.158 186.495C106.608 186.775 107.143 186.915 107.763 186.915C108.263 186.915 108.728 186.815 109.158 186.615C109.588 186.425 109.938 186.125 110.208 185.715C110.488 185.315 110.628 184.81 110.628 184.2V182.175L110.793 182.385C110.513 183.005 110.088 183.495 109.518 183.855C108.948 184.205 108.313 184.38 107.613 184.38C106.873 184.38 106.208 184.2 105.618 183.84C105.028 183.48 104.563 182.995 104.223 182.385C103.893 181.775 103.728 181.1 103.728 180.36C103.728 179.62 103.893 178.95 104.223 178.35C104.563 177.74 105.023 177.255 105.603 176.895C106.193 176.535 106.863 176.355 107.613 176.355C108.313 176.355 108.943 176.53 109.503 176.88C110.063 177.22 110.493 177.68 110.793 178.26L110.628 178.545V176.535H111.528V184.2C111.528 184.89 111.368 185.505 111.048 186.045C110.728 186.595 110.283 187.025 109.713 187.335C109.153 187.645 108.508 187.8 107.778 187.8ZM107.643 183.48C108.203 183.48 108.703 183.34 109.143 183.06C109.593 182.78 109.948 182.405 110.208 181.935C110.468 181.455 110.598 180.93 110.598 180.36C110.598 179.79 110.468 179.27 110.208 178.8C109.948 178.33 109.593 177.955 109.143 177.675C108.703 177.395 108.203 177.255 107.643 177.255C107.073 177.255 106.563 177.395 106.113 177.675C105.663 177.955 105.313 178.33 105.063 178.8C104.813 179.27 104.688 179.79 104.688 180.36C104.688 180.93 104.813 181.455 105.063 181.935C105.313 182.405 105.658 182.78 106.098 183.06C106.548 183.34 107.063 183.48 107.643 183.48ZM116.284 184.68C115.784 184.68 115.339 184.585 114.949 184.395C114.559 184.205 114.249 183.94 114.019 183.6C113.789 183.26 113.674 182.87 113.674 182.43C113.674 182.04 113.759 181.675 113.929 181.335C114.099 180.995 114.374 180.705 114.754 180.465C115.134 180.215 115.629 180.04 116.239 179.94L119.464 179.4V180.24L116.479 180.735C115.799 180.845 115.319 181.05 115.039 181.35C114.759 181.65 114.619 182 114.619 182.4C114.619 182.83 114.779 183.18 115.099 183.45C115.429 183.72 115.844 183.855 116.344 183.855C116.924 183.855 117.429 183.725 117.859 183.465C118.289 183.195 118.624 182.845 118.864 182.415C119.104 181.975 119.224 181.495 119.224 180.975V178.995C119.224 178.465 119.034 178.035 118.654 177.705C118.274 177.375 117.779 177.21 117.169 177.21C116.669 177.21 116.219 177.335 115.819 177.585C115.419 177.835 115.114 178.16 114.904 178.56L114.094 178.125C114.244 177.805 114.474 177.51 114.784 177.24C115.094 176.97 115.454 176.755 115.864 176.595C116.274 176.435 116.709 176.355 117.169 176.355C117.749 176.355 118.259 176.47 118.699 176.7C119.149 176.92 119.499 177.23 119.749 177.63C119.999 178.02 120.124 178.475 120.124 178.995V184.5H119.224V182.835L119.329 182.91C119.199 183.23 118.984 183.525 118.684 183.795C118.384 184.055 118.029 184.27 117.619 184.44C117.219 184.6 116.774 184.68 116.284 184.68ZM122.603 184.5V176.535H123.503V178.02L123.338 177.885C123.508 177.435 123.798 177.08 124.208 176.82C124.628 176.56 125.123 176.43 125.693 176.43H126.203V177.33H125.588C124.938 177.33 124.428 177.54 124.058 177.96C123.688 178.37 123.503 178.925 123.503 179.625V184.5H122.603ZM132.292 184.5V174.225H129.172V173.325H136.372V174.225H133.267V184.5H132.292ZM140.442 184.68C139.692 184.68 139.017 184.5 138.417 184.14C137.817 183.77 137.342 183.27 136.992 182.64C136.642 182 136.467 181.285 136.467 180.495C136.467 179.705 136.637 179 136.977 178.38C137.317 177.75 137.777 177.255 138.357 176.895C138.937 176.535 139.587 176.355 140.307 176.355C140.857 176.355 141.352 176.455 141.792 176.655C142.242 176.855 142.627 177.135 142.947 177.495C143.277 177.845 143.527 178.25 143.697 178.71C143.877 179.16 143.967 179.635 143.967 180.135C143.967 180.235 143.962 180.34 143.952 180.45C143.942 180.56 143.927 180.675 143.907 180.795H136.992V179.97H143.397L142.992 180.285C143.052 179.705 142.967 179.185 142.737 178.725C142.507 178.255 142.177 177.885 141.747 177.615C141.327 177.335 140.847 177.195 140.307 177.195C139.767 177.195 139.272 177.34 138.822 177.63C138.372 177.91 138.017 178.3 137.757 178.8C137.497 179.29 137.377 179.86 137.397 180.51C137.377 181.16 137.502 181.735 137.772 182.235C138.042 182.735 138.412 183.13 138.882 183.42C139.352 183.7 139.872 183.84 140.442 183.84C141.022 183.84 141.527 183.705 141.957 183.435C142.387 183.155 142.737 182.785 143.007 182.325L143.772 182.73C143.592 183.1 143.337 183.435 143.007 183.735C142.677 184.025 142.292 184.255 141.852 184.425C141.422 184.595 140.952 184.68 140.442 184.68ZM146.114 184.5V176.535H147.014V178.02L146.849 177.885C147.019 177.435 147.309 177.08 147.719 176.82C148.139 176.56 148.634 176.43 149.204 176.43H149.714V177.33H149.099C148.449 177.33 147.939 177.54 147.569 177.96C147.199 178.37 147.014 178.925 147.014 179.625V184.5H146.114ZM155.187 184.68C154.457 184.68 153.802 184.505 153.222 184.155C152.652 183.795 152.227 183.305 151.947 182.685L152.097 182.475V184.5H151.197V173.145H152.097V178.545L151.947 178.26C152.247 177.68 152.677 177.22 153.237 176.88C153.807 176.53 154.457 176.355 155.187 176.355C155.937 176.355 156.607 176.535 157.197 176.895C157.787 177.255 158.252 177.75 158.592 178.38C158.932 179.01 159.102 179.72 159.102 180.51C159.102 181.3 158.932 182.01 158.592 182.64C158.252 183.27 157.787 183.77 157.197 184.14C156.607 184.5 155.937 184.68 155.187 184.68ZM155.157 183.78C155.727 183.78 156.237 183.64 156.687 183.36C157.137 183.07 157.492 182.68 157.752 182.19C158.012 181.69 158.142 181.13 158.142 180.51C158.142 179.89 158.012 179.335 157.752 178.845C157.492 178.355 157.137 177.97 156.687 177.69C156.237 177.4 155.727 177.255 155.157 177.255C154.587 177.255 154.072 177.4 153.612 177.69C153.152 177.97 152.787 178.355 152.517 178.845C152.247 179.335 152.112 179.89 152.112 180.51C152.112 181.13 152.247 181.69 152.517 182.19C152.787 182.68 153.152 183.07 153.612 183.36C154.072 183.64 154.587 183.78 155.157 183.78ZM163.54 184.68C163.04 184.68 162.595 184.585 162.205 184.395C161.815 184.205 161.505 183.94 161.275 183.6C161.045 183.26 160.93 182.87 160.93 182.43C160.93 182.04 161.015 181.675 161.185 181.335C161.355 180.995 161.63 180.705 162.01 180.465C162.39 180.215 162.885 180.04 163.495 179.94L166.72 179.4V180.24L163.735 180.735C163.055 180.845 162.575 181.05 162.295 181.35C162.015 181.65 161.875 182 161.875 182.4C161.875 182.83 162.035 183.18 162.355 183.45C162.685 183.72 163.1 183.855 163.6 183.855C164.18 183.855 164.685 183.725 165.115 183.465C165.545 183.195 165.88 182.845 166.12 182.415C166.36 181.975 166.48 181.495 166.48 180.975V178.995C166.48 178.465 166.29 178.035 165.91 177.705C165.53 177.375 165.035 177.21 164.425 177.21C163.925 177.21 163.475 177.335 163.075 177.585C162.675 177.835 162.37 178.16 162.16 178.56L161.35 178.125C161.5 177.805 161.73 177.51 162.04 177.24C162.35 176.97 162.71 176.755 163.12 176.595C163.53 176.435 163.965 176.355 164.425 176.355C165.005 176.355 165.515 176.47 165.955 176.7C166.405 176.92 166.755 177.23 167.005 177.63C167.255 178.02 167.38 178.475 167.38 178.995V184.5H166.48V182.835L166.585 182.91C166.455 183.23 166.24 183.525 165.94 183.795C165.64 184.055 165.285 184.27 164.875 184.44C164.475 184.6 164.03 184.68 163.54 184.68ZM169.859 184.5V176.535H170.759V184.5H169.859ZM169.859 174.975V173.325H170.759V174.975H169.859ZM173.228 184.5V173.145H174.128V181.26L173.663 181.215L178.373 176.535H179.603L176.393 179.745L179.903 184.5H178.778L175.448 180.03L176.048 180.045L173.888 182.265L174.128 181.65V184.5H173.228Z" fill="#414141"/>
<g filter="url(#filter0_d_296_105)">
<rect x="90" width="84" height="84" rx="42" fill="white"/>
<path d="M115.295 32.9075C115.295 32.9075 116.371 26.7588 122.332 24.9866C128.294 23.2148 131.688 24.2933 133.675 24.6786C135.662 25.0639 138.891 28.1453 140.05 29.3781C141.209 30.6108 139.14 35.1565 139.14 35.1565L131.191 40.1624C131.191 40.1624 114.881 38.6708 115.295 32.9075Z" fill="#5F3E1B"/>
<path d="M116.212 33.9924C116.212 33.9924 117.214 27.8438 122.761 26.0716C128.308 24.2998 131.466 25.3783 133.316 25.7632C135.165 26.1485 138.169 29.2303 139.248 30.4626C140.326 31.6953 138.4 36.241 138.4 36.241L131.004 41.247C131.004 41.247 115.827 39.7558 116.212 33.9924Z" fill="#9B8F89"/>
<path d="M119.602 32.9667C119.602 32.9667 120.064 30.5786 121.643 30.2319C123.222 29.8853 124.147 31.9655 125.148 31.8882C126.15 31.8113 126.458 30.8483 127.614 31.0407C128.77 31.2331 130.041 32.0424 130.58 31.3492C131.119 30.6559 131.774 29.2968 132.892 29.6679C134.009 30.0391 133.195 28.4073 134.411 28.703C135.626 28.9992 136.474 31.1176 136.474 31.1176L130.464 37.503L119.602 32.9667Z" fill="#938179"/>
<path d="M128.574 29.8856C128.574 29.8856 128.664 30.4208 129.768 29.8856C130.871 29.3503 131.187 28.592 131.052 28.1459C130.917 27.6997 130.264 28.7703 129.52 28.7703C128.777 28.7703 128.215 28.5665 128.192 29.0702C128.169 29.5738 128.574 29.8856 128.574 29.8856Z" fill="#938179"/>
<path d="M122.577 28.9763C122.577 28.9763 123.339 30.3571 124.454 30.5057C125.569 30.6543 125.814 30.0492 125.678 29.7931C125.542 29.537 124.4 29.762 123.829 28.9683C123.258 28.1746 122.305 27.9963 122.577 28.9763Z" fill="#938179"/>
<path d="M118.06 31.0412C118.06 31.0412 118.869 29.2401 119.505 29.3029C120.14 29.3656 119.331 30.3861 119.196 31.1567C119.061 31.9273 119.341 32.3894 118.903 32.5819C118.464 32.7743 118.118 32.6587 118.06 32.5819C118.002 32.505 117.869 31.426 118.06 31.0412Z" fill="#938179"/>
<path d="M128.191 42.0099C128.191 42.0099 129.616 33.2548 137.826 29.8032C146.036 26.3516 153.135 27.3179 157.24 31.1062C161.344 34.8945 163.439 37.1671 164.109 43.7336C164.779 50.3 163.355 51.5625 161.848 53.8356C160.339 56.1086 155.565 58.634 147.773 58.2973C139.982 57.9606 135.039 56.3609 135.039 56.3609L128.191 42.0099Z" fill="#5F3E1B"/>
<path d="M129.84 41.8989C129.84 41.8989 131.149 33.8866 138.7 30.7279C146.25 27.5691 152.182 28.2624 155.957 31.7295C159.732 35.1967 161.658 37.2764 162.275 43.2859C162.891 49.2954 161.581 50.4508 160.194 52.531C158.807 54.6112 154.416 56.9225 147.252 56.614C140.087 56.3061 135.541 54.8423 135.541 54.8423L129.84 41.8989Z" fill="#ADA39C"/>
<path d="M137.166 32.8524C137.166 32.8524 134.469 35.3179 137.166 37.6292C139.862 39.9404 137.492 41.8664 138.677 43.4071C139.862 44.9478 142.405 45.8033 143.406 48.2645C144.408 50.7262 145.64 50.9309 150.417 49.6345C155.193 48.3381 157.741 49.6911 158.968 51.1115C160.195 52.5315 156.349 55.9651 149.492 55.1946C142.636 54.424 139.092 55.1177 137.551 53.5765C136.01 52.0358 132.697 42.8153 132.62 39.914C132.543 37.0128 134.007 35.2882 135.086 33.9932C136.164 32.6982 137.944 31.8286 137.166 32.8524Z" fill="#9B8F89"/>
<path d="M141.175 33.2359C141.175 33.2359 141.019 35.1246 142.175 36.0494C143.331 36.9738 141.347 38.1872 140.404 37.0318C139.46 35.8759 139.558 32.7422 140.405 32.4021C141.251 32.0621 141.175 33.2359 141.175 33.2359Z" fill="#9B8F89"/>
<path d="M144.254 45.309C144.254 45.309 145.757 46.8469 147.605 47.168C149.455 47.4892 152.633 46.796 152.286 45.6981C151.939 44.6002 149.307 45.8136 148.283 45.5245C147.258 45.2354 146.866 44.3687 145.906 44.3111C144.947 44.2536 145.005 43.1553 144.254 43.2713C143.503 43.3868 143.438 44.62 144.254 45.309Z" fill="#9B8F89"/>
<path d="M155.869 44.0232C155.869 44.0232 157.327 44.3528 158.534 43.2634C159.74 42.1741 160.701 41.993 160.943 42.8928C161.185 43.7921 160.318 45.2097 157.891 45.3102C155.464 45.4097 155.06 44.7164 155.869 44.0232Z" fill="#9B8F89"/>
<path d="M144.835 31.7154C144.835 31.7154 147.782 31.2339 149.515 32.0814C151.249 32.9288 151.186 33.9008 152.315 33.9927C153.445 34.0842 153.785 33.7951 155.493 34.9218C157.2 36.0489 158.308 40.2093 159.199 39.458C160.089 38.7068 158.876 35.2217 157.316 34.2196C155.756 33.2174 155.409 33.2533 154.542 32.3398C153.676 31.4263 151.422 30.0974 148.533 29.9819C145.644 29.8663 143.544 30.0394 143.669 30.9642C143.795 31.889 144.835 31.7154 144.835 31.7154Z" fill="#D1C9C3"/>
<path d="M100.224 56.5032C100.224 56.5032 100.025 58.7141 113.538 59.7997C127.052 60.8848 137.329 57.3262 138.475 54.6546C139.622 51.983 135.651 42.0173 132.211 38.8449C128.771 35.6725 127.952 35.8395 124.021 34.0026C120.09 32.1658 111.819 30.1624 104.939 35.6725C98.0603 41.1821 98.1768 54.249 100.224 56.5032Z" fill="#5F3E1B"/>
<path d="M101.883 55.8101C101.883 55.8101 101.035 57.813 113.747 58.8147C126.459 59.8163 135.473 55.8101 136.552 53.3447C137.63 50.8792 134.549 42.4046 131.313 39.477C128.077 36.5494 127.306 36.7036 123.608 35.0087C119.91 33.3138 112.129 31.4647 105.657 36.5494C99.1863 41.6345 99.9569 53.7299 101.883 55.8101Z" fill="#BFB8B2"/>
<path d="M103.306 55.0014C103.306 55.0014 101.226 51.2466 102.034 46.2482C102.843 41.2493 103.71 41.3073 104.403 42.2896C105.096 43.272 104.617 46.6811 105.955 47.3168C107.292 47.9525 108.91 47.4324 110.297 49.8592C111.684 52.286 116.248 53.0948 118.27 52.1705C120.293 51.2461 121.39 51.5927 125.435 53.3263C129.48 55.0599 132.444 51.2735 134.853 51.4197C137.264 51.5654 133.25 57.8159 122.199 58.1224C111.148 58.429 103.598 55.6187 103.306 55.0014Z" fill="#ADA39C"/>
<path d="M128.942 48.9992C128.942 48.9992 130.502 49.2228 131.889 48.414C133.276 47.6052 133.276 46.1574 132.64 45.4943C132.005 44.8313 131.779 46.1088 130.996 46.7992C130.214 47.4897 128.192 47.4316 128.191 48.1829C128.191 48.9337 128.596 48.9738 128.942 48.9992Z" fill="#ADA39C"/>
<path d="M106.293 38.8807C106.293 38.8807 107.102 41.9257 109.297 42.6279C111.493 43.3297 110.626 41.481 109.587 40.4987C108.547 39.5164 108.835 38.303 108.2 37.3786C107.564 36.4538 106.351 37.6097 106.293 38.8807Z" fill="#ADA39C"/>
<path d="M112.127 47.8365C112.127 47.8365 113.687 49.5121 115.652 49.6276C117.616 49.7432 118.367 48.1831 117.558 47.8365C116.749 47.4899 115.016 48.3576 113.86 47.346C112.705 46.3345 111.474 47.2574 112.127 47.8365Z" fill="#ADA39C"/>
<path d="M111.498 36.453C111.498 36.453 117.155 35.1816 120.333 36.1064C123.511 37.0307 120.506 37.9753 121.604 38.7742C122.702 39.573 123.799 38.0705 124.897 38.1286C125.995 38.1861 128.372 39.7749 129.842 41.8985C131.311 44.0225 131.831 42.2272 131.369 41.2467C130.907 40.2663 126.983 37.4358 125.94 36.9151C124.897 36.395 123.395 36.0479 123.395 36.0479C123.395 36.0479 120.275 33.9101 116.577 34.2568C112.878 34.6034 111.108 34.6614 110.491 35.4126C109.874 36.1639 110.601 36.6303 111.498 36.453Z" fill="#D1C9C3"/>
</g>
</g>
<defs>
<filter id="filter0_d_296_105" x="90" y="-0.75" width="91.5" height="91.5" filterUnits="userSpaceOnUse" color-interpolation-filters="sRGB">
<feFlood flood-opacity="0" result="BackgroundImageFix"/>
<feColorMatrix in="SourceAlpha" type="matrix" values="0 0 0 0 0 0 0 0 0 0 0 0 0 0 0 0 0 0 127 0" result="hardAlpha"/>
<feMorphology radius="2.25" operator="erode" in="SourceAlpha" result="effect1_dropShadow_296_105"/>
<feOffset dx="3.75" dy="3"/>
<feGaussianBlur stdDeviation="3"/>
<feComposite in2="hardAlpha" operator="out"/>
<feColorMatrix type="matrix" values="0 0 0 0 0 0 0 0 0 0 0 0 0 0 0 0 0 0 0.25 0"/>
<feBlend mode="normal" in2="BackgroundImageFix" result="effect1_dropShadow_296_105"/>
<feBlend mode="normal" in="SourceGraphic" in2="effect1_dropShadow_296_105" result="shape"/>
</filter>
<clipPath id="clip0_296_105">
<rect width="264" height="192" fill="white"/>
</clipPath>
</defs>
</svg>
